{"glyphs":{"0":{"ha":485,"x_min":13,"x_max":472,"o":"m 183 210 l 183 326 q 197 441 183 408 q 241 473 211 473 q 301 342 301 473 l 301 231 q 294 128 301 163 q 275 83 288 94 q 241 73 263 73 q 197 103 211 73 q 183 210 183 134 m 231 -10 q 330 3 288 -10 q 399 38 372 15 q 442 96 426 61 q 465 174 459 132 q 472 270 472 215 q 467 363 472 323 q 447 439 462 402 q 409 500 433 476 q 346 538 385 524 q 252 551 306 551 q 154 538 196 551 q 85 503 112 525 q 42 444 58 480 q 19 366 26 408 q 13 269 13 325 q 18 177 13 217 q 37 100 23 137 q 75 41 51 64 q 139 4 100 18 q 231 -10 178 -10 z "},"1":{"ha":303,"x_min":9,"x_max":248,"o":"m 93 0 l 248 0 l 248 542 l 145 542 q 123 500 137 517 q 89 473 109 483 q 52 459 70 463 q 9 450 35 454 l 9 352 l 93 361 l 93 0 z "},"2":{"ha":458,"x_min":33,"x_max":434,"o":"m 433 0 l 433 128 l 156 107 q 191 143 170 125 q 234 175 213 161 q 278 205 255 189 q 322 235 301 221 q 362 266 343 249 q 394 302 381 284 q 416 343 408 319 q 424 392 424 366 q 413 455 424 428 q 385 500 403 483 q 341 530 367 518 q 288 546 315 541 q 227 550 260 550 q 34 474 85 550 l 41 365 l 125 365 l 148 460 q 199 467 169 467 q 252 430 234 467 q 263 387 263 410 q 231 307 263 348 q 124 205 199 266 q 33 68 33 134 q 36 6 33 12 l 38 0 l 433 0 z "},"3":{"ha":394,"x_min":23,"x_max":373,"o":"m 164 -9 q 318 32 263 -9 q 373 135 373 74 q 338 242 373 205 q 244 284 303 279 q 354 396 354 293 q 344 457 354 430 q 311 506 333 485 q 252 539 289 527 q 164 550 215 550 q 23 508 89 550 l 23 432 q 96 457 56 457 q 164 438 138 457 q 189 377 189 419 q 164 319 189 334 q 88 304 139 304 l 82 304 l 82 241 l 94 241 q 189 161 189 241 q 186 133 189 145 q 173 109 182 121 q 144 90 164 97 q 96 83 125 83 q 23 108 56 83 l 23 32 q 164 -9 88 -9 z "},"4":{"ha":497,"x_min":6,"x_max":475,"o":"m 255 194 l 119 194 l 255 398 l 255 194 m 255 0 l 414 0 l 414 103 l 475 103 l 475 194 l 414 194 l 414 543 l 275 543 l 6 194 l 15 103 l 255 103 l 255 0 z "},"5":{"ha":437,"x_min":28,"x_max":401,"o":"m 170 -9 q 344 42 287 -9 q 401 185 401 94 q 387 262 401 229 q 348 313 373 294 q 294 341 324 332 q 230 350 265 350 q 185 345 209 350 q 148 331 160 339 l 167 428 l 360 428 l 392 543 l 67 543 l 36 233 q 151 259 100 259 q 225 238 201 259 q 248 180 248 216 q 218 110 248 131 q 126 89 188 89 q 74 98 106 89 q 28 119 43 107 l 28 35 q 170 -9 98 -9 z "},"6":{"ha":500,"x_min":31,"x_max":467,"o":"m 249 84 q 219 95 233 84 q 206 123 206 107 l 206 260 q 250 284 209 284 q 279 272 266 284 q 293 245 293 261 l 293 123 q 279 96 293 107 q 249 84 266 84 m 467 201 q 421 327 467 278 q 305 376 375 376 q 211 356 237 376 l 211 376 q 251 438 211 414 q 319 457 282 457 q 406 442 376 457 l 432 509 l 431 512 q 395 533 414 525 q 347 546 375 541 q 280 550 318 550 q 101 467 170 550 q 31 246 31 383 q 58 117 31 175 q 134 25 85 59 q 248 -9 184 -9 q 404 50 342 -9 q 467 201 467 108 z "},"7":{"ha":398,"x_min":19,"x_max":391,"o":"m 85 0 l 273 0 q 271 50 271 25 q 282 199 271 128 q 312 320 294 270 q 350 405 330 370 q 391 458 370 440 l 364 542 l 19 542 l 19 419 l 270 430 q 179 319 219 389 q 116 168 139 248 q 85 0 94 88 z "},"8":{"ha":465,"x_min":21,"x_max":440,"o":"m 225 79 q 171 101 188 82 q 155 159 154 120 q 181 214 155 193 q 214 194 195 205 q 242 178 232 184 q 262 165 252 172 q 276 150 272 157 q 280 132 280 142 q 264 93 280 108 q 225 79 248 77 m 247 349 q 232 357 243 351 q 217 366 222 363 q 203 375 211 369 q 191 386 195 381 q 184 399 187 391 q 181 415 181 406 q 197 451 181 437 q 235 465 213 465 q 278 448 257 465 q 300 406 300 430 q 298 394 300 400 q 293 380 296 387 q 286 366 290 373 q 277 351 282 358 q 266 338 272 344 q 247 349 256 344 m 225 -10 q 336 8 288 -10 q 412 63 383 25 q 440 156 440 101 q 431 204 440 182 q 406 243 423 225 q 371 275 389 261 q 328 303 353 288 q 370 330 352 315 q 397 360 388 344 q 412 390 407 375 q 417 422 416 406 q 405 468 417 446 q 371 509 393 491 q 313 538 349 527 q 236 549 278 549 q 90 509 142 549 q 37 396 38 469 q 42 347 36 369 q 60 307 48 324 q 85 278 72 290 q 117 254 99 266 q 64 226 87 246 q 31 183 42 206 q 21 138 21 160 q 49 59 21 93 q 123 7 77 25 q 225 -10 169 -10 z "},"9":{"ha":509,"x_min":28,"x_max":464,"o":"m 225 -9 q 350 32 295 -9 q 434 145 405 73 q 464 309 464 217 q 404 483 464 416 q 248 550 344 550 q 136 527 186 550 q 57 456 87 503 q 28 350 28 410 q 75 218 28 271 q 190 165 121 165 q 241 173 214 165 q 284 194 267 181 l 284 175 q 268 130 284 151 q 227 96 252 108 q 177 84 202 84 q 170 84 175 84 q 161 84 164 83 q 151 84 157 84 q 138 87 144 85 q 124 91 132 88 q 108 98 117 94 q 90 109 99 103 l 63 42 l 64 39 q 225 -9 126 -9 m 246 457 q 276 446 263 457 q 289 419 289 434 l 289 290 q 274 267 288 277 q 246 257 261 257 q 216 269 230 257 q 203 296 203 281 l 203 419 q 216 446 203 434 q 246 457 230 457 z "},"\r":{"ha":463,"x_min":0,"x_max":0,"o":""}," ":{"ha":185,"x_min":0,"x_max":0,"o":""},"!":{"ha":269,"x_min":42,"x_max":227,"o":"m 125 -9 l 143 -9 l 222 68 l 222 84 l 143 160 l 125 160 l 49 84 l 49 68 l 125 -9 m 99 202 l 170 202 q 182 313 171 263 q 221 437 194 363 q 227 478 227 456 q 205 545 227 521 q 135 569 182 569 q 66 547 89 569 q 42 480 42 525 q 48 437 42 457 q 87 313 75 363 q 99 202 98 263 z "},"\"":{"ha":374,"x_min":28,"x_max":346,"o":"m 46 303 l 127 303 l 150 619 l 28 619 l 46 303 m 243 303 l 323 303 l 346 619 l 224 619 l 243 303 z "},"#":{"ha":590,"x_min":25,"x_max":579,"o":"m 173 0 l 213 159 l 315 159 l 275 0 l 368 0 l 408 159 l 508 159 l 532 253 l 431 253 l 455 343 l 555 343 l 579 436 l 478 436 l 519 597 l 426 597 l 385 436 l 283 436 l 324 597 l 231 597 l 190 436 l 95 436 l 71 343 l 167 343 l 144 253 l 49 253 l 25 159 l 120 159 l 80 0 l 173 0 m 260 343 l 362 343 l 339 253 l 237 253 l 260 343 z "},"$":{"ha":386,"x_min":15,"x_max":369,"o":"m 247 -87 l 247 -4 q 338 56 306 10 q 369 178 369 102 q 337 274 369 234 q 238 342 305 313 q 218 353 231 346 q 198 364 206 359 q 183 375 191 369 q 171 389 175 381 q 167 407 167 397 q 226 444 167 444 q 278 434 251 444 q 323 402 305 423 l 346 491 q 343 496 345 493 q 332 506 341 499 q 313 521 324 514 q 285 534 303 527 q 247 545 267 541 l 247 620 l 131 620 l 131 541 q 68 512 94 531 q 29 460 43 492 q 16 383 16 427 q 21 341 16 361 q 33 306 25 321 q 51 277 40 291 q 72 255 63 263 q 96 237 82 246 q 117 223 109 227 q 137 213 125 219 q 201 175 182 191 q 220 137 220 159 q 203 108 220 116 q 150 100 187 100 q 81 119 113 100 q 30 163 49 138 l 19 51 q 61 19 33 35 q 131 -4 89 4 l 131 -87 l 247 -87 z "},"%":{"ha":871,"x_min":28,"x_max":844,"o":"m 674 37 q 649 55 656 37 q 641 111 641 73 l 641 238 q 674 290 641 290 q 699 272 692 290 q 706 214 706 253 l 706 90 q 674 37 706 37 m 671 -10 q 804 32 765 -10 q 844 166 844 74 q 835 241 844 210 q 808 295 827 272 q 757 328 789 317 q 676 339 724 339 q 593 327 626 339 q 540 292 559 316 q 513 237 521 268 q 505 161 505 205 q 542 30 505 70 q 671 -10 580 -10 m 197 239 q 172 257 180 239 q 164 313 164 275 l 164 441 q 197 493 164 493 q 222 474 215 493 q 230 417 230 456 l 230 293 q 197 239 230 239 m 194 192 q 328 234 288 192 q 367 369 367 276 q 359 444 367 413 q 331 497 350 475 q 280 530 313 519 q 199 541 247 541 q 116 530 150 541 q 63 494 82 518 q 36 439 44 470 q 28 363 28 407 q 65 232 28 272 q 194 192 103 192 m 194 0 l 307 0 l 681 542 l 568 542 l 194 0 z "},"&":{"ha":525,"x_min":6,"x_max":523,"o":"m 363 17 q 468 -8 400 -8 q 488 -7 475 -8 l 523 74 q 458 108 491 81 q 480 140 472 127 q 496 181 488 153 q 504 246 504 210 l 380 250 q 382 226 383 240 q 378 201 380 212 q 371 180 375 190 q 337 215 356 192 q 312 250 319 237 q 399 327 371 286 q 427 419 427 367 q 418 466 427 444 q 391 509 409 489 q 338 541 372 529 q 258 553 304 553 q 112 517 156 553 q 68 410 68 481 q 74 372 68 391 q 88 341 80 353 q 103 315 95 329 q 115 295 112 301 q 39 243 72 278 q 6 162 6 208 q 59 35 6 86 q 205 -16 113 -16 q 363 17 323 -16 m 144 159 q 148 194 144 183 q 163 212 152 205 q 283 81 208 134 q 271 75 279 79 q 260 70 264 72 q 251 66 256 69 q 242 64 246 64 q 231 63 237 63 q 170 90 196 63 q 144 159 144 117 m 256 488 q 295 421 295 488 q 294 386 295 399 q 283 357 292 374 q 256 326 275 341 q 222 413 222 365 q 256 488 222 488 z "},"'":{"ha":177,"x_min":28,"x_max":150,"o":"m 46 303 l 127 303 l 150 619 l 28 619 l 46 303 z "},"(":{"ha":274,"x_min":42,"x_max":264,"o":"m 177 -130 l 264 -130 q 194 31 219 -61 q 168 263 168 122 q 194 496 168 405 q 264 656 219 588 l 177 656 q 144 616 160 638 q 109 559 128 595 q 75 482 89 522 q 51 384 61 442 q 42 263 42 326 q 177 -130 42 18 z "},")":{"ha":274,"x_min":10,"x_max":233,"o":"m 10 -130 l 97 -130 q 130 -90 114 -111 q 166 -32 146 -69 q 199 45 185 5 q 223 143 213 85 q 232 263 232 200 q 97 656 232 509 l 10 656 q 47 589 31 624 q 77 508 63 555 q 99 399 91 461 q 106 263 106 338 q 80 31 106 122 q 10 -130 55 -61 z "},"*":{"ha":458,"x_min":19,"x_max":440,"o":"m 235 263 q 234 273 235 263 q 234 295 234 284 q 233 309 233 307 q 238 363 233 338 q 271 295 257 334 q 295 248 283 263 q 331 233 307 233 q 372 252 353 233 q 391 293 391 271 q 379 325 391 313 q 341 350 368 336 q 274 394 296 374 q 292 394 280 394 q 356 388 322 394 q 387 384 377 384 q 425 400 409 384 q 440 437 440 416 q 424 480 440 461 q 386 499 408 499 q 328 473 374 499 q 265 442 282 448 q 310 507 281 474 q 331 534 324 522 q 337 560 337 546 q 320 598 337 583 q 278 613 304 613 q 239 597 254 613 q 224 556 224 581 q 224 546 224 557 q 225 525 224 536 q 225 512 225 513 q 219 457 225 485 q 187 525 204 480 q 164 570 173 560 q 128 587 150 587 q 86 568 105 587 q 68 527 68 549 q 79 494 68 506 q 118 469 91 482 q 184 426 160 447 q 169 425 179 425 q 116 431 154 425 q 72 436 79 436 q 34 420 49 436 q 19 383 19 405 q 34 341 19 360 q 73 321 50 321 q 132 347 84 321 q 194 378 180 374 q 149 314 179 348 q 134 296 138 302 q 125 280 129 289 q 121 260 121 270 q 139 222 121 237 q 180 206 156 206 q 219 222 204 206 q 235 263 235 238 z "},"+":{"ha":531,"x_min":51,"x_max":481,"o":"m 214 9 l 317 9 l 317 192 l 481 192 l 481 285 l 317 285 l 317 466 l 214 466 l 214 285 l 51 285 l 51 192 l 214 192 l 214 9 z "},",":{"ha":192,"x_min":7,"x_max":181,"o":"m 83 -115 q 155 -23 131 -74 q 180 68 180 29 l 180 84 l 101 160 l 83 160 l 7 84 l 7 68 l 73 2 q 51 -53 67 -29 q 19 -91 35 -78 l 83 -115 z "},"-":{"ha":351,"x_min":37,"x_max":314,"o":"m 37 215 l 314 215 l 314 331 l 37 331 l 37 215 z "},".":{"ha":189,"x_min":7,"x_max":181,"o":"m 83 -9 l 101 -9 l 180 68 l 180 84 l 101 160 l 83 160 l 7 84 l 7 68 l 83 -9 z "},"/":{"ha":328,"x_min":13,"x_max":316,"o":"m 13 0 l 135 0 l 316 597 l 194 597 l 13 0 z "},":":{"ha":189,"x_min":7,"x_max":181,"o":"m 83 -9 l 101 -9 l 180 68 l 180 84 l 101 160 l 83 160 l 7 84 l 7 68 l 83 -9 m 83 225 l 101 225 l 180 302 l 180 318 l 101 394 l 83 394 l 7 318 l 7 302 l 83 225 z "},";":{"ha":192,"x_min":7,"x_max":180,"o":"m 83 225 l 101 225 l 180 302 l 180 318 l 101 394 l 83 394 l 7 318 l 7 302 l 83 225 m 83 -115 q 155 -23 131 -74 q 180 68 180 29 l 180 84 l 101 160 l 83 160 l 7 84 l 7 68 l 73 2 q 51 -53 67 -29 q 19 -91 35 -78 l 83 -115 z "},"<":{"ha":423,"x_min":12,"x_max":388,"o":"m 241 0 l 388 0 l 159 229 l 387 456 l 242 456 l 12 229 l 241 0 z "},"=":{"ha":531,"x_min":74,"x_max":458,"o":"m 74 99 l 457 99 l 457 192 l 74 192 l 74 99 m 74 286 l 457 286 l 457 379 l 74 379 l 74 286 z "},">":{"ha":423,"x_min":35,"x_max":412,"o":"m 35 0 l 182 0 l 411 229 l 181 456 l 36 456 l 264 229 l 35 0 z "},"?":{"ha":393,"x_min":29,"x_max":351,"o":"m 185 -9 l 202 -9 l 281 68 l 281 84 l 202 160 l 185 160 l 109 84 l 109 68 l 185 -9 m 232 213 l 231 219 q 229 227 229 223 q 242 257 229 239 q 272 294 254 275 q 308 333 290 313 q 338 377 326 354 q 351 420 351 400 q 187 550 351 550 q 29 461 71 550 l 92 423 q 112 450 97 440 q 144 461 127 461 q 179 449 166 461 q 193 411 193 437 q 168 338 193 395 q 143 264 143 281 q 153 214 143 232 l 232 213 z "},"@":{"ha":727,"x_min":20,"x_max":711,"o":"m 369 73 q 334 121 334 73 q 400 189 334 189 l 393 84 l 393 83 l 390 81 q 381 75 387 78 q 369 73 375 73 m 372 -153 q 490 -148 450 -153 l 497 -87 q 394 -93 443 -93 q 284 -83 331 -93 q 209 -55 238 -73 q 163 -10 180 -38 q 139 50 145 18 q 132 124 132 81 q 146 282 132 216 q 190 395 159 348 q 272 466 221 443 q 398 488 324 488 q 484 482 449 488 q 544 462 520 475 q 580 425 567 449 q 598 372 593 402 q 604 300 604 343 q 604 291 604 297 q 604 260 604 271 q 603 228 604 249 q 600 194 602 207 q 596 163 599 181 q 589 132 593 144 q 578 108 585 121 q 563 87 571 94 q 542 75 554 80 q 516 69 531 69 l 529 277 q 502 376 529 348 q 398 404 475 404 q 228 352 311 404 l 254 289 q 345 312 297 312 q 390 300 376 312 q 405 262 405 288 q 404 248 405 258 q 364 246 384 248 q 319 238 344 244 q 274 223 294 233 q 235 197 253 212 q 206 157 217 181 q 196 102 196 133 q 206 54 196 75 q 233 20 216 32 q 267 2 249 8 q 303 -4 285 -4 q 361 7 332 -4 q 404 31 390 19 l 418 42 q 423 34 419 42 q 430 25 428 27 q 436 18 431 24 q 447 11 442 13 q 459 6 451 9 q 478 2 468 3 q 502 1 489 1 q 657 72 604 1 q 711 266 711 143 q 418 557 711 557 q 260 532 331 557 q 134 458 188 507 q 50 330 80 409 q 20 148 20 251 q 108 -75 20 2 q 372 -153 197 -153 z "},"A":{"ha":454,"x_min":-9,"x_max":468,"o":"m 297 0 l 467 0 l 313 543 l 121 543 l 132 505 l -9 0 l 127 0 l 145 87 l 276 87 l 297 0 m 205 383 l 254 181 l 164 181 l 205 383 z "},"B":{"ha":454,"x_min":31,"x_max":442,"o":"m 220 91 l 184 91 l 184 241 l 220 241 q 264 228 244 241 q 283 186 283 216 l 283 153 q 268 109 283 128 q 220 91 253 91 m 277 404 l 277 392 q 263 341 277 362 q 221 319 248 319 l 184 319 l 184 453 l 218 453 q 262 442 246 453 q 277 404 277 431 m 251 -4 q 339 8 302 -4 q 399 43 377 21 q 431 95 421 66 q 442 159 442 124 q 333 288 442 278 q 399 331 376 296 q 421 416 421 367 q 412 471 421 448 q 382 512 403 494 q 323 538 361 529 q 232 547 286 547 q 178 545 215 547 q 111 543 140 543 l 31 543 l 31 0 l 75 0 q 158 -2 100 0 q 251 -4 215 -4 z "},"C":{"ha":384,"x_min":18,"x_max":378,"o":"m 374 38 l 353 112 q 310 94 336 100 q 261 88 284 88 q 241 91 250 88 q 220 105 231 94 q 200 134 208 116 q 186 187 192 153 q 180 267 180 221 q 189 385 180 344 q 214 440 198 426 q 262 454 231 454 q 276 452 268 454 l 300 397 l 370 397 l 377 503 q 373 508 376 505 q 358 520 370 512 q 332 535 346 528 q 292 546 317 541 q 238 551 267 551 q 132 532 175 551 q 64 476 88 513 q 28 388 39 438 q 18 270 18 338 q 28 157 18 206 q 63 69 39 108 q 131 10 88 31 q 234 -10 174 -10 q 288 -5 263 -10 q 328 7 313 0 q 354 22 343 14 q 369 33 365 29 l 374 38 z "},"D":{"ha":463,"x_min":31,"x_max":450,"o":"m 214 76 l 184 76 l 184 463 l 219 463 q 269 423 251 463 q 287 310 287 383 l 287 263 q 268 119 287 163 q 214 76 249 76 m 228 -3 q 319 14 279 -3 q 383 60 359 32 q 423 128 407 88 q 444 206 438 167 q 450 288 450 244 q 399 481 450 414 q 230 547 348 547 q 172 545 209 547 q 105 543 136 543 l 31 543 l 31 0 l 105 0 q 177 -2 142 0 q 228 -3 212 -3 z "},"E":{"ha":370,"x_min":31,"x_max":360,"o":"m 359 0 l 359 116 l 184 111 l 184 234 l 309 225 l 309 333 l 184 333 l 184 438 l 343 433 l 352 543 l 31 543 l 31 0 l 359 0 z "},"F":{"ha":343,"x_min":31,"x_max":337,"o":"m 184 0 l 184 202 l 309 193 l 309 308 l 184 308 l 184 434 l 337 425 l 337 543 l 31 543 l 31 0 l 184 0 z "},"G":{"ha":465,"x_min":9,"x_max":450,"o":"m 362 49 l 367 0 l 450 0 l 450 319 l 244 319 l 244 224 l 305 210 l 305 163 q 300 122 305 138 q 286 98 296 106 q 265 87 276 90 q 238 84 254 84 q 194 132 205 84 q 183 281 183 181 q 188 363 183 330 q 198 416 192 397 q 217 447 205 436 q 241 460 229 457 q 271 463 253 463 q 304 458 294 463 l 331 396 l 415 396 l 422 503 q 419 506 421 504 q 411 513 418 507 q 397 522 405 518 q 376 532 389 526 q 348 542 363 538 q 312 549 333 546 q 268 551 291 551 q 176 542 217 551 q 108 515 136 533 q 60 473 80 497 q 30 415 41 449 q 14 345 19 382 q 9 263 9 309 q 20 153 9 201 q 56 68 31 105 q 122 10 81 30 q 222 -10 164 -10 q 362 49 303 -10 z "},"H":{"ha":488,"x_min":31,"x_max":457,"o":"m 184 0 l 184 221 l 303 221 l 303 0 l 456 0 l 456 543 l 303 543 l 303 328 l 184 328 l 184 543 l 31 543 l 31 0 l 184 0 z "},"I":{"ha":222,"x_min":32,"x_max":191,"o":"m 32 0 l 190 0 l 190 543 l 32 543 l 32 0 z "},"J":{"ha":306,"x_min":27,"x_max":281,"o":"m 127 -9 q 192 1 164 -9 q 237 27 220 11 q 263 67 253 43 q 277 116 274 91 q 281 174 281 142 l 281 543 l 108 543 l 130 502 l 130 165 q 116 115 130 130 q 76 100 101 100 q 52 103 61 100 q 27 114 43 106 l 29 19 q 66 0 38 9 q 127 -9 93 -9 z "},"K":{"ha":456,"x_min":31,"x_max":464,"o":"m 294 0 l 464 0 q 433 60 454 14 q 393 151 413 106 q 351 238 374 196 q 316 288 329 279 l 454 543 l 300 543 l 184 283 l 184 543 l 31 543 l 31 0 l 184 0 l 184 253 q 227 162 203 222 q 270 54 251 102 q 294 0 288 7 z "},"L":{"ha":334,"x_min":31,"x_max":323,"o":"m 31 0 l 322 0 l 322 124 l 184 124 l 184 543 l 31 543 l 31 0 z "},"M":{"ha":625,"x_min":9,"x_max":616,"o":"m 149 0 l 163 319 l 166 437 l 251 54 l 372 54 l 443 437 l 448 319 l 472 0 l 616 0 l 576 543 l 382 543 l 346 360 l 329 269 l 310 361 l 269 543 l 52 543 l 9 0 l 149 0 z "},"N":{"ha":501,"x_min":8,"x_max":471,"o":"m 178 0 l 178 171 l 151 349 l 219 214 l 329 0 l 470 0 l 470 543 l 323 543 l 323 397 l 345 191 l 264 367 l 179 543 l 8 543 l 31 499 l 31 0 l 178 0 z "},"O":{"ha":485,"x_min":18,"x_max":467,"o":"m 188 210 l 188 326 q 200 441 188 410 q 241 473 212 473 q 284 441 271 473 q 297 342 297 408 l 297 231 q 291 128 297 163 q 274 84 285 94 q 241 73 263 73 q 200 103 212 73 q 188 210 188 133 m 231 -10 q 329 3 288 -10 q 397 38 371 16 q 439 97 424 61 q 461 174 455 132 q 467 270 467 215 q 465 338 467 308 q 456 397 463 367 q 441 450 450 427 q 414 492 431 472 q 375 525 398 512 q 322 544 353 537 q 252 551 291 551 q 154 538 196 551 q 87 503 113 525 q 45 444 61 480 q 23 366 29 407 q 18 269 18 325 q 20 202 18 232 q 28 142 22 172 q 44 90 34 113 q 71 49 54 68 q 109 17 87 29 q 162 -3 131 4 q 231 -10 193 -10 z "},"P":{"ha":434,"x_min":31,"x_max":430,"o":"m 184 0 l 184 115 q 190 114 185 115 q 197 114 195 114 q 204 114 199 114 q 212 113 209 113 q 221 113 215 113 q 230 112 226 113 q 239 112 234 112 q 248 112 244 112 q 317 128 284 112 q 375 175 349 144 q 415 252 400 205 q 430 356 430 299 q 384 499 430 451 q 248 547 338 547 q 166 545 216 547 q 92 543 117 543 l 31 543 l 31 0 l 184 0 m 278 376 l 278 308 q 258 237 278 262 q 201 213 238 213 l 184 213 l 184 453 l 206 453 q 260 432 241 453 q 278 376 278 411 z "},"Q":{"ha":485,"x_min":18,"x_max":468,"o":"m 241 68 q 200 98 212 68 q 188 205 188 128 l 188 326 q 209 458 188 431 q 241 473 220 473 q 284 441 271 473 q 297 342 297 408 l 297 226 q 280 87 297 115 q 241 68 268 68 m 289 -150 q 402 -117 364 -150 q 404 -116 403 -116 l 404 -53 q 395 -57 400 -56 q 384 -60 390 -59 q 372 -62 379 -62 q 339 -50 350 -62 q 328 0 328 -37 l 328 2 q 385 29 361 12 q 425 69 409 46 q 450 124 440 93 q 463 191 460 156 q 467 270 467 226 q 465 338 467 308 q 456 397 463 367 q 441 450 450 427 q 414 492 431 472 q 375 525 398 512 q 322 544 353 537 q 252 551 291 551 q 154 538 196 551 q 87 503 113 525 q 45 444 61 480 q 23 366 29 407 q 18 269 18 325 q 19 209 18 236 q 25 155 21 182 q 38 107 30 128 q 57 66 45 86 q 86 33 69 47 q 125 9 102 19 q 175 -6 147 -1 q 203 -117 178 -84 q 289 -150 229 -150 z "},"R":{"ha":448,"x_min":30,"x_max":450,"o":"m 183 181 q 195 180 187 181 q 211 179 203 180 q 228 178 218 179 q 247 178 238 178 q 249 178 248 178 q 263 108 258 150 q 270 36 268 66 q 278 0 273 6 l 449 0 q 431 38 439 13 q 417 88 423 63 q 402 139 411 114 q 379 183 394 164 q 343 206 364 201 q 405 273 381 231 q 428 368 428 314 q 379 503 428 459 q 230 547 330 547 q 157 545 201 547 q 91 543 113 543 l 30 543 l 30 0 l 183 0 l 183 181 m 183 267 l 183 457 l 192 457 q 253 441 231 457 q 274 385 274 425 l 274 349 q 271 316 274 330 q 263 294 268 302 q 251 279 257 285 q 235 271 244 274 q 218 268 225 269 q 198 267 210 267 l 183 267 z "},"S":{"ha":386,"x_min":16,"x_max":369,"o":"m 193 -10 q 323 38 278 -10 q 369 178 369 86 q 337 274 369 234 q 238 342 305 313 q 218 353 231 346 q 198 364 206 359 q 183 375 191 369 q 171 389 175 381 q 167 407 167 397 q 226 444 167 444 q 278 434 251 444 q 323 402 305 423 l 346 491 q 342 497 345 494 q 326 511 338 501 q 299 529 314 521 q 258 542 284 536 q 202 549 232 549 q 16 383 16 549 q 25 326 16 353 q 46 283 34 300 q 78 250 58 266 q 108 228 97 235 q 137 213 120 221 q 201 175 182 191 q 220 137 220 159 q 203 108 220 116 q 150 100 187 100 q 81 119 113 100 q 30 163 49 138 l 19 51 q 41 32 27 42 q 75 13 54 23 q 126 -3 95 3 q 193 -10 157 -10 z "},"T":{"ha":392,"x_min":9,"x_max":382,"o":"m 117 0 l 274 0 l 274 420 l 382 420 l 382 543 l 9 543 l 9 420 l 117 420 l 117 0 z "},"U":{"ha":478,"x_min":31,"x_max":448,"o":"m 241 -10 q 326 0 289 -10 q 386 24 363 9 q 423 63 409 40 q 442 112 437 87 q 448 168 448 137 l 448 543 l 301 543 l 301 190 q 297 140 301 160 q 284 108 293 119 q 266 93 276 97 q 244 88 256 88 q 208 110 220 88 q 195 191 195 132 l 195 543 l 31 543 l 31 170 q 37 113 31 139 q 58 64 43 87 q 96 25 73 40 q 156 0 119 9 q 241 -10 193 -10 z "},"V":{"ha":395,"x_min":-31,"x_max":425,"o":"m 123 0 l 291 0 l 425 543 l 303 543 l 262 356 l 222 159 l 181 356 l 140 543 l -31 543 l 123 0 z "},"W":{"ha":616,"x_min":-21,"x_max":637,"o":"m 255 0 l 302 218 l 359 0 l 517 0 l 637 543 l 496 543 l 469 356 l 443 174 l 402 356 l 369 543 l 218 543 l 253 405 l 241 356 l 194 174 l 158 356 l 133 543 l -21 543 l 108 0 l 255 0 z "},"X":{"ha":420,"x_min":-31,"x_max":444,"o":"m 121 0 l 174 125 l 197 181 l 214 125 l 264 0 l 444 0 l 294 298 l 438 543 l 286 543 l 242 439 l 220 381 l 200 440 l 159 543 l -24 543 l 121 269 l -31 0 l 121 0 z "},"Y":{"ha":409,"x_min":-24,"x_max":432,"o":"m 130 0 l 296 0 l 296 172 l 432 543 l 294 543 l 258 403 l 231 288 l 200 403 l 152 543 l -24 543 l 130 169 l 130 0 z "},"Z":{"ha":406,"x_min":19,"x_max":395,"o":"m 19 0 l 395 0 l 395 117 l 183 106 l 215 143 l 389 463 l 389 543 l 35 543 l 35 425 l 218 435 l 181 391 l 19 96 l 19 0 z "},"[":{"ha":290,"x_min":46,"x_max":258,"o":"m 46 -131 l 258 -131 l 258 -46 l 177 -46 l 177 571 l 258 571 l 258 656 l 46 656 l 46 -131 z "},"\\":{"ha":328,"x_min":13,"x_max":316,"o":"m 193 0 l 316 0 l 135 597 l 13 597 l 193 0 z "},"]":{"ha":290,"x_min":32,"x_max":244,"o":"m 32 -131 l 244 -131 l 244 656 l 32 656 l 32 571 l 113 571 l 113 -46 l 32 -46 l 32 -131 z "},"^":{"ha":474,"x_min":9,"x_max":465,"o":"m 131 102 l 177 243 l 221 383 l 258 243 l 294 102 l 465 102 l 321 543 l 153 543 l 9 102 l 131 102 z "},"_":{"ha":444,"x_min":-5,"x_max":449,"o":"m -5 -123 l 448 -123 l 448 -60 l -5 -60 l -5 -123 z "},"`":{"ha":233,"x_min":23,"x_max":210,"o":"m 134 447 l 210 447 l 145 600 l 23 600 l 134 447 z "},"a":{"ha":388,"x_min":5,"x_max":378,"o":"m 236 41 l 251 0 l 378 0 l 365 36 l 365 225 q 357 309 365 275 q 330 363 349 342 q 281 394 312 385 q 205 403 251 403 q 102 387 153 403 q 20 351 52 372 l 50 288 q 99 304 68 298 q 158 311 130 311 q 207 300 192 311 q 222 260 222 288 l 222 251 q 189 250 206 251 q 150 244 172 249 q 109 234 128 240 q 69 217 89 228 q 36 192 50 206 q 13 158 22 178 q 5 114 5 138 q 130 -10 5 -10 q 166 -4 148 -10 q 196 8 183 1 q 217 23 208 16 q 231 36 227 31 l 236 41 m 200 72 q 160 130 160 72 q 177 178 160 162 q 222 193 194 193 l 222 82 q 219 79 222 82 q 211 74 216 77 q 200 72 206 72 z "},"b":{"ha":440,"x_min":2,"x_max":429,"o":"m 273 0 q 341 16 312 0 q 390 60 371 32 q 419 125 409 88 q 429 206 429 162 q 393 350 429 298 q 281 403 357 403 q 247 399 263 403 q 218 388 231 394 q 197 373 206 381 q 181 357 188 366 l 181 606 l 150 606 l 2 583 l 2 540 l 30 524 l 30 0 l 181 0 l 181 22 q 273 0 221 0 m 205 64 q 194 65 200 64 q 181 68 188 66 l 181 308 q 215 321 198 321 q 253 299 238 321 q 267 238 267 278 l 267 159 q 205 64 267 64 z "},"c":{"ha":360,"x_min":18,"x_max":350,"o":"m 346 38 l 323 101 q 283 83 307 89 q 235 78 258 78 q 218 79 225 78 q 200 86 211 80 q 183 103 189 92 q 171 135 176 113 q 166 188 166 157 q 182 289 166 260 q 240 318 198 318 q 250 317 247 318 l 277 246 l 343 246 l 350 355 q 340 365 350 355 q 215 403 295 403 q 137 389 173 403 q 75 347 101 374 q 33 281 48 321 q 18 191 18 240 q 67 45 18 100 q 211 -10 117 -10 q 263 -5 239 -10 q 302 7 288 0 q 327 22 317 14 q 342 33 338 29 l 346 38 z "},"d":{"ha":439,"x_min":14,"x_max":413,"o":"m 295 0 l 413 0 l 413 606 l 377 606 l 213 583 l 213 532 l 264 515 l 264 375 q 223 391 247 384 q 169 397 200 397 q 83 369 119 397 q 31 296 48 342 q 14 192 14 250 q 50 47 14 99 q 162 -6 86 -6 q 200 0 182 -6 q 230 13 218 6 q 253 30 242 20 q 268 47 263 40 q 277 60 273 53 l 295 0 m 230 85 q 191 107 206 85 q 175 173 175 130 l 175 238 q 238 333 176 332 q 264 330 250 333 l 264 97 q 247 88 256 91 q 230 85 238 85 z "},"e":{"ha":399,"x_min":14,"x_max":385,"o":"m 244 239 l 174 239 l 174 278 q 175 306 174 295 q 180 327 176 317 q 193 342 184 338 q 216 347 202 347 q 238 323 232 347 q 244 239 244 298 m 207 -10 q 265 -3 235 -10 q 329 22 296 3 q 379 69 362 41 l 352 115 q 320 94 339 103 q 282 81 300 86 q 247 77 263 77 q 219 80 230 77 q 196 91 207 83 q 179 117 185 100 q 173 162 173 135 l 173 171 l 385 171 l 385 222 q 345 360 385 317 q 215 403 306 403 q 67 350 120 403 q 14 193 14 296 q 25 114 14 149 q 57 50 35 78 q 117 6 79 22 q 207 -10 155 -10 z "},"f":{"ha":260,"x_min":2,"x_max":307,"o":"m 197 0 l 197 312 l 257 312 l 257 394 l 197 394 l 197 460 q 233 520 197 515 q 244 521 238 521 q 290 510 268 521 l 307 581 q 273 596 300 588 q 213 604 245 604 q 150 596 178 604 q 98 568 121 587 q 62 515 75 549 q 49 434 49 481 l 49 394 l 2 374 l 2 312 l 47 312 l 47 0 l 197 0 z "},"g":{"ha":435,"x_min":14,"x_max":435,"o":"m 214 -163 q 407 17 407 -163 l 407 326 l 435 346 l 435 389 l 348 394 l 277 394 l 269 372 q 169 397 227 397 q 101 381 131 397 q 53 337 71 365 q 24 272 34 309 q 14 192 14 236 q 50 47 14 99 q 162 -6 86 -6 q 258 35 219 -6 l 258 -4 q 256 -23 257 -14 q 250 -41 255 -31 q 238 -59 246 -52 q 217 -71 231 -66 q 185 -76 204 -76 q 141 -69 167 -76 q 103 -52 115 -61 l 74 -116 q 133 -147 88 -131 q 214 -163 178 -163 m 229 79 q 183 115 197 79 q 175 166 175 137 l 175 238 q 238 333 176 332 q 258 331 247 333 l 258 87 q 229 79 243 79 z "},"h":{"ha":433,"x_min":2,"x_max":412,"o":"m 180 0 l 180 270 q 184 274 180 270 q 190 279 189 278 q 195 282 191 280 q 201 286 199 285 q 207 289 203 287 q 214 291 211 291 q 221 292 218 292 q 258 248 260 292 l 258 0 l 411 0 l 411 235 q 412 244 411 238 q 412 252 412 249 q 385 368 412 333 q 296 403 359 403 q 259 396 278 403 q 227 378 240 388 q 203 358 213 369 q 186 341 192 348 l 181 334 l 181 606 l 150 606 l 2 583 l 2 540 l 30 524 l 30 0 l 180 0 z "},"i":{"ha":213,"x_min":8,"x_max":200,"o":"m 36 0 l 185 0 l 185 394 l 108 394 l 8 366 l 8 317 l 36 300 l 36 0 m 103 436 l 121 436 l 200 513 l 200 529 l 121 605 l 103 605 l 27 529 l 27 513 l 103 436 z "},"j":{"ha":226,"x_min":-31,"x_max":228,"o":"m 73 -159 q 174 -103 141 -159 q 207 54 207 -48 l 207 394 l 134 394 l 28 369 l 28 319 l 62 301 l 62 22 q 60 -21 62 -3 q 55 -48 58 -38 q 49 -64 53 -58 q 41 -72 44 -70 q 33 -73 38 -73 q -8 -60 13 -73 l -31 -110 q 73 -159 8 -159 m 131 436 l 149 436 l 228 513 l 228 529 l 149 605 l 131 605 l 55 529 l 55 513 l 131 436 z "},"k":{"ha":423,"x_min":2,"x_max":443,"o":"m 262 0 l 442 0 l 318 212 l 439 394 l 266 394 l 190 189 l 262 0 m 30 0 l 181 0 l 181 606 l 150 606 l 2 583 l 2 540 l 30 524 l 30 0 z "},"l":{"ha":207,"x_min":3,"x_max":182,"o":"m 31 0 l 182 0 l 182 606 l 152 606 l 3 583 l 3 540 l 31 524 l 31 0 z "},"m":{"ha":665,"x_min":8,"x_max":642,"o":"m 186 0 l 186 270 q 189 273 187 271 q 193 276 192 275 q 197 279 194 277 q 200 282 199 281 q 204 284 202 283 q 208 287 206 286 q 213 289 210 288 q 217 290 215 290 q 222 291 219 291 q 227 292 225 292 q 264 248 266 292 l 264 0 l 417 0 l 417 221 q 416 269 417 247 q 452 292 439 292 q 482 280 472 292 q 492 248 492 269 l 492 0 l 642 0 l 642 235 q 631 337 642 300 q 596 388 620 373 q 528 403 571 403 q 456 379 488 403 q 407 328 423 355 q 373 385 397 368 q 302 403 348 403 q 266 396 284 403 q 234 380 247 388 q 210 359 222 371 q 193 342 198 348 q 187 334 189 337 l 187 394 l 108 394 l 8 366 l 8 317 l 36 300 l 36 0 l 186 0 z "},"n":{"ha":439,"x_min":8,"x_max":418,"o":"m 186 0 l 186 270 q 189 273 187 271 q 193 276 192 275 q 197 279 194 277 q 200 282 199 281 q 204 284 202 283 q 208 287 206 286 q 213 289 210 288 q 217 290 215 290 q 222 291 219 291 q 227 292 225 292 q 264 248 266 292 l 264 0 l 417 0 l 417 235 q 418 244 417 238 q 418 252 418 249 q 391 368 418 333 q 302 403 365 403 q 265 396 284 403 q 233 378 246 388 q 209 358 219 369 q 192 341 198 348 l 187 334 l 187 394 l 108 394 l 8 366 l 8 317 l 36 300 l 36 0 l 186 0 z "},"o":{"ha":445,"x_min":14,"x_max":431,"o":"m 222 46 q 180 133 180 46 l 180 284 q 191 330 180 313 q 222 346 202 346 q 264 256 264 346 l 264 109 q 253 63 264 80 q 222 46 243 46 m 219 -10 q 379 41 328 -10 q 431 199 431 92 q 382 352 431 301 q 225 403 334 403 q 64 350 113 403 q 14 192 14 297 q 63 38 14 87 q 219 -10 113 -10 z "},"p":{"ha":447,"x_min":8,"x_max":429,"o":"m 273 0 q 341 16 312 0 q 390 60 371 32 q 419 125 409 88 q 429 206 429 162 q 393 350 429 298 q 281 403 357 403 q 225 391 249 403 q 185 363 202 380 l 185 394 l 108 394 l 8 366 l 8 317 l 36 300 l 36 -140 l 185 -140 l 185 19 q 224 6 202 11 q 273 0 246 0 m 205 64 q 196 65 200 64 q 185 67 191 65 l 185 311 q 217 320 201 320 q 253 300 239 320 q 267 238 267 280 l 267 159 q 205 64 267 64 z "},"q":{"ha":421,"x_min":14,"x_max":406,"o":"m 229 79 q 183 115 197 79 q 175 166 175 137 l 175 238 q 238 333 176 332 q 257 331 247 333 l 257 86 q 243 81 250 82 q 229 79 236 79 m 406 -140 l 406 394 l 300 394 l 279 365 q 269 372 275 368 q 248 382 263 376 q 213 393 234 389 q 169 397 193 397 q 83 369 119 397 q 31 296 48 342 q 14 192 14 250 q 50 47 14 99 q 162 -6 86 -6 q 257 34 218 -6 l 257 -140 l 406 -140 z "},"r":{"ha":305,"x_min":8,"x_max":305,"o":"m 186 0 l 186 212 q 246 237 199 237 q 289 228 279 237 l 305 393 q 281 397 292 397 q 159 283 178 397 l 145 394 l 108 394 l 8 369 l 8 317 l 36 300 l 36 0 l 186 0 z "},"s":{"ha":340,"x_min":13,"x_max":337,"o":"m 158 -10 q 337 133 337 -10 q 313 215 337 182 q 234 266 288 248 q 211 272 224 269 q 190 278 197 275 q 175 283 182 280 q 164 291 167 287 q 161 304 161 296 q 205 330 161 330 q 289 300 258 330 l 309 366 q 301 374 309 366 q 184 403 263 403 q 100 389 138 403 q 39 346 63 376 q 15 275 15 316 q 123 140 15 173 q 183 118 164 128 q 201 97 201 109 q 191 77 201 84 q 153 70 181 70 q 78 81 114 70 q 25 108 41 93 l 13 33 q 70 5 25 19 q 158 -10 114 -10 z "},"t":{"ha":264,"x_min":0,"x_max":260,"o":"m 144 -10 q 202 -3 176 -10 q 238 11 227 4 q 256 25 250 18 l 256 88 q 244 81 251 83 q 226 79 236 79 q 193 91 204 79 q 182 140 182 103 l 182 312 l 260 312 l 260 394 l 184 394 l 184 501 l 102 501 l 55 394 l 0 376 l 0 312 l 32 312 l 32 155 q 57 28 32 65 q 144 -10 82 -10 z "},"u":{"ha":433,"x_min":16,"x_max":406,"o":"m 263 62 l 277 0 l 405 0 l 405 394 l 229 394 l 229 340 l 254 324 l 254 106 q 250 103 252 105 q 246 100 247 101 q 243 97 245 99 q 239 95 240 96 q 235 93 238 94 q 231 91 233 92 q 227 90 230 91 q 223 89 225 89 q 218 89 220 89 q 191 99 198 89 q 184 130 183 109 l 184 394 l 16 394 l 16 340 l 32 324 l 32 159 q 60 29 32 68 q 153 -10 88 -10 q 194 -1 174 -10 q 229 21 215 8 q 251 44 243 34 q 263 62 260 55 z "},"v":{"ha":380,"x_min":-11,"x_max":390,"o":"m 125 0 l 271 0 l 389 394 l 264 394 l 230 251 l 206 129 l 185 251 l 156 394 l -11 394 l 125 0 z "},"w":{"ha":592,"x_min":-11,"x_max":602,"o":"m 249 0 l 298 162 l 343 0 l 484 0 l 602 394 l 503 394 l 441 143 l 394 394 l 233 394 l 255 315 l 213 143 l 157 394 l -10 394 l 108 0 l 249 0 z "},"x":{"ha":380,"x_min":-11,"x_max":390,"o":"m 123 0 l 168 110 l 214 0 l 390 0 l 280 206 l 383 394 l 257 394 l 209 289 l 168 394 l -10 394 l 97 193 l -3 0 l 123 0 z "},"y":{"ha":431,"x_min":15,"x_max":405,"o":"m 226 -159 q 361 -104 317 -159 q 404 54 404 -48 l 404 394 l 228 394 l 228 340 l 253 324 l 253 106 q 241 97 247 100 q 229 91 235 93 q 217 89 223 89 q 190 99 197 89 q 183 130 183 109 l 183 394 l 15 394 l 15 340 l 31 324 l 31 159 q 60 29 31 68 q 157 -10 88 -10 q 192 -2 175 -10 q 222 16 210 5 q 243 36 234 26 q 257 54 253 47 l 262 62 l 262 22 q 256 -25 262 -6 q 240 -54 250 -44 q 216 -69 229 -65 q 184 -73 202 -73 q 99 -58 125 -73 l 75 -108 q 136 -145 94 -131 q 226 -159 178 -159 z "},"z":{"ha":370,"x_min":7,"x_max":363,"o":"m 26 0 l 355 0 l 355 140 l 301 140 q 288 101 293 109 q 238 77 276 82 q 168 73 213 73 l 225 115 l 363 319 q 349 357 355 337 q 341 394 344 378 l 31 394 l 31 258 l 95 258 q 100 269 96 261 q 104 282 103 278 q 111 294 106 286 q 121 306 116 302 q 136 316 126 310 q 157 324 146 321 q 186 329 169 327 q 224 331 203 331 l 172 293 l 7 81 q 19 41 13 66 q 26 0 25 16 z "},"{":{"ha":310,"x_min":14,"x_max":291,"o":"m 248 -130 l 291 -130 l 291 -63 q 233 -39 251 -63 q 215 25 215 -15 l 215 143 q 206 188 215 167 q 184 223 197 209 q 154 246 171 236 q 125 261 138 256 q 100 268 111 266 q 125 274 111 269 q 155 289 138 279 q 184 313 171 299 q 206 347 197 326 q 215 394 215 369 l 215 502 q 267 587 215 574 q 291 590 278 590 l 291 656 l 248 656 q 167 634 203 656 q 110 573 130 612 q 89 489 89 535 l 89 369 q 87 350 89 359 q 80 330 85 340 q 66 314 75 320 q 44 308 57 308 l 14 308 l 14 227 l 44 227 q 66 221 57 227 q 80 206 75 215 q 87 186 85 196 q 89 167 89 176 l 89 38 q 110 -47 89 -8 q 167 -107 130 -85 q 248 -130 203 -130 z "},"|":{"ha":219,"x_min":51,"x_max":169,"o":"m 51 -168 l 168 -168 l 168 730 l 51 730 l 51 -168 z "},"}":{"ha":310,"x_min":19,"x_max":296,"o":"m 19 -130 l 63 -130 q 175 -81 130 -130 q 221 38 221 -32 l 221 167 q 239 218 221 200 q 266 227 250 227 l 296 227 l 296 308 l 266 308 q 231 328 242 308 q 221 369 221 347 l 221 489 q 209 554 221 524 q 176 608 197 585 q 125 643 155 630 q 63 656 96 656 l 19 656 l 19 590 q 77 566 59 590 q 95 502 95 542 l 95 394 q 101 354 95 373 q 118 323 107 336 q 140 300 128 310 q 166 283 152 289 q 190 273 180 276 q 210 268 201 269 q 186 261 199 266 q 156 246 172 256 q 126 223 139 236 q 104 188 113 209 q 95 143 95 167 l 95 25 q 77 -39 95 -15 q 19 -63 59 -63 l 19 -130 z "},"~":{"ha":493,"x_min":19,"x_max":475,"o":"m 113 138 l 113 152 q 132 193 113 182 q 148 196 139 196 q 203 182 166 196 q 281 153 240 168 q 345 138 321 138 q 442 173 410 138 q 475 284 475 208 l 475 316 l 381 316 l 381 303 q 341 258 381 258 q 303 267 326 258 q 259 287 280 276 q 207 307 238 298 q 148 316 177 316 q 101 308 123 316 q 60 284 79 300 q 30 239 41 268 q 19 170 19 209 l 19 138 l 113 138 z "}," ":{"ha":185,"x_min":0,"x_max":0,"o":""},"¡":{"ha":269,"x_min":38,"x_max":223,"o":"m 130 -27 q 199 -5 175 -27 q 223 62 223 18 q 216 106 223 85 q 178 230 189 180 q 165 340 166 280 l 94 340 q 82 230 94 280 q 44 106 71 180 q 38 64 38 87 q 60 -3 38 21 q 130 -27 82 -27 m 122 382 l 139 382 l 215 458 l 215 475 l 139 551 l 122 551 l 43 475 l 43 458 l 122 382 z "},"¢":{"ha":392,"x_min":18,"x_max":350,"o":"m 346 38 l 323 101 q 283 83 307 89 q 235 78 258 78 q 218 79 225 78 q 200 86 211 80 q 183 103 189 92 q 171 135 176 113 q 166 188 166 157 q 182 289 166 260 q 240 318 198 318 q 242 318 241 318 q 244 318 243 318 q 245 318 244 318 q 247 318 246 318 q 248 318 248 318 q 250 317 249 318 l 277 246 l 343 246 l 350 355 q 340 365 350 355 q 262 399 310 390 l 262 483 l 146 483 l 146 392 q 94 364 117 382 q 53 321 70 346 q 27 263 36 296 q 18 191 18 230 q 80 33 18 87 q 140 0 106 11 l 140 -87 l 256 -87 l 256 -6 q 343 35 313 4 q 346 38 346 38 z "},"£":{"ha":528,"x_min":1,"x_max":506,"o":"m 66 -7 q 104 17 80 5 q 156 29 129 29 q 232 15 173 29 q 312 0 291 0 q 357 4 333 0 q 408 17 381 7 q 456 41 435 27 q 491 80 477 56 q 506 135 506 105 l 506 199 l 367 199 l 367 186 q 363 138 368 158 q 349 108 359 119 q 327 93 339 98 q 298 88 314 88 q 276 91 295 88 q 240 94 257 93 q 197 92 222 95 q 156 80 173 89 q 186 99 173 88 q 208 119 199 110 q 222 141 216 128 q 231 164 228 155 q 236 188 234 173 q 237 211 237 203 q 238 235 238 219 q 238 241 238 239 l 329 241 l 329 334 l 239 334 l 240 407 q 261 435 240 426 q 318 444 281 444 q 369 434 342 444 q 414 402 396 423 l 438 491 q 433 497 436 494 q 417 511 430 501 q 390 529 405 521 q 349 542 375 536 q 294 549 323 549 q 136 508 193 549 q 79 383 79 467 l 79 334 l 19 334 l 19 241 l 75 241 q 76 230 75 234 q 77 226 76 226 q 77 225 77 225 q 78 213 78 225 q 27 80 78 119 q 1 68 11 69 l 61 -11 l 66 -7 m 1 68 z "},"¤":{"ha":664,"x_min":70,"x_max":613,"o":"m 342 34 q 432 54 390 34 l 487 -21 l 613 -21 l 511 121 q 548 239 548 174 q 537 306 548 274 q 506 364 526 338 l 608 506 l 482 506 l 425 428 q 342 445 386 445 q 297 441 319 445 q 255 426 275 436 l 196 506 l 70 506 l 175 360 q 164 342 169 351 q 154 324 159 333 q 147 304 150 314 q 141 283 144 294 q 138 262 139 273 q 137 239 137 250 q 175 119 137 173 l 75 -21 l 201 -21 l 255 53 q 342 34 296 34 m 415 159 q 401 142 415 159 q 342 125 387 125 q 270 159 298 125 q 242 239 242 192 q 270 320 242 287 q 342 354 298 354 q 415 320 387 354 q 443 239 443 286 q 415 159 443 193 z "},"¥":{"ha":482,"x_min":11,"x_max":467,"o":"m 458 155 l 458 271 l 367 271 l 466 543 l 328 543 l 292 403 l 266 288 l 234 403 l 186 543 l 11 543 l 123 271 l 34 271 l 34 155 l 164 155 l 164 0 l 331 0 l 331 155 l 458 155 z "},"¦":{"ha":219,"x_min":51,"x_max":169,"o":"m 51 -168 l 169 -168 l 168 237 l 51 237 l 51 -168 m 51 325 l 168 325 l 168 730 l 51 730 l 51 325 z "},"§":{"ha":487,"x_min":31,"x_max":443,"o":"m 239 -19 q 314 -9 280 -19 q 370 17 349 1 q 403 53 391 34 q 415 92 415 72 q 408 129 415 112 q 388 161 401 146 q 415 181 404 169 q 432 206 426 194 q 440 230 438 219 q 443 252 443 241 q 436 285 443 269 q 420 313 430 301 q 397 337 411 325 q 371 355 383 348 q 346 369 360 362 q 316 384 334 376 q 284 399 297 393 q 260 413 272 405 q 241 428 248 420 q 235 445 235 436 q 237 472 235 468 q 269 482 241 481 q 277 482 273 482 q 346 463 314 482 q 397 419 378 444 l 409 531 q 387 550 400 541 q 353 569 374 559 q 301 586 332 580 q 235 592 270 592 q 159 582 194 592 q 104 556 125 572 q 71 520 82 539 q 59 481 59 501 q 86 412 59 444 q 32 336 39 388 q 31 321 31 328 q 127 204 31 255 q 158 189 139 197 q 189 174 177 180 q 214 161 201 168 q 232 145 226 153 q 238 128 238 137 q 237 101 238 105 q 205 91 232 92 q 196 91 201 91 q 127 110 159 91 q 76 154 95 129 l 65 42 q 87 23 74 32 q 121 4 100 14 q 172 -13 142 -6 q 239 -19 203 -19 m 228 256 q 209 265 222 259 q 188 276 197 271 q 167 287 178 280 q 148 300 155 294 q 135 315 140 306 q 130 331 130 323 q 133 344 130 338 q 140 354 136 350 q 152 362 145 358 q 245 317 186 343 q 268 306 251 314 q 295 293 285 298 q 318 278 306 287 q 337 261 331 270 q 344 243 344 252 q 322 212 344 221 q 228 256 288 231 z "},"¨":{"ha":378,"x_min":23,"x_max":356,"o":"m 91 452 l 106 452 l 176 520 l 176 534 l 106 602 l 91 602 l 23 534 l 23 520 l 91 452 m 269 452 l 285 452 l 355 520 l 355 534 l 285 602 l 269 602 l 201 534 l 201 520 l 269 452 z "},"©":{"ha":486,"x_min":19,"x_max":467,"o":"m 335 248 l 323 291 q 298 280 313 284 q 269 277 283 277 q 223 381 223 277 q 228 450 223 426 q 243 482 233 474 q 270 490 252 490 q 272 490 271 490 q 275 490 274 490 q 277 489 275 489 q 279 488 278 489 l 293 456 l 333 456 l 338 519 q 335 522 337 519 q 326 528 333 524 q 311 537 319 533 q 288 544 302 541 q 256 547 273 547 q 157 506 186 547 q 128 383 128 464 q 134 317 128 345 q 155 266 141 288 q 194 232 169 244 q 254 220 219 220 q 301 227 281 220 q 328 241 321 234 l 335 248 m 234 159 q 160 170 191 159 q 111 199 129 181 q 81 247 92 218 q 67 308 70 277 q 63 382 63 340 q 71 477 63 438 q 99 547 79 516 q 157 593 119 578 q 251 608 194 608 q 325 597 294 608 q 375 567 356 586 q 404 518 394 548 q 419 457 415 488 q 423 383 423 425 q 418 305 423 338 q 400 244 413 272 q 367 197 388 215 q 313 169 346 179 q 234 159 280 159 m 234 114 q 307 121 275 114 q 363 138 339 127 q 405 167 388 150 q 435 206 423 185 q 454 256 447 228 q 464 315 461 285 q 467 383 467 345 q 465 447 467 419 q 456 505 463 476 q 440 555 450 533 q 414 595 430 576 q 375 626 397 614 q 321 645 352 638 q 251 652 290 652 q 154 640 195 652 q 87 606 113 627 q 46 549 61 584 q 24 475 30 514 q 19 382 19 435 q 23 294 19 331 q 41 220 28 256 q 78 163 55 185 q 141 128 102 141 q 234 114 180 114 z "},"ª":{"ha":349,"x_min":12,"x_max":332,"o":"m 213 269 l 226 231 l 331 231 l 320 264 l 320 433 q 314 509 320 480 q 293 558 308 538 q 252 586 278 578 q 185 594 226 594 q 93 580 138 594 q 19 548 47 566 l 45 491 q 88 505 61 499 q 143 511 116 511 q 186 501 173 511 q 200 465 200 490 l 200 457 q 170 457 184 457 q 137 454 157 456 q 101 447 117 451 q 68 434 85 443 q 39 414 50 426 q 20 385 27 403 q 13 346 13 368 q 41 256 13 289 q 117 223 69 223 q 149 227 133 223 q 176 239 165 232 q 196 252 187 245 q 208 264 204 259 l 213 269 m 180 296 q 144 348 144 296 q 159 391 144 377 q 200 405 174 405 l 200 305 q 197 303 199 305 q 190 298 194 300 q 180 296 185 296 z "},"«":{"ha":596,"x_min":37,"x_max":550,"o":"m 190 56 l 322 56 l 218 228 l 322 395 l 190 395 l 37 228 l 190 56 m 419 56 l 550 56 l 460 228 l 550 395 l 419 395 l 279 228 l 419 56 z "},"¬":{"ha":531,"x_min":51,"x_max":481,"o":"m 388 0 l 481 0 l 481 285 l 51 285 l 51 192 l 388 192 l 388 0 z "},"­":{"ha":351,"x_min":37,"x_max":314,"o":"m 37 215 l 314 215 l 314 331 l 37 331 l 37 215 z "},"®":{"ha":486,"x_min":19,"x_max":467,"o":"m 224 329 q 238 328 226 329 q 257 327 250 327 l 258 327 q 264 295 262 314 q 268 263 267 277 q 270 237 269 249 q 273 221 271 225 l 363 221 q 355 240 359 228 q 349 264 351 251 q 343 289 346 276 q 335 314 339 303 q 324 333 331 325 q 307 344 317 342 q 330 367 320 354 q 346 400 340 381 q 352 441 352 419 q 326 521 352 495 q 248 547 300 547 q 210 546 233 547 q 175 545 187 545 l 144 545 l 144 221 l 224 221 l 224 329 m 224 380 l 224 494 l 229 494 q 251 491 242 494 q 266 477 260 487 q 271 451 271 467 l 271 429 q 268 402 271 413 q 259 388 265 392 q 247 381 253 383 q 231 380 241 380 l 224 380 m 234 159 q 160 170 191 159 q 111 199 129 181 q 81 247 92 218 q 67 308 70 277 q 63 382 63 340 q 71 477 63 438 q 99 547 79 516 q 157 593 119 578 q 251 608 194 608 q 325 597 294 608 q 375 567 356 586 q 404 518 394 548 q 419 457 415 488 q 423 383 423 425 q 418 305 423 338 q 400 244 413 272 q 367 197 388 215 q 313 169 346 179 q 234 159 280 159 m 234 114 q 307 121 275 114 q 363 138 339 127 q 405 167 388 150 q 435 206 423 185 q 454 256 447 228 q 464 315 461 285 q 467 383 467 345 q 465 447 467 419 q 456 505 463 476 q 440 555 450 533 q 414 595 430 576 q 375 626 397 614 q 321 645 352 638 q 251 652 290 652 q 154 640 195 652 q 87 606 113 627 q 46 549 61 584 q 24 475 30 514 q 19 382 19 435 q 23 294 19 331 q 41 220 28 256 q 78 163 55 185 q 141 128 102 141 q 234 114 180 114 z "},"¯":{"ha":313,"x_min":19,"x_max":294,"o":"m 19 575 l 294 575 l 294 681 l 19 681 l 19 575 z "},"°":{"ha":361,"x_min":40,"x_max":320,"o":"m 136 591 q 145 601 136 591 q 180 611 153 611 q 224 591 207 611 q 242 541 242 570 q 224 492 242 513 q 180 472 207 472 q 136 492 153 472 q 119 541 119 513 q 136 591 119 570 m 181 401 q 279 443 238 401 q 320 542 320 484 q 279 641 320 600 q 181 682 238 682 q 81 641 122 682 q 40 542 40 600 q 81 443 40 484 q 181 401 122 401 z "},"±":{"ha":531,"x_min":51,"x_max":481,"o":"m 481 0 l 481 93 l 317 93 l 317 247 l 481 247 l 481 340 l 317 340 l 317 521 l 214 521 l 214 340 l 51 340 l 51 247 l 214 247 l 214 93 l 51 93 l 51 0 l 481 0 z "},"²":{"ha":367,"x_min":27,"x_max":347,"o":"m 347 454 l 347 543 l 125 529 q 164 562 140 545 q 211 591 188 578 q 257 618 233 603 q 299 648 281 633 q 328 684 317 663 q 339 728 339 704 q 327 781 339 759 q 291 816 314 804 q 242 833 269 828 q 182 839 215 839 q 27 786 68 839 l 33 709 l 100 709 l 118 776 q 159 781 135 781 q 197 763 183 781 q 210 725 210 745 q 185 669 210 697 q 99 597 159 640 q 27 501 27 548 q 29 457 27 461 l 31 454 l 347 454 z "},"³":{"ha":316,"x_min":19,"x_max":298,"o":"m 131 447 q 254 476 211 447 q 298 548 298 505 q 271 623 298 597 q 195 652 243 649 q 283 731 283 659 q 247 810 283 781 q 131 839 210 839 q 19 810 71 839 l 19 756 q 77 774 45 774 q 131 760 111 774 q 151 718 151 747 q 131 677 151 688 q 71 667 112 667 l 66 667 l 66 622 l 75 622 q 151 566 151 622 q 136 527 151 543 q 77 512 120 512 q 19 529 45 512 l 19 476 q 131 447 70 447 z "},"´":{"ha":233,"x_min":23,"x_max":210,"o":"m 23 447 l 99 447 l 210 600 l 88 600 l 23 447 z "},"µ":{"ha":566,"x_min":9,"x_max":544,"o":"m 105 -137 l 146 73 q 172 25 149 50 q 231 0 196 0 q 311 16 278 0 q 381 77 344 32 l 389 0 l 513 0 l 528 84 l 479 84 l 544 456 l 372 456 l 324 166 q 308 141 322 152 q 278 130 294 130 q 245 147 254 130 q 241 191 236 163 l 287 456 l 116 456 l 9 -137 l 105 -137 z "},"¶":{"ha":599,"x_min":31,"x_max":523,"o":"m 337 0 l 337 451 l 412 451 l 412 0 l 523 0 l 523 542 l 226 542 q 143 527 181 541 q 81 489 106 513 q 44 434 57 465 q 31 369 31 404 q 82 229 31 281 q 226 177 132 177 l 227 0 l 337 0 z "},"·":{"ha":189,"x_min":7,"x_max":181,"o":"m 83 102 l 101 102 l 180 178 l 180 194 l 101 270 l 83 270 l 7 194 l 7 178 l 83 102 z "},"¸":{"ha":272,"x_min":23,"x_max":249,"o":"m 102 -261 q 154 -255 129 -261 q 200 -237 179 -249 q 235 -202 222 -224 q 249 -150 249 -180 q 248 -130 249 -139 q 243 -112 247 -120 q 238 -97 240 -103 q 230 -85 236 -92 q 222 -75 224 -78 q 211 -67 220 -73 q 201 -60 202 -61 q 190 -53 200 -59 q 179 -47 180 -47 l 196 11 l 114 11 l 65 -79 l 81 -79 q 111 -90 97 -80 q 125 -117 125 -100 q 110 -149 125 -138 q 73 -160 96 -160 q 42 -155 57 -160 l 23 -239 q 102 -261 61 -261 z "},"¹":{"ha":243,"x_min":7,"x_max":199,"o":"m 74 454 l 198 454 l 198 833 l 116 833 q 102 808 111 819 q 83 791 93 798 q 60 780 74 785 q 35 773 46 775 q 7 769 23 771 l 7 700 l 74 706 l 74 454 z "},"º":{"ha":392,"x_min":21,"x_max":371,"o":"m 196 269 q 170 288 178 269 q 162 348 162 307 l 162 484 q 195 539 162 539 q 222 519 214 539 q 230 458 230 500 l 230 327 q 196 269 230 269 m 193 219 q 330 264 290 219 q 371 407 371 309 q 363 487 371 454 q 334 544 354 519 q 281 579 315 568 q 198 591 248 591 q 113 578 147 591 q 58 541 78 566 q 30 482 38 516 q 21 401 21 449 q 60 262 21 305 q 193 219 99 219 z "},"»":{"ha":596,"x_min":46,"x_max":559,"o":"m 275 56 l 406 56 l 559 228 l 406 395 l 275 395 l 378 228 l 275 56 m 46 56 l 178 56 l 317 228 l 178 395 l 46 395 l 136 228 l 46 56 z "},"¼":{"ha":862,"x_min":23,"x_max":839,"o":"m 214 0 l 318 0 l 545 597 l 441 597 l 214 0 m 90 315 l 214 315 l 214 694 l 132 694 q 118 669 127 680 q 99 652 109 659 q 76 641 90 646 q 51 634 63 637 q 23 630 39 632 l 23 561 l 90 568 l 90 315 m 663 80 l 554 80 l 663 223 l 663 80 m 663 -56 l 790 -56 l 790 16 l 839 16 l 839 80 l 790 80 l 790 324 l 679 324 l 463 80 l 471 16 l 663 16 l 663 -56 z "},"½":{"ha":826,"x_min":23,"x_max":803,"o":"m 803 -56 l 803 34 l 581 19 q 620 52 596 36 q 667 81 644 69 q 713 109 689 94 q 755 139 738 124 q 784 174 773 154 q 795 219 795 195 q 783 272 795 250 q 747 306 770 294 q 698 324 725 319 q 638 330 671 330 q 483 276 524 330 l 489 200 l 556 200 l 574 267 q 615 271 591 271 q 653 254 639 271 q 666 215 666 236 q 641 159 666 188 q 555 88 615 131 q 483 -8 483 38 q 485 -52 483 -48 l 487 -56 l 803 -56 m 214 0 l 318 0 l 545 597 l 441 597 l 214 0 m 90 315 l 214 315 l 214 694 l 132 694 q 118 669 127 680 q 99 652 109 659 q 76 641 90 646 q 51 634 63 637 q 23 630 39 632 l 23 561 l 90 568 l 90 315 z "},"¾":{"ha":905,"x_min":23,"x_max":882,"o":"m 706 80 l 597 80 l 706 223 l 706 80 m 706 -56 l 833 -56 l 833 16 l 882 16 l 882 80 l 833 80 l 833 324 l 722 324 l 506 80 l 514 16 l 706 16 l 706 -56 m 257 0 l 361 0 l 588 597 l 484 597 l 257 0 m 136 308 q 259 337 215 308 q 303 409 303 366 q 275 484 303 458 q 200 513 248 510 q 288 592 288 520 q 251 671 288 642 q 136 700 215 700 q 23 671 76 700 l 23 618 q 81 635 50 635 q 136 621 115 635 q 156 579 156 608 q 136 538 156 549 q 75 528 116 528 l 70 528 l 70 483 l 80 483 q 156 427 156 483 q 141 388 156 404 q 81 373 125 373 q 23 390 50 373 l 23 337 q 77 316 49 323 q 136 308 105 308 z "},"¿":{"ha":393,"x_min":42,"x_max":364,"o":"m 206 -92 q 364 -2 322 -92 l 301 36 q 281 8 296 19 q 249 -2 265 -2 q 213 10 226 -2 q 200 47 200 22 q 225 120 200 63 q 250 194 250 177 q 239 244 250 226 l 160 245 l 162 239 q 163 231 163 234 q 151 201 163 219 q 120 164 138 183 q 84 125 102 145 q 54 81 67 104 q 42 38 42 58 q 206 -92 42 -92 m 190 299 l 208 299 l 284 375 l 284 391 l 208 467 l 190 467 l 111 391 l 111 375 l 190 299 z "},"À":{"ha":454,"x_min":-9,"x_max":467,"o":"m 183 596 l 259 596 l 194 749 l 73 749 l 183 596 m 297 0 l 467 0 l 313 543 l 121 543 l 132 505 l -9 0 l 127 0 l 145 87 l 276 87 l 297 0 m 205 383 l 254 181 l 164 181 l 205 383 z "},"Á":{"ha":454,"x_min":-9,"x_max":467,"o":"m 177 596 l 253 596 l 363 749 l 242 749 l 177 596 m 297 0 l 467 0 l 313 543 l 121 543 l 132 505 l -9 0 l 127 0 l 145 87 l 276 87 l 297 0 m 205 383 l 254 181 l 164 181 l 205 383 z "},"Â":{"ha":454,"x_min":-9,"x_max":467,"o":"m 174 596 l 214 664 l 255 596 l 340 596 l 250 749 l 179 749 l 89 596 l 174 596 m 297 0 l 467 0 l 313 543 l 121 543 l 132 505 l -9 0 l 127 0 l 145 87 l 276 87 l 297 0 m 205 383 l 254 181 l 164 181 l 205 383 z "},"Ã":{"ha":454,"x_min":-9,"x_max":467,"o":"m 110 600 l 110 612 q 117 640 110 628 q 138 651 125 651 q 206 626 153 651 q 282 600 258 600 q 357 627 333 600 q 382 721 382 654 l 382 749 l 319 749 l 319 737 q 311 708 319 718 q 288 697 303 697 q 260 705 276 697 q 229 723 244 713 q 192 741 214 733 q 147 749 169 749 q 111 744 127 749 q 79 725 94 738 q 55 688 64 713 q 47 628 47 663 l 47 600 l 110 600 m 297 0 l 467 0 l 313 543 l 121 543 l 132 505 l -9 0 l 127 0 l 145 87 l 276 87 l 297 0 m 205 383 l 254 181 l 164 181 l 205 383 z "},"Ä":{"ha":454,"x_min":-9,"x_max":467,"o":"m 116 600 l 131 600 l 202 667 l 202 681 l 131 749 l 116 749 l 49 681 l 49 667 l 116 600 m 294 600 l 310 600 l 381 667 l 381 681 l 310 749 l 294 749 l 227 681 l 227 667 l 294 600 m 297 0 l 467 0 l 313 543 l 121 543 l 132 505 l -9 0 l 127 0 l 145 87 l 276 87 l 297 0 m 205 383 l 254 181 l 164 181 l 205 383 z "},"Å":{"ha":454,"x_min":-9,"x_max":467,"o":"m 214 654 q 177 670 193 654 q 162 707 162 685 q 177 744 162 728 q 214 761 193 761 q 251 744 236 761 q 267 707 267 728 q 252 670 267 686 q 214 654 237 654 m 143 636 q 158 621 143 636 q 214 606 173 606 q 285 636 256 606 q 315 707 315 665 q 286 778 315 749 q 214 808 256 808 q 143 778 173 808 q 113 707 113 749 q 143 636 113 665 m 297 0 l 467 0 l 313 543 l 121 543 l 132 505 l -9 0 l 127 0 l 145 87 l 276 87 l 297 0 m 205 383 l 254 181 l 164 181 l 205 383 z "},"Æ":{"ha":621,"x_min":-9,"x_max":610,"o":"m 281 0 l 610 0 l 610 116 l 435 111 l 435 234 l 560 225 l 560 333 l 435 333 l 435 438 l 594 433 l 603 543 l 198 543 l 209 505 l -9 0 l 127 0 l 162 87 l 281 87 l 281 0 m 281 383 l 281 181 l 200 181 l 281 383 z "},"Ç":{"ha":384,"x_min":18,"x_max":377,"o":"m 183 -247 q 243 -238 215 -247 q 291 -207 270 -230 q 311 -151 311 -184 q 309 -134 311 -142 q 307 -120 308 -126 q 303 -108 306 -114 q 297 -98 299 -102 q 291 -89 296 -94 q 284 -82 285 -84 q 275 -76 282 -81 q 267 -71 269 -71 q 258 -66 266 -70 q 250 -61 250 -61 l 272 11 l 190 11 l 142 -79 l 157 -79 q 187 -90 173 -80 q 201 -117 201 -100 q 187 -149 201 -138 q 149 -160 172 -160 q 119 -155 134 -160 l 114 -228 q 183 -247 146 -247 m 374 38 l 353 112 q 310 94 336 100 q 261 88 284 88 q 241 91 250 88 q 220 105 231 94 q 200 134 208 116 q 186 187 192 153 q 180 267 180 221 q 189 385 180 344 q 214 440 198 426 q 262 454 231 454 q 276 452 268 454 l 300 397 l 370 397 l 377 503 q 373 508 376 505 q 358 520 370 512 q 332 535 346 528 q 292 546 317 541 q 238 551 267 551 q 132 532 175 551 q 64 476 88 513 q 28 388 39 438 q 18 270 18 338 q 28 157 18 206 q 63 69 39 108 q 131 10 88 31 q 234 -10 174 -10 q 288 -5 263 -10 q 328 7 313 0 q 354 22 343 14 q 369 33 365 29 l 374 38 z "},"È":{"ha":370,"x_min":31,"x_max":359,"o":"m 164 596 l 240 596 l 175 749 l 53 749 l 164 596 m 359 0 l 359 116 l 184 111 l 184 234 l 309 225 l 309 333 l 184 333 l 184 438 l 343 433 l 352 543 l 31 543 l 31 0 l 359 0 z "},"É":{"ha":370,"x_min":31,"x_max":359,"o":"m 157 596 l 233 596 l 344 749 l 222 749 l 157 596 m 359 0 l 359 116 l 184 111 l 184 234 l 309 225 l 309 333 l 184 333 l 184 438 l 343 433 l 352 543 l 31 543 l 31 0 l 359 0 z "},"Ê":{"ha":370,"x_min":31,"x_max":359,"o":"m 154 596 l 195 664 l 236 596 l 320 596 l 231 749 l 159 749 l 69 596 l 154 596 m 359 0 l 359 116 l 184 111 l 184 234 l 309 225 l 309 333 l 184 333 l 184 438 l 343 433 l 352 543 l 31 543 l 31 0 l 359 0 z "},"Ë":{"ha":370,"x_min":29,"x_max":361,"o":"m 97 600 l 112 600 l 182 667 l 182 681 l 112 749 l 97 749 l 29 681 l 29 667 l 97 600 m 275 600 l 291 600 l 361 667 l 361 681 l 291 749 l 275 749 l 207 681 l 207 667 l 275 600 m 359 0 l 359 116 l 184 111 l 184 234 l 309 225 l 309 333 l 184 333 l 184 438 l 343 433 l 352 543 l 31 543 l 31 0 l 359 0 z "},"Ì":{"ha":222,"x_min":-31,"x_max":190,"o":"m 80 596 l 156 596 l 91 749 l -31 749 l 80 596 m 32 0 l 190 0 l 190 543 l 32 543 l 32 0 z "},"Í":{"ha":222,"x_min":32,"x_max":260,"o":"m 74 596 l 150 596 l 260 749 l 138 749 l 74 596 m 32 0 l 190 0 l 190 543 l 32 543 l 32 0 z "},"Î":{"ha":222,"x_min":-14,"x_max":237,"o":"m 70 596 l 111 664 l 152 596 l 237 596 l 147 749 l 75 749 l -14 596 l 70 596 m 32 0 l 190 0 l 190 543 l 32 543 l 32 0 z "},"Ï":{"ha":222,"x_min":-55,"x_max":277,"o":"m 13 600 l 28 600 l 99 667 l 99 681 l 28 749 l 13 749 l -55 681 l -55 667 l 13 600 m 191 600 l 207 600 l 277 667 l 277 681 l 207 749 l 191 749 l 124 681 l 124 667 l 191 600 m 32 0 l 190 0 l 190 543 l 32 543 l 32 0 z "},"Ð":{"ha":463,"x_min":-15,"x_max":450,"o":"m 184 76 l 184 229 l 250 229 l 250 333 l 184 333 l 184 463 l 219 463 q 269 423 251 463 q 287 310 287 383 l 287 263 q 268 119 287 163 q 214 76 249 76 l 184 76 m 228 -3 q 319 14 279 -3 q 383 60 359 32 q 423 128 407 88 q 444 206 438 167 q 450 288 450 244 q 399 481 450 414 q 230 547 348 547 q 172 545 209 547 q 105 543 136 543 l 31 543 l 31 333 l -14 333 l -14 229 l 31 229 l 31 0 l 105 0 q 177 -2 142 0 q 228 -3 212 -3 z "},"Ñ":{"ha":501,"x_min":8,"x_max":470,"o":"m 145 600 l 145 612 q 152 640 145 628 q 173 651 159 651 q 240 626 188 651 q 317 600 293 600 q 392 627 368 600 q 417 721 417 654 l 417 749 l 353 749 l 353 737 q 346 708 353 718 q 323 697 338 697 q 294 705 311 697 q 263 723 278 713 q 226 741 249 733 q 182 749 204 749 q 145 744 162 749 q 114 725 129 738 q 90 688 99 713 q 81 628 81 663 l 81 600 l 145 600 m 178 0 l 178 171 l 151 349 l 219 214 l 329 0 l 470 0 l 470 543 l 323 543 l 323 397 l 345 191 l 264 367 l 179 543 l 8 543 l 31 499 l 31 0 l 178 0 z "},"Ò":{"ha":485,"x_min":18,"x_max":467,"o":"m 211 596 l 287 596 l 222 749 l 100 749 l 211 596 m 188 210 l 188 326 q 200 441 188 410 q 241 473 212 473 q 284 441 271 473 q 297 342 297 408 l 297 231 q 291 128 297 163 q 274 84 285 94 q 241 73 263 73 q 200 103 212 73 q 188 210 188 133 m 231 -10 q 329 3 288 -10 q 397 38 371 16 q 439 97 424 61 q 461 174 455 132 q 467 270 467 215 q 465 338 467 308 q 456 397 463 367 q 441 450 450 427 q 414 492 431 472 q 375 525 398 512 q 322 544 353 537 q 252 551 291 551 q 154 538 196 551 q 87 503 113 525 q 45 444 61 480 q 23 366 29 407 q 18 269 18 325 q 20 202 18 232 q 28 142 22 172 q 44 90 34 113 q 71 49 54 68 q 109 17 87 29 q 162 -3 131 4 q 231 -10 193 -10 z "},"Ó":{"ha":485,"x_min":18,"x_max":467,"o":"m 205 596 l 281 596 l 391 749 l 269 749 l 205 596 m 188 210 l 188 326 q 200 441 188 410 q 241 473 212 473 q 284 441 271 473 q 297 342 297 408 l 297 231 q 291 128 297 163 q 274 84 285 94 q 241 73 263 73 q 200 103 212 73 q 188 210 188 133 m 231 -10 q 329 3 288 -10 q 397 38 371 16 q 439 97 424 61 q 461 174 455 132 q 467 270 467 215 q 465 338 467 308 q 456 397 463 367 q 441 450 450 427 q 414 492 431 472 q 375 525 398 512 q 322 544 353 537 q 252 551 291 551 q 154 538 196 551 q 87 503 113 525 q 45 444 61 480 q 23 366 29 407 q 18 269 18 325 q 20 202 18 232 q 28 142 22 172 q 44 90 34 113 q 71 49 54 68 q 109 17 87 29 q 162 -3 131 4 q 231 -10 193 -10 z "},"Ô":{"ha":485,"x_min":18,"x_max":467,"o":"m 201 596 l 242 664 l 283 596 l 368 596 l 278 749 l 206 749 l 117 596 l 201 596 m 188 210 l 188 326 q 200 441 188 410 q 241 473 212 473 q 284 441 271 473 q 297 342 297 408 l 297 231 q 291 128 297 163 q 274 84 285 94 q 241 73 263 73 q 200 103 212 73 q 188 210 188 133 m 231 -10 q 329 3 288 -10 q 397 38 371 16 q 439 97 424 61 q 461 174 455 132 q 467 270 467 215 q 465 338 467 308 q 456 397 463 367 q 441 450 450 427 q 414 492 431 472 q 375 525 398 512 q 322 544 353 537 q 252 551 291 551 q 154 538 196 551 q 87 503 113 525 q 45 444 61 480 q 23 366 29 407 q 18 269 18 325 q 20 202 18 232 q 28 142 22 172 q 44 90 34 113 q 71 49 54 68 q 109 17 87 29 q 162 -3 131 4 q 231 -10 193 -10 z "},"Õ":{"ha":485,"x_min":18,"x_max":467,"o":"m 138 600 l 138 612 q 145 640 138 628 q 166 651 152 651 q 233 626 181 651 q 310 600 286 600 q 385 627 361 600 q 410 721 410 654 l 410 749 l 346 749 l 346 737 q 339 708 346 718 q 316 697 331 697 q 288 705 304 697 q 256 723 271 713 q 219 741 242 733 q 175 749 197 749 q 138 744 155 749 q 107 725 122 738 q 83 688 92 713 q 75 628 75 663 l 75 600 l 138 600 m 188 210 l 188 326 q 200 441 188 410 q 241 473 212 473 q 284 441 271 473 q 297 342 297 408 l 297 231 q 291 128 297 163 q 274 84 285 94 q 241 73 263 73 q 200 103 212 73 q 188 210 188 133 m 231 -10 q 329 3 288 -10 q 397 38 371 16 q 439 97 424 61 q 461 174 455 132 q 467 270 467 215 q 465 338 467 308 q 456 397 463 367 q 441 450 450 427 q 414 492 431 472 q 375 525 398 512 q 322 544 353 537 q 252 551 291 551 q 154 538 196 551 q 87 503 113 525 q 45 444 61 480 q 23 366 29 407 q 18 269 18 325 q 20 202 18 232 q 28 142 22 172 q 44 90 34 113 q 71 49 54 68 q 109 17 87 29 q 162 -3 131 4 q 231 -10 193 -10 z "},"Ö":{"ha":485,"x_min":18,"x_max":467,"o":"m 144 600 l 159 600 l 230 667 l 230 681 l 159 749 l 144 749 l 76 681 l 76 667 l 144 600 m 322 600 l 338 600 l 408 667 l 408 681 l 338 749 l 322 749 l 255 681 l 255 667 l 322 600 m 188 210 l 188 326 q 200 441 188 410 q 241 473 212 473 q 284 441 271 473 q 297 342 297 408 l 297 231 q 291 128 297 163 q 274 84 285 94 q 241 73 263 73 q 200 103 212 73 q 188 210 188 133 m 231 -10 q 329 3 288 -10 q 397 38 371 16 q 439 97 424 61 q 461 174 455 132 q 467 270 467 215 q 465 338 467 308 q 456 397 463 367 q 441 450 450 427 q 414 492 431 472 q 375 525 398 512 q 322 544 353 537 q 252 551 291 551 q 154 538 196 551 q 87 503 113 525 q 45 444 61 480 q 23 366 29 407 q 18 269 18 325 q 20 202 18 232 q 28 142 22 172 q 44 90 34 113 q 71 49 54 68 q 109 17 87 29 q 162 -3 131 4 q 231 -10 193 -10 z "},"×":{"ha":521,"x_min":69,"x_max":456,"o":"m 385 41 l 456 113 l 333 235 l 456 357 l 385 429 l 262 306 l 140 429 l 69 357 l 191 235 l 69 113 l 140 41 l 262 164 l 385 41 z "},"Ø":{"ha":485,"x_min":18,"x_max":468,"o":"m 241 73 q 200 103 212 73 q 188 210 188 133 l 188 326 q 209 458 188 431 q 241 473 220 473 q 284 441 271 473 q 297 342 297 408 l 297 231 q 280 91 297 119 q 241 73 268 73 m 217 -57 l 244 -10 q 337 5 298 -8 q 401 41 376 19 q 441 99 426 64 q 461 175 456 135 q 467 270 467 216 q 466 327 467 301 q 460 379 464 353 q 450 426 456 405 q 432 466 443 447 q 407 500 422 485 q 374 525 393 515 l 410 591 l 288 591 l 264 551 q 252 551 258 551 q 61 473 114 551 q 18 277 19 411 q 18 269 18 273 q 20 196 18 228 q 30 133 23 164 q 50 78 38 101 q 82 37 62 56 q 130 7 102 18 l 94 -57 l 217 -57 z "},"Ù":{"ha":478,"x_min":31,"x_max":448,"o":"m 208 596 l 284 596 l 219 749 l 97 749 l 208 596 m 241 -10 q 326 0 289 -10 q 386 24 363 9 q 423 63 409 40 q 442 112 437 87 q 448 168 448 137 l 448 543 l 301 543 l 301 190 q 297 140 301 160 q 284 108 293 119 q 266 93 276 97 q 244 88 256 88 q 208 110 220 88 q 195 191 195 132 l 195 543 l 31 543 l 31 170 q 37 113 31 139 q 58 64 43 87 q 96 25 73 40 q 156 0 119 9 q 241 -10 193 -10 z "},"Ú":{"ha":478,"x_min":31,"x_max":448,"o":"m 201 596 l 277 596 l 388 749 l 266 749 l 201 596 m 241 -10 q 326 0 289 -10 q 386 24 363 9 q 423 63 409 40 q 442 112 437 87 q 448 168 448 137 l 448 543 l 301 543 l 301 190 q 297 140 301 160 q 284 108 293 119 q 266 93 276 97 q 244 88 256 88 q 208 110 220 88 q 195 191 195 132 l 195 543 l 31 543 l 31 170 q 37 113 31 139 q 58 64 43 87 q 96 25 73 40 q 156 0 119 9 q 241 -10 193 -10 z "},"Û":{"ha":478,"x_min":31,"x_max":448,"o":"m 198 596 l 239 664 l 280 596 l 364 596 l 275 749 l 203 749 l 113 596 l 198 596 m 241 -10 q 326 0 289 -10 q 386 24 363 9 q 423 63 409 40 q 442 112 437 87 q 448 168 448 137 l 448 543 l 301 543 l 301 190 q 297 140 301 160 q 284 108 293 119 q 266 93 276 97 q 244 88 256 88 q 208 110 220 88 q 195 191 195 132 l 195 543 l 31 543 l 31 170 q 37 113 31 139 q 58 64 43 87 q 96 25 73 40 q 156 0 119 9 q 241 -10 193 -10 z "},"Ü":{"ha":478,"x_min":31,"x_max":448,"o":"m 141 600 l 156 600 l 226 667 l 226 681 l 156 749 l 141 749 l 73 681 l 73 667 l 141 600 m 319 600 l 335 600 l 405 667 l 405 681 l 335 749 l 319 749 l 251 681 l 251 667 l 319 600 m 241 -10 q 326 0 289 -10 q 386 24 363 9 q 423 63 409 40 q 442 112 437 87 q 448 168 448 137 l 448 543 l 301 543 l 301 190 q 297 140 301 160 q 284 108 293 119 q 266 93 276 97 q 244 88 256 88 q 208 110 220 88 q 195 191 195 132 l 195 543 l 31 543 l 31 170 q 37 113 31 139 q 58 64 43 87 q 96 25 73 40 q 156 0 119 9 q 241 -10 193 -10 z "},"Ý":{"ha":409,"x_min":-24,"x_max":432,"o":"m 183 596 l 259 596 l 369 749 l 248 749 l 183 596 m 130 0 l 296 0 l 296 172 l 432 543 l 294 543 l 258 403 l 231 288 l 200 403 l 152 543 l -24 543 l 130 169 l 130 0 z "},"Þ":{"ha":434,"x_min":31,"x_max":430,"o":"m 184 0 l 184 55 q 189 54 185 55 q 195 54 193 54 q 201 53 197 54 q 208 53 206 53 q 216 53 211 53 q 224 52 220 52 q 231 52 227 52 q 240 52 236 52 q 248 52 244 52 q 317 68 284 52 q 375 114 349 84 q 415 191 400 144 q 430 296 430 238 q 384 439 430 391 q 248 487 338 487 q 178 485 220 487 l 178 542 l 31 542 l 31 0 l 184 0 m 278 316 l 278 248 q 258 177 278 201 q 201 152 238 152 l 184 152 l 184 393 l 206 393 q 260 372 241 393 q 278 316 278 350 z "},"ß":{"ha":494,"x_min":8,"x_max":466,"o":"m 187 0 l 187 270 q 215 504 187 451 q 254 531 231 530 q 288 512 277 531 q 300 470 300 493 l 300 442 q 288 378 300 398 q 258 359 277 359 l 244 359 l 244 275 l 263 275 q 298 258 283 275 q 312 220 312 242 l 312 179 q 309 137 312 155 q 298 106 306 119 q 277 85 291 92 q 244 78 263 78 l 244 0 q 340 11 299 0 q 404 39 381 22 q 442 81 428 56 q 461 132 456 107 q 466 188 466 156 q 431 289 466 243 q 352 335 397 335 q 386 356 371 345 q 416 383 401 367 q 439 421 431 399 q 447 469 447 443 q 411 569 447 534 q 289 604 376 604 q 207 597 243 604 q 139 573 170 590 q 86 530 107 556 q 53 462 65 503 q 41 367 42 421 l 41 78 l 8 0 l 187 0 z "},"à":{"ha":388,"x_min":5,"x_max":378,"o":"m 160 447 l 236 447 l 171 600 l 50 600 l 160 447 m 236 41 l 251 0 l 378 0 l 365 36 l 365 225 q 357 309 365 275 q 330 363 349 342 q 281 394 312 385 q 205 403 251 403 q 102 387 153 403 q 20 351 52 372 l 50 288 q 99 304 68 298 q 158 311 130 311 q 207 300 192 311 q 222 260 222 288 l 222 251 q 189 250 206 251 q 150 244 172 249 q 109 234 128 240 q 69 217 89 228 q 36 192 50 206 q 13 158 22 178 q 5 114 5 138 q 130 -10 5 -10 q 166 -4 148 -10 q 196 8 183 1 q 217 23 208 16 q 231 36 227 31 l 236 41 m 200 72 q 160 130 160 72 q 177 178 160 162 q 222 193 194 193 l 222 82 q 219 79 222 82 q 211 74 216 77 q 200 72 206 72 z "},"á":{"ha":388,"x_min":5,"x_max":378,"o":"m 153 447 l 229 447 l 339 600 l 218 600 l 153 447 m 236 41 l 251 0 l 378 0 l 365 36 l 365 225 q 357 309 365 275 q 330 363 349 342 q 281 394 312 385 q 205 403 251 403 q 102 387 153 403 q 20 351 52 372 l 50 288 q 99 304 68 298 q 158 311 130 311 q 207 300 192 311 q 222 260 222 288 l 222 251 q 189 250 206 251 q 150 244 172 249 q 109 234 128 240 q 69 217 89 228 q 36 192 50 206 q 13 158 22 178 q 5 114 5 138 q 130 -10 5 -10 q 166 -4 148 -10 q 196 8 183 1 q 217 23 208 16 q 231 36 227 31 l 236 41 m 200 72 q 160 130 160 72 q 177 178 160 162 q 222 193 194 193 l 222 82 q 219 79 222 82 q 211 74 216 77 q 200 72 206 72 z "},"â":{"ha":388,"x_min":5,"x_max":378,"o":"m 150 447 l 191 515 l 232 447 l 317 447 l 227 600 l 156 600 l 66 447 l 150 447 m 236 41 l 251 0 l 378 0 l 365 36 l 365 225 q 357 309 365 275 q 330 363 349 342 q 281 394 312 385 q 205 403 251 403 q 102 387 153 403 q 20 351 52 372 l 50 288 q 99 304 68 298 q 158 311 130 311 q 207 300 192 311 q 222 260 222 288 l 222 251 q 189 250 206 251 q 150 244 172 249 q 109 234 128 240 q 69 217 89 228 q 36 192 50 206 q 13 158 22 178 q 5 114 5 138 q 130 -10 5 -10 q 166 -4 148 -10 q 196 8 183 1 q 217 23 208 16 q 231 36 227 31 l 236 41 m 200 72 q 160 130 160 72 q 177 178 160 162 q 222 193 194 193 l 222 82 q 219 79 222 82 q 211 74 216 77 q 200 72 206 72 z "},"ã":{"ha":388,"x_min":5,"x_max":378,"o":"m 87 452 l 87 465 q 94 493 87 481 q 115 504 101 504 q 182 478 130 504 q 259 453 235 453 q 334 480 310 453 q 359 574 359 507 l 359 602 l 295 602 l 295 590 q 265 550 295 550 q 237 558 253 550 q 206 576 220 566 q 169 594 191 586 q 124 602 146 602 q 88 596 104 602 q 56 578 71 591 q 32 541 41 565 q 24 481 24 516 l 24 452 l 87 452 m 236 41 l 251 0 l 378 0 l 365 36 l 365 225 q 357 309 365 275 q 330 363 349 342 q 281 394 312 385 q 205 403 251 403 q 102 387 153 403 q 20 351 52 372 l 50 288 q 99 304 68 298 q 158 311 130 311 q 207 300 192 311 q 222 260 222 288 l 222 251 q 189 250 206 251 q 150 244 172 249 q 109 234 128 240 q 69 217 89 228 q 36 192 50 206 q 13 158 22 178 q 5 114 5 138 q 130 -10 5 -10 q 166 -4 148 -10 q 196 8 183 1 q 217 23 208 16 q 231 36 227 31 l 236 41 m 200 72 q 160 130 160 72 q 177 178 160 162 q 222 193 194 193 l 222 82 q 219 79 222 82 q 211 74 216 77 q 200 72 206 72 z "},"ä":{"ha":388,"x_min":5,"x_max":378,"o":"m 93 452 l 108 452 l 179 520 l 179 534 l 108 602 l 93 602 l 25 534 l 25 520 l 93 452 m 271 452 l 287 452 l 357 520 l 357 534 l 287 602 l 271 602 l 204 534 l 204 520 l 271 452 m 236 41 l 251 0 l 378 0 l 365 36 l 365 225 q 357 309 365 275 q 330 363 349 342 q 281 394 312 385 q 205 403 251 403 q 102 387 153 403 q 20 351 52 372 l 50 288 q 99 304 68 298 q 158 311 130 311 q 207 300 192 311 q 222 260 222 288 l 222 251 q 189 250 206 251 q 150 244 172 249 q 109 234 128 240 q 69 217 89 228 q 36 192 50 206 q 13 158 22 178 q 5 114 5 138 q 130 -10 5 -10 q 166 -4 148 -10 q 196 8 183 1 q 217 23 208 16 q 231 36 227 31 l 236 41 m 200 72 q 160 130 160 72 q 177 178 160 162 q 222 193 194 193 l 222 82 q 219 79 222 82 q 211 74 216 77 q 200 72 206 72 z "},"å":{"ha":388,"x_min":5,"x_max":378,"o":"m 191 504 q 154 520 169 504 q 138 557 138 535 q 154 594 138 578 q 191 611 169 611 q 228 594 213 611 q 244 557 244 578 q 229 520 244 536 q 191 504 213 504 m 120 486 q 135 471 120 486 q 191 456 150 456 q 262 486 232 456 q 292 557 292 515 q 263 628 292 599 q 191 658 233 658 q 120 628 150 658 q 90 557 90 599 q 120 486 90 515 m 236 41 l 251 0 l 378 0 l 365 36 l 365 225 q 357 309 365 275 q 330 363 349 342 q 281 394 312 385 q 205 403 251 403 q 102 387 153 403 q 20 351 52 372 l 50 288 q 99 304 68 298 q 158 311 130 311 q 207 300 192 311 q 222 260 222 288 l 222 251 q 189 250 206 251 q 150 244 172 249 q 109 234 128 240 q 69 217 89 228 q 36 192 50 206 q 13 158 22 178 q 5 114 5 138 q 130 -10 5 -10 q 166 -4 148 -10 q 196 8 183 1 q 217 23 208 16 q 231 36 227 31 l 236 41 m 200 72 q 160 130 160 72 q 177 178 160 162 q 222 193 194 193 l 222 82 q 219 79 222 82 q 211 74 216 77 q 200 72 206 72 z "},"æ":{"ha":609,"x_min":5,"x_max":595,"o":"m 200 72 q 160 130 160 72 q 177 178 160 162 q 222 193 194 193 l 222 82 q 219 79 221 82 q 211 74 216 77 q 200 72 206 72 m 454 239 l 383 239 q 383 259 383 246 q 383 278 383 272 q 391 330 383 313 q 426 347 400 347 q 448 323 442 347 q 454 239 454 298 m 417 -10 q 475 -3 445 -10 q 539 22 506 3 q 589 69 572 41 l 562 115 q 530 94 549 103 q 492 81 511 86 q 457 77 473 77 q 429 80 441 77 q 406 91 417 83 q 389 117 394 100 q 383 162 383 135 l 383 171 l 595 171 l 595 222 q 556 360 595 317 q 425 403 516 403 q 314 378 359 403 q 205 403 279 403 q 102 387 153 403 q 20 351 52 372 l 50 288 q 99 304 68 298 q 158 311 130 311 q 207 300 192 311 q 222 260 222 288 l 222 251 q 189 250 206 251 q 150 244 172 249 q 109 234 128 240 q 69 217 89 228 q 36 192 50 206 q 13 158 22 178 q 5 114 5 138 q 130 -10 5 -10 q 206 15 171 -10 q 255 66 240 40 q 417 -10 303 -10 z "},"ç":{"ha":360,"x_min":18,"x_max":350,"o":"m 143 -247 q 203 -238 175 -247 q 251 -207 231 -230 q 271 -151 271 -184 q 270 -134 271 -142 q 267 -120 269 -126 q 263 -108 266 -114 q 258 -98 259 -102 q 251 -89 256 -94 q 244 -82 245 -84 q 235 -76 242 -81 q 227 -71 229 -71 q 218 -66 226 -70 q 210 -61 211 -61 l 232 11 l 150 11 l 102 -79 l 117 -79 q 147 -90 133 -80 q 162 -117 162 -100 q 147 -149 162 -138 q 109 -160 132 -160 q 79 -155 94 -160 l 74 -228 q 143 -247 106 -247 m 346 38 l 323 101 q 283 83 307 89 q 235 78 258 78 q 218 79 225 78 q 200 86 211 80 q 183 103 189 92 q 171 135 176 113 q 166 188 166 157 q 182 289 166 260 q 240 318 198 318 q 250 317 247 318 l 277 246 l 343 246 l 350 355 q 340 365 350 355 q 215 403 295 403 q 137 389 173 403 q 75 347 101 374 q 33 281 48 321 q 18 191 18 240 q 67 45 18 100 q 211 -10 117 -10 q 263 -5 239 -10 q 302 7 288 0 q 327 22 317 14 q 342 33 338 29 l 346 38 z "},"è":{"ha":399,"x_min":14,"x_max":385,"o":"m 169 447 l 244 447 l 180 600 l 58 600 l 169 447 m 244 239 l 174 239 l 174 278 q 175 306 174 295 q 180 327 176 317 q 193 342 184 338 q 216 347 202 347 q 238 323 232 347 q 244 239 244 298 m 207 -10 q 265 -3 235 -10 q 329 22 296 3 q 379 69 362 41 l 352 115 q 320 94 339 103 q 282 81 300 86 q 247 77 263 77 q 219 80 230 77 q 196 91 207 83 q 179 117 185 100 q 173 162 173 135 l 173 171 l 385 171 l 385 222 q 345 360 385 317 q 215 403 306 403 q 67 350 120 403 q 14 193 14 296 q 25 114 14 149 q 57 50 35 78 q 117 6 79 22 q 207 -10 155 -10 z "},"é":{"ha":399,"x_min":14,"x_max":385,"o":"m 161 447 l 237 447 l 348 600 l 226 600 l 161 447 m 244 239 l 174 239 l 174 278 q 175 306 174 295 q 180 327 176 317 q 193 342 184 338 q 216 347 202 347 q 238 323 232 347 q 244 239 244 298 m 207 -10 q 265 -3 235 -10 q 329 22 296 3 q 379 69 362 41 l 352 115 q 320 94 339 103 q 282 81 300 86 q 247 77 263 77 q 219 80 230 77 q 196 91 207 83 q 179 117 185 100 q 173 162 173 135 l 173 171 l 385 171 l 385 222 q 345 360 385 317 q 215 403 306 403 q 67 350 120 403 q 14 193 14 296 q 25 114 14 149 q 57 50 35 78 q 117 6 79 22 q 207 -10 155 -10 z "},"ê":{"ha":399,"x_min":14,"x_max":385,"o":"m 159 447 l 200 515 l 240 447 l 325 447 l 235 600 l 164 600 l 74 447 l 159 447 m 244 239 l 174 239 l 174 278 q 175 306 174 295 q 180 327 176 317 q 193 342 184 338 q 216 347 202 347 q 238 323 232 347 q 244 239 244 298 m 207 -10 q 265 -3 235 -10 q 329 22 296 3 q 379 69 362 41 l 352 115 q 320 94 339 103 q 282 81 300 86 q 247 77 263 77 q 219 80 230 77 q 196 91 207 83 q 179 117 185 100 q 173 162 173 135 l 173 171 l 385 171 l 385 222 q 345 360 385 317 q 215 403 306 403 q 67 350 120 403 q 14 193 14 296 q 25 114 14 149 q 57 50 35 78 q 117 6 79 22 q 207 -10 155 -10 z "},"ë":{"ha":399,"x_min":14,"x_max":385,"o":"m 101 452 l 117 452 l 187 520 l 187 534 l 117 602 l 101 602 l 34 534 l 34 520 l 101 452 m 280 452 l 295 452 l 366 520 l 366 534 l 295 602 l 280 602 l 212 534 l 212 520 l 280 452 m 244 239 l 174 239 l 174 278 q 175 306 174 295 q 180 327 176 317 q 193 342 184 338 q 216 347 202 347 q 238 323 232 347 q 244 239 244 298 m 207 -10 q 265 -3 235 -10 q 329 22 296 3 q 379 69 362 41 l 352 115 q 320 94 339 103 q 282 81 300 86 q 247 77 263 77 q 219 80 230 77 q 196 91 207 83 q 179 117 185 100 q 173 162 173 135 l 173 171 l 385 171 l 385 222 q 345 360 385 317 q 215 403 306 403 q 67 350 120 403 q 14 193 14 296 q 25 114 14 149 q 57 50 35 78 q 117 6 79 22 q 207 -10 155 -10 z "},"ì":{"ha":213,"x_min":-20,"x_max":185,"o":"m 91 447 l 167 447 l 102 600 l -20 600 l 91 447 m 36 0 l 185 0 l 185 394 l 108 394 l 8 366 l 8 317 l 36 300 l 36 0 z "},"í":{"ha":213,"x_min":8,"x_max":270,"o":"m 83 447 l 159 447 l 270 600 l 148 600 l 83 447 m 36 0 l 185 0 l 185 394 l 108 394 l 8 366 l 8 317 l 36 300 l 36 0 z "},"î":{"ha":213,"x_min":-4,"x_max":247,"o":"m 81 447 l 122 515 l 163 447 l 247 447 l 157 600 l 86 600 l -4 447 l 81 447 m 36 0 l 185 0 l 185 394 l 108 394 l 8 366 l 8 317 l 36 300 l 36 0 z "},"ï":{"ha":213,"x_min":-44,"x_max":288,"o":"m 24 452 l 39 452 l 109 520 l 109 534 l 39 602 l 24 602 l -44 534 l -44 520 l 24 452 m 202 452 l 218 452 l 288 520 l 288 534 l 218 602 l 202 602 l 134 534 l 134 520 l 202 452 m 36 0 l 185 0 l 185 394 l 108 394 l 8 366 l 8 317 l 36 300 l 36 0 z "},"ð":{"ha":512,"x_min":38,"x_max":472,"o":"m 251 82 q 215 110 231 82 q 199 173 199 138 l 199 238 q 262 333 199 332 q 291 329 275 333 l 292 332 l 293 283 l 292 196 q 280 110 292 138 q 251 82 269 82 m 279 -9 q 366 12 328 -9 q 426 70 404 32 q 460 156 449 107 q 472 264 472 205 q 437 428 472 353 q 341 552 401 503 l 415 604 l 385 645 l 298 582 q 153 622 229 622 q 121 620 136 622 l 115 559 q 138 553 122 557 q 165 547 154 550 q 189 539 175 544 q 215 527 204 534 l 143 479 l 173 438 l 253 495 q 265 478 260 488 q 275 458 270 469 q 283 434 280 446 q 288 405 286 421 q 291 373 291 390 q 193 397 249 397 q 106 369 142 397 q 54 296 71 342 q 38 192 38 250 q 102 46 38 102 q 279 -9 166 -9 z "},"ñ":{"ha":439,"x_min":8,"x_max":418,"o":"m 122 452 l 122 465 q 129 493 122 481 q 150 504 136 504 q 217 478 165 504 q 294 453 269 453 q 369 480 344 453 q 394 574 394 507 l 394 602 l 330 602 l 330 590 q 300 550 330 550 q 271 558 288 550 q 240 576 255 566 q 203 594 225 586 q 159 602 181 602 q 122 596 139 602 q 91 578 106 591 q 67 541 75 565 q 58 481 58 516 l 58 452 l 122 452 m 186 0 l 186 270 q 189 273 187 271 q 193 276 192 275 q 197 279 194 277 q 200 282 199 281 q 204 284 202 283 q 208 287 206 286 q 213 289 210 288 q 217 290 215 290 q 222 291 219 291 q 227 292 225 292 q 264 248 266 292 l 264 0 l 417 0 l 417 235 q 418 244 417 238 q 418 252 418 249 q 391 368 418 333 q 302 403 365 403 q 265 396 284 403 q 233 378 246 388 q 209 358 219 369 q 192 341 198 348 l 187 334 l 187 394 l 108 394 l 8 366 l 8 317 l 36 300 l 36 0 l 186 0 z "},"ò":{"ha":445,"x_min":14,"x_max":431,"o":"m 191 447 l 267 447 l 202 600 l 81 600 l 191 447 m 222 46 q 180 133 180 46 l 180 284 q 191 330 180 313 q 222 346 202 346 q 264 256 264 346 l 264 109 q 253 63 264 80 q 222 46 243 46 m 219 -10 q 379 41 328 -10 q 431 199 431 92 q 382 352 431 301 q 225 403 334 403 q 64 350 113 403 q 14 192 14 297 q 63 38 14 87 q 219 -10 113 -10 z "},"ó":{"ha":445,"x_min":14,"x_max":431,"o":"m 184 447 l 260 447 l 370 600 l 249 600 l 184 447 m 222 46 q 180 133 180 46 l 180 284 q 191 330 180 313 q 222 346 202 346 q 264 256 264 346 l 264 109 q 253 63 264 80 q 222 46 243 46 m 219 -10 q 379 41 328 -10 q 431 199 431 92 q 382 352 431 301 q 225 403 334 403 q 64 350 113 403 q 14 192 14 297 q 63 38 14 87 q 219 -10 113 -10 z "},"ô":{"ha":445,"x_min":14,"x_max":431,"o":"m 181 447 l 222 515 l 263 447 l 348 447 l 258 600 l 187 600 l 97 447 l 181 447 m 222 46 q 180 133 180 46 l 180 284 q 191 330 180 313 q 222 346 202 346 q 264 256 264 346 l 264 109 q 253 63 264 80 q 222 46 243 46 m 219 -10 q 379 41 328 -10 q 431 199 431 92 q 382 352 431 301 q 225 403 334 403 q 64 350 113 403 q 14 192 14 297 q 63 38 14 87 q 219 -10 113 -10 z "},"õ":{"ha":445,"x_min":14,"x_max":431,"o":"m 118 452 l 118 465 q 125 493 118 481 q 146 504 132 504 q 213 478 161 504 q 290 453 266 453 q 365 480 341 453 q 390 574 390 507 l 390 602 l 326 602 l 326 590 q 296 550 326 550 q 268 558 284 550 q 237 576 251 566 q 200 594 222 586 q 155 602 177 602 q 119 596 135 602 q 87 578 102 591 q 63 541 72 565 q 55 481 55 516 l 55 452 l 118 452 m 222 46 q 180 133 180 46 l 180 284 q 191 330 180 313 q 222 346 202 346 q 264 256 264 346 l 264 109 q 253 63 264 80 q 222 46 243 46 m 219 -10 q 379 41 328 -10 q 431 199 431 92 q 382 352 431 301 q 225 403 334 403 q 64 350 113 403 q 14 192 14 297 q 63 38 14 87 q 219 -10 113 -10 z "},"ö":{"ha":445,"x_min":14,"x_max":431,"o":"m 124 452 l 139 452 l 210 520 l 210 534 l 139 602 l 124 602 l 56 534 l 56 520 l 124 452 m 302 452 l 318 452 l 388 520 l 388 534 l 318 602 l 302 602 l 235 534 l 235 520 l 302 452 m 222 46 q 180 133 180 46 l 180 284 q 191 330 180 313 q 222 346 202 346 q 264 256 264 346 l 264 109 q 253 63 264 80 q 222 46 243 46 m 219 -10 q 379 41 328 -10 q 431 199 431 92 q 382 352 431 301 q 225 403 334 403 q 64 350 113 403 q 14 192 14 297 q 63 38 14 87 q 219 -10 113 -10 z "},"÷":{"ha":531,"x_min":51,"x_max":481,"o":"m 255 -9 l 273 -9 l 352 68 l 352 84 l 273 160 l 255 160 l 179 84 l 179 68 l 255 -9 m 51 192 l 481 192 l 481 285 l 51 285 l 51 192 m 255 313 l 273 313 l 352 390 l 352 406 l 273 482 l 255 482 l 179 406 l 179 390 l 255 313 z "},"ø":{"ha":445,"x_min":14,"x_max":431,"o":"m 222 46 q 180 133 180 46 l 180 284 q 209 344 180 334 q 222 346 215 346 q 264 256 264 346 l 264 109 q 253 63 264 80 q 222 46 243 46 m 198 -95 l 224 -10 q 381 43 331 -8 q 431 199 431 94 q 351 376 431 331 q 329 386 340 382 l 359 484 l 237 484 l 212 403 q 61 347 107 400 q 14 192 14 294 q 89 19 14 63 q 107 9 98 13 l 75 -95 l 198 -95 z "},"ù":{"ha":433,"x_min":16,"x_max":405,"o":"m 179 447 l 255 447 l 190 600 l 69 600 l 179 447 m 263 62 l 277 0 l 405 0 l 405 394 l 229 394 l 229 340 l 254 324 l 254 106 q 250 103 252 105 q 246 100 247 101 q 243 97 245 99 q 239 95 240 96 q 235 93 238 94 q 231 91 233 92 q 227 90 230 91 q 223 89 225 89 q 218 89 220 89 q 191 99 198 89 q 184 130 183 109 l 184 394 l 16 394 l 16 340 l 32 324 l 32 159 q 60 29 32 68 q 153 -10 88 -10 q 194 -1 174 -10 q 229 21 215 8 q 251 44 243 34 q 263 62 260 55 z "},"ú":{"ha":433,"x_min":16,"x_max":405,"o":"m 172 447 l 248 447 l 358 600 l 237 600 l 172 447 m 263 62 l 277 0 l 405 0 l 405 394 l 229 394 l 229 340 l 254 324 l 254 106 q 250 103 252 105 q 246 100 247 101 q 243 97 245 99 q 239 95 240 96 q 235 93 238 94 q 231 91 233 92 q 227 90 230 91 q 223 89 225 89 q 218 89 220 89 q 191 99 198 89 q 184 130 183 109 l 184 394 l 16 394 l 16 340 l 32 324 l 32 159 q 60 29 32 68 q 153 -10 88 -10 q 194 -1 174 -10 q 229 21 215 8 q 251 44 243 34 q 263 62 260 55 z "},"û":{"ha":433,"x_min":16,"x_max":405,"o":"m 169 447 l 210 515 l 251 447 l 336 447 l 246 600 l 175 600 l 85 447 l 169 447 m 263 62 l 277 0 l 405 0 l 405 394 l 229 394 l 229 340 l 254 324 l 254 106 q 250 103 252 105 q 246 100 247 101 q 243 97 245 99 q 239 95 240 96 q 235 93 238 94 q 231 91 233 92 q 227 90 230 91 q 223 89 225 89 q 218 89 220 89 q 191 99 198 89 q 184 130 183 109 l 184 394 l 16 394 l 16 340 l 32 324 l 32 159 q 60 29 32 68 q 153 -10 88 -10 q 194 -1 174 -10 q 229 21 215 8 q 251 44 243 34 q 263 62 260 55 z "},"ü":{"ha":433,"x_min":16,"x_max":405,"o":"m 112 452 l 127 452 l 198 520 l 198 534 l 127 602 l 112 602 l 44 534 l 44 520 l 112 452 m 290 452 l 306 452 l 376 520 l 376 534 l 306 602 l 290 602 l 223 534 l 223 520 l 290 452 m 263 62 l 277 0 l 405 0 l 405 394 l 229 394 l 229 340 l 254 324 l 254 106 q 250 103 252 105 q 246 100 247 101 q 243 97 245 99 q 239 95 240 96 q 235 93 238 94 q 231 91 233 92 q 227 90 230 91 q 223 89 225 89 q 218 89 220 89 q 191 99 198 89 q 184 130 183 109 l 184 394 l 16 394 l 16 340 l 32 324 l 32 159 q 60 29 32 68 q 153 -10 88 -10 q 194 -1 174 -10 q 229 21 215 8 q 251 44 243 34 q 263 62 260 55 z "},"ý":{"ha":431,"x_min":15,"x_max":404,"o":"m 171 447 l 247 447 l 357 600 l 236 600 l 171 447 m 226 -159 q 361 -104 317 -159 q 404 54 404 -48 l 404 394 l 228 394 l 228 340 l 253 324 l 253 106 q 241 97 247 100 q 229 91 235 93 q 217 89 223 89 q 190 99 197 89 q 183 130 183 109 l 183 394 l 15 394 l 15 340 l 31 324 l 31 159 q 60 29 31 68 q 157 -10 88 -10 q 192 -2 175 -10 q 222 16 210 5 q 243 36 234 26 q 257 54 253 47 l 262 62 l 262 22 q 256 -25 262 -6 q 240 -54 250 -44 q 216 -69 229 -65 q 184 -73 202 -73 q 99 -58 125 -73 l 75 -108 q 136 -145 94 -131 q 226 -159 178 -159 z "},"þ":{"ha":440,"x_min":2,"x_max":429,"o":"m 273 0 q 341 16 312 0 q 390 60 371 32 q 419 125 409 88 q 429 206 429 162 q 393 350 429 298 q 281 403 357 403 q 247 399 263 403 q 218 388 231 394 q 197 373 206 381 q 181 357 188 366 l 181 606 l 150 606 l 2 583 l 2 540 l 30 524 l 30 -141 l 181 -141 l 181 22 q 273 0 221 0 m 205 64 q 194 65 200 64 q 181 68 188 66 l 181 308 q 213 318 197 318 q 252 297 237 318 q 267 238 267 277 l 267 159 q 205 64 267 64 z "},"ÿ":{"ha":431,"x_min":15,"x_max":404,"o":"m 111 452 l 126 452 l 197 520 l 197 534 l 126 602 l 111 602 l 44 534 l 44 520 l 111 452 m 289 452 l 305 452 l 375 520 l 375 534 l 305 602 l 289 602 l 222 534 l 222 520 l 289 452 m 226 -159 q 361 -104 317 -159 q 404 54 404 -48 l 404 394 l 228 394 l 228 340 l 253 324 l 253 106 q 241 97 247 100 q 229 91 235 93 q 217 89 223 89 q 190 99 197 89 q 183 130 183 109 l 183 394 l 15 394 l 15 340 l 31 324 l 31 159 q 60 29 31 68 q 157 -10 88 -10 q 192 -2 175 -10 q 222 16 210 5 q 243 36 234 26 q 257 54 253 47 l 262 62 l 262 22 q 256 -25 262 -6 q 240 -54 250 -44 q 216 -69 229 -65 q 184 -73 202 -73 q 99 -58 125 -73 l 75 -108 q 136 -145 94 -131 q 226 -159 178 -159 z "},"Ā":{"ha":454,"x_min":-9,"x_max":467,"o":"m 77 627 l 352 627 l 352 733 l 77 733 l 77 627 m 297 0 l 467 0 l 313 543 l 121 543 l 132 505 l -9 0 l 127 0 l 145 87 l 276 87 l 297 0 m 205 383 l 254 181 l 164 181 l 205 383 z "},"ā":{"ha":388,"x_min":5,"x_max":378,"o":"m 54 475 l 329 475 l 329 581 l 54 581 l 54 475 m 236 41 l 251 0 l 378 0 l 365 36 l 365 225 q 357 309 365 275 q 330 363 349 342 q 281 394 312 385 q 205 403 251 403 q 102 387 153 403 q 20 351 52 372 l 50 288 q 99 304 68 298 q 158 311 130 311 q 207 300 192 311 q 222 260 222 288 l 222 251 q 189 250 206 251 q 150 244 172 249 q 109 234 128 240 q 69 217 89 228 q 36 192 50 206 q 13 158 22 178 q 5 114 5 138 q 130 -10 5 -10 q 166 -4 148 -10 q 196 8 183 1 q 217 23 208 16 q 231 36 227 31 l 236 41 m 200 72 q 160 130 160 72 q 177 178 160 162 q 222 193 194 193 l 222 82 q 219 79 222 82 q 211 74 216 77 q 200 72 206 72 z "},"Ă":{"ha":454,"x_min":-9,"x_max":467,"o":"m 214 606 q 264 616 242 606 q 300 639 287 625 q 322 671 313 653 q 335 705 331 689 q 338 733 338 720 l 338 749 l 273 749 q 274 743 274 746 q 259 714 274 728 q 214 700 245 700 q 169 714 184 700 q 155 743 155 728 l 156 749 l 91 749 l 91 733 q 94 705 90 720 q 106 671 97 689 q 129 639 115 653 q 165 616 142 625 q 214 606 187 606 m 297 0 l 467 0 l 313 543 l 121 543 l 132 505 l -9 0 l 127 0 l 145 87 l 276 87 l 297 0 m 205 383 l 254 181 l 164 181 l 205 383 z "},"ă":{"ha":388,"x_min":5,"x_max":378,"o":"m 141 466 q 153 461 141 466 q 191 456 164 456 q 241 466 219 456 q 277 490 263 475 q 299 522 290 504 q 312 555 308 539 q 315 584 315 571 l 314 600 l 250 600 q 250 593 250 597 q 236 565 250 578 q 191 551 222 551 q 146 565 161 551 q 132 593 132 578 l 132 600 l 68 600 l 68 584 q 71 555 67 571 q 83 522 74 539 q 106 490 92 504 q 141 466 119 475 m 236 41 l 251 0 l 378 0 l 365 36 l 365 225 q 357 309 365 275 q 330 363 349 342 q 281 394 312 385 q 205 403 251 403 q 102 387 153 403 q 20 351 52 372 l 50 288 q 99 304 68 298 q 158 311 130 311 q 207 300 192 311 q 222 260 222 288 l 222 251 q 189 250 206 251 q 150 244 172 249 q 109 234 128 240 q 69 217 89 228 q 36 192 50 206 q 13 158 22 178 q 5 114 5 138 q 130 -10 5 -10 q 166 -4 148 -10 q 196 8 183 1 q 217 23 208 16 q 231 36 227 31 l 236 41 m 200 72 q 160 130 160 72 q 177 178 160 162 q 222 193 194 193 l 222 82 q 219 79 222 82 q 211 74 216 77 q 200 72 206 72 z "},"Ą":{"ha":454,"x_min":-9,"x_max":467,"o":"m 361 -247 q 423 -230 394 -247 q 463 -201 452 -213 l 445 -131 q 424 -137 442 -134 q 397 -140 406 -140 q 329 -83 329 -140 q 333 -47 329 -63 q 344 -18 337 -30 q 358 1 352 -6 q 374 17 364 8 l 325 17 q 256 -51 282 -11 q 230 -137 230 -91 q 238 -175 230 -156 q 262 -211 246 -194 q 303 -237 277 -227 q 361 -247 329 -247 m 297 0 l 467 0 l 313 543 l 121 543 l 132 505 l -9 0 l 127 0 l 145 87 l 276 87 l 297 0 m 205 383 l 254 181 l 164 181 l 205 383 z "},"ą":{"ha":388,"x_min":5,"x_max":415,"o":"m 314 -247 q 376 -230 347 -247 q 415 -201 405 -213 l 398 -131 q 376 -137 394 -134 q 350 -140 358 -140 q 281 -83 281 -140 q 285 -47 281 -63 q 297 -18 289 -30 q 311 1 305 -6 q 326 17 317 8 l 278 17 q 209 -51 235 -11 q 182 -137 182 -91 q 191 -175 182 -156 q 214 -211 199 -194 q 256 -237 230 -227 q 314 -247 282 -247 m 236 41 l 251 0 l 378 0 l 365 36 l 365 225 q 357 309 365 275 q 330 363 349 342 q 281 394 312 385 q 205 403 251 403 q 102 387 153 403 q 20 351 52 372 l 50 288 q 99 304 68 298 q 158 311 130 311 q 207 300 192 311 q 222 260 222 288 l 222 251 q 189 250 206 251 q 150 244 172 249 q 109 234 128 240 q 69 217 89 228 q 36 192 50 206 q 13 158 22 178 q 5 114 5 138 q 130 -10 5 -10 q 166 -4 148 -10 q 196 8 183 1 q 217 23 208 16 q 231 36 227 31 l 236 41 m 200 72 q 160 130 160 72 q 177 178 160 162 q 222 193 194 193 l 222 82 q 219 79 222 82 q 211 74 216 77 q 200 72 206 72 z "},"Ć":{"ha":384,"x_min":18,"x_max":377,"o":"m 186 596 l 262 596 l 372 749 l 250 749 l 186 596 m 374 38 l 353 112 q 310 94 336 100 q 261 88 284 88 q 241 91 250 88 q 220 105 231 94 q 200 134 208 116 q 186 187 192 153 q 180 267 180 221 q 189 385 180 344 q 214 440 198 426 q 262 454 231 454 q 276 452 268 454 l 300 397 l 370 397 l 377 503 q 373 508 376 505 q 358 520 370 512 q 332 535 346 528 q 292 546 317 541 q 238 551 267 551 q 132 532 175 551 q 64 476 88 513 q 28 388 39 438 q 18 270 18 338 q 28 157 18 206 q 63 69 39 108 q 131 10 88 31 q 234 -10 174 -10 q 288 -5 263 -10 q 328 7 313 0 q 354 22 343 14 q 369 33 365 29 l 374 38 z "},"ć":{"ha":360,"x_min":18,"x_max":372,"o":"m 186 447 l 262 447 l 372 600 l 250 600 l 186 447 m 346 38 l 323 101 q 283 83 307 89 q 235 78 258 78 q 218 79 225 78 q 200 86 211 80 q 183 103 189 92 q 171 135 176 113 q 166 188 166 157 q 182 289 166 260 q 240 318 198 318 q 250 317 247 318 l 277 246 l 343 246 l 350 355 q 340 365 350 355 q 215 403 295 403 q 137 389 173 403 q 75 347 101 374 q 33 281 48 321 q 18 191 18 240 q 67 45 18 100 q 211 -10 117 -10 q 263 -5 239 -10 q 302 7 288 0 q 327 22 317 14 q 342 33 338 29 l 346 38 z "},"Ĉ":{"ha":384,"x_min":18,"x_max":377,"o":"m 182 596 l 223 664 l 264 596 l 349 596 l 259 749 l 188 749 l 98 596 l 182 596 m 374 38 l 353 112 q 310 94 336 100 q 261 88 284 88 q 241 91 250 88 q 220 105 231 94 q 200 134 208 116 q 186 187 192 153 q 180 267 180 221 q 189 385 180 344 q 214 440 198 426 q 262 454 231 454 q 276 452 268 454 l 300 397 l 370 397 l 377 503 q 373 508 376 505 q 358 520 370 512 q 332 535 346 528 q 292 546 317 541 q 238 551 267 551 q 132 532 175 551 q 64 476 88 513 q 28 388 39 438 q 18 270 18 338 q 28 157 18 206 q 63 69 39 108 q 131 10 88 31 q 234 -10 174 -10 q 288 -5 263 -10 q 328 7 313 0 q 354 22 343 14 q 369 33 365 29 l 374 38 z "},"ĉ":{"ha":360,"x_min":18,"x_max":350,"o":"m 183 447 l 224 515 l 265 447 l 350 447 l 260 600 l 188 600 l 99 447 l 183 447 m 346 38 l 323 101 q 283 83 307 89 q 235 78 258 78 q 218 79 225 78 q 200 86 211 80 q 183 103 189 92 q 171 135 176 113 q 166 188 166 157 q 182 289 166 260 q 240 318 198 318 q 250 317 247 318 l 277 246 l 343 246 l 350 355 q 340 365 350 355 q 215 403 295 403 q 137 389 173 403 q 75 347 101 374 q 33 281 48 321 q 18 191 18 240 q 67 45 18 100 q 211 -10 117 -10 q 263 -5 239 -10 q 302 7 288 0 q 327 22 317 14 q 342 33 338 29 l 346 38 z "},"Ċ":{"ha":384,"x_min":18,"x_max":377,"o":"m 213 580 l 231 580 l 310 656 l 310 673 l 231 749 l 213 749 l 137 673 l 137 656 l 213 580 m 374 38 l 353 112 q 310 94 336 100 q 261 88 284 88 q 241 91 250 88 q 220 105 231 94 q 200 134 208 116 q 186 187 192 153 q 180 267 180 221 q 189 385 180 344 q 214 440 198 426 q 262 454 231 454 q 276 452 268 454 l 300 397 l 370 397 l 377 503 q 373 508 376 505 q 358 520 370 512 q 332 535 346 528 q 292 546 317 541 q 238 551 267 551 q 132 532 175 551 q 64 476 88 513 q 28 388 39 438 q 18 270 18 338 q 28 157 18 206 q 63 69 39 108 q 131 10 88 31 q 234 -10 174 -10 q 288 -5 263 -10 q 328 7 313 0 q 354 22 343 14 q 369 33 365 29 l 374 38 z "},"ċ":{"ha":360,"x_min":18,"x_max":350,"o":"m 214 436 l 231 436 l 311 513 l 311 529 l 231 605 l 214 605 l 138 529 l 138 513 l 214 436 m 346 38 l 323 101 q 283 83 307 89 q 235 78 258 78 q 218 79 225 78 q 200 86 211 80 q 183 103 189 92 q 171 135 176 113 q 166 188 166 157 q 182 289 166 260 q 240 318 198 318 q 250 317 247 318 l 277 246 l 343 246 l 350 355 q 340 365 350 355 q 215 403 295 403 q 137 389 173 403 q 75 347 101 374 q 33 281 48 321 q 18 191 18 240 q 67 45 18 100 q 211 -10 117 -10 q 263 -5 239 -10 q 302 7 288 0 q 327 22 317 14 q 342 33 338 29 l 346 38 z "},"Č":{"ha":384,"x_min":18,"x_max":377,"o":"m 188 596 l 259 596 l 349 749 l 264 749 l 223 681 l 182 749 l 98 749 l 188 596 m 374 38 l 353 112 q 310 94 336 100 q 261 88 284 88 q 241 91 250 88 q 220 105 231 94 q 200 134 208 116 q 186 187 192 153 q 180 267 180 221 q 189 385 180 344 q 214 440 198 426 q 262 454 231 454 q 276 452 268 454 l 300 397 l 370 397 l 377 503 q 373 508 376 505 q 358 520 370 512 q 332 535 346 528 q 292 546 317 541 q 238 551 267 551 q 132 532 175 551 q 64 476 88 513 q 28 388 39 438 q 18 270 18 338 q 28 157 18 206 q 63 69 39 108 q 131 10 88 31 q 234 -10 174 -10 q 288 -5 263 -10 q 328 7 313 0 q 354 22 343 14 q 369 33 365 29 l 374 38 z "},"č":{"ha":360,"x_min":18,"x_max":350,"o":"m 188 447 l 260 447 l 350 600 l 265 600 l 224 532 l 183 600 l 99 600 l 188 447 m 346 38 l 323 101 q 283 83 307 89 q 235 78 258 78 q 218 79 225 78 q 200 86 211 80 q 183 103 189 92 q 171 135 176 113 q 166 188 166 157 q 182 289 166 260 q 240 318 198 318 q 250 317 247 318 l 277 246 l 343 246 l 350 355 q 340 365 350 355 q 215 403 295 403 q 137 389 173 403 q 75 347 101 374 q 33 281 48 321 q 18 191 18 240 q 67 45 18 100 q 211 -10 117 -10 q 263 -5 239 -10 q 302 7 288 0 q 327 22 317 14 q 342 33 338 29 l 346 38 z "},"Ď":{"ha":463,"x_min":31,"x_max":450,"o":"m 191 596 l 263 596 l 352 749 l 268 749 l 227 681 l 186 749 l 101 749 l 191 596 m 214 76 l 184 76 l 184 463 l 219 463 q 269 423 251 463 q 287 310 287 383 l 287 263 q 268 119 287 163 q 214 76 249 76 m 228 -3 q 319 14 279 -3 q 383 60 359 32 q 423 128 407 88 q 444 206 438 167 q 450 288 450 244 q 399 481 450 414 q 230 547 348 547 q 172 545 209 547 q 105 543 136 543 l 31 543 l 31 0 l 105 0 q 177 -2 142 0 q 228 -3 212 -3 z "},"ď":{"ha":439,"x_min":14,"x_max":603,"o":"m 463 401 l 538 401 l 603 601 l 481 601 l 463 401 m 295 0 l 413 0 l 413 606 l 377 606 l 213 583 l 213 532 l 264 515 l 264 375 q 223 391 247 384 q 169 397 200 397 q 83 369 119 397 q 31 296 48 342 q 14 192 14 250 q 50 47 14 99 q 162 -6 86 -6 q 200 0 182 -6 q 230 13 218 6 q 253 30 242 20 q 268 47 263 40 q 277 60 273 53 l 295 0 m 230 85 q 191 107 206 85 q 175 173 175 130 l 175 238 q 238 333 176 332 q 264 330 250 333 l 264 97 q 247 88 256 91 q 230 85 238 85 z "},"Đ":{"ha":472,"x_min":-14,"x_max":450,"o":"m 184 76 l 184 229 l 250 229 l 250 333 l 184 333 l 184 463 l 219 463 q 269 423 251 463 q 287 310 287 383 l 287 263 q 268 119 287 163 q 214 76 249 76 l 184 76 m 228 -3 q 319 14 279 -3 q 383 60 359 32 q 423 128 407 88 q 444 206 438 167 q 450 288 450 244 q 399 481 450 414 q 230 547 348 547 q 172 545 209 547 q 105 543 136 543 l 31 543 l 31 333 l -14 333 l -14 229 l 31 229 l 31 0 l 105 0 q 177 -2 142 0 q 228 -3 212 -3 z "},"đ":{"ha":439,"x_min":14,"x_max":446,"o":"m 295 0 l 413 0 l 413 606 l 377 606 l 213 583 l 213 532 l 264 515 l 264 375 q 223 391 247 384 q 169 397 200 397 q 83 369 119 397 q 31 296 48 342 q 14 192 14 250 q 50 47 14 99 q 162 -6 86 -6 q 200 0 182 -6 q 230 13 218 6 q 253 30 242 20 q 268 47 263 40 q 277 60 273 53 l 295 0 m 230 85 q 191 107 206 85 q 175 173 175 130 l 175 238 q 238 333 176 332 q 264 330 250 333 l 264 97 q 247 88 256 91 q 230 85 238 85 m 169 432 l 446 432 l 446 498 l 169 498 l 169 432 z "},"Ē":{"ha":370,"x_min":31,"x_max":359,"o":"m 57 627 l 333 627 l 333 733 l 57 733 l 57 627 m 359 0 l 359 116 l 184 111 l 184 234 l 309 225 l 309 333 l 184 333 l 184 438 l 343 433 l 352 543 l 31 543 l 31 0 l 359 0 z "},"ē":{"ha":399,"x_min":14,"x_max":385,"o":"m 62 475 l 338 475 l 338 581 l 62 581 l 62 475 m 244 239 l 174 239 l 174 278 q 175 306 174 295 q 180 327 176 317 q 193 342 184 338 q 216 347 202 347 q 238 323 232 347 q 244 239 244 298 m 207 -10 q 265 -3 235 -10 q 329 22 296 3 q 379 69 362 41 l 352 115 q 320 94 339 103 q 282 81 300 86 q 247 77 263 77 q 219 80 230 77 q 196 91 207 83 q 179 117 185 100 q 173 162 173 135 l 173 171 l 385 171 l 385 222 q 345 360 385 317 q 215 403 306 403 q 67 350 120 403 q 14 193 14 296 q 25 114 14 149 q 57 50 35 78 q 117 6 79 22 q 207 -10 155 -10 z "},"Ĕ":{"ha":370,"x_min":31,"x_max":359,"o":"m 195 606 q 245 616 222 606 q 281 639 267 625 q 303 671 294 653 q 316 705 312 689 q 319 733 319 720 l 318 749 l 254 749 q 254 743 254 746 q 240 714 254 728 q 195 700 225 700 q 150 714 164 700 q 136 743 136 728 l 136 749 l 72 749 l 71 733 q 74 705 71 720 q 87 671 78 689 q 109 639 96 653 q 145 616 123 625 q 195 606 168 606 m 359 0 l 359 116 l 184 111 l 184 234 l 309 225 l 309 333 l 184 333 l 184 438 l 343 433 l 352 543 l 31 543 l 31 0 l 359 0 z "},"ĕ":{"ha":399,"x_min":14,"x_max":385,"o":"m 150 466 q 161 461 150 466 q 200 456 172 456 q 249 466 227 456 q 285 490 272 475 q 308 522 299 504 q 320 555 317 539 q 323 584 324 571 l 323 600 l 258 600 q 259 593 259 597 q 244 565 259 578 q 200 551 230 551 q 155 565 169 551 q 140 593 140 578 l 141 600 l 76 600 l 76 584 q 79 555 75 571 q 91 522 82 539 q 114 490 100 504 q 150 466 127 475 m 244 239 l 174 239 l 174 278 q 175 306 174 295 q 180 327 176 317 q 193 342 184 338 q 216 347 202 347 q 238 323 232 347 q 244 239 244 298 m 207 -10 q 265 -3 235 -10 q 329 22 296 3 q 379 69 362 41 l 352 115 q 320 94 339 103 q 282 81 300 86 q 247 77 263 77 q 219 80 230 77 q 196 91 207 83 q 179 117 185 100 q 173 162 173 135 l 173 171 l 385 171 l 385 222 q 345 360 385 317 q 215 403 306 403 q 67 350 120 403 q 14 193 14 296 q 25 114 14 149 q 57 50 35 78 q 117 6 79 22 q 207 -10 155 -10 z "},"Ė":{"ha":370,"x_min":31,"x_max":359,"o":"m 185 580 l 202 580 l 281 656 l 281 673 l 202 749 l 185 749 l 109 673 l 109 656 l 185 580 m 359 0 l 359 116 l 184 111 l 184 234 l 309 225 l 309 333 l 184 333 l 184 438 l 343 433 l 352 543 l 31 543 l 31 0 l 359 0 z "},"ė":{"ha":399,"x_min":14,"x_max":385,"o":"m 189 436 l 207 436 l 286 513 l 286 529 l 207 605 l 189 605 l 113 529 l 113 513 l 189 436 m 244 239 l 174 239 l 174 278 q 175 306 174 295 q 180 327 176 317 q 193 342 184 338 q 216 347 202 347 q 238 323 232 347 q 244 239 244 298 m 207 -10 q 265 -3 235 -10 q 329 22 296 3 q 379 69 362 41 l 352 115 q 320 94 339 103 q 282 81 300 86 q 247 77 263 77 q 219 80 230 77 q 196 91 207 83 q 179 117 185 100 q 173 162 173 135 l 173 171 l 385 171 l 385 222 q 345 360 385 317 q 215 403 306 403 q 67 350 120 403 q 14 193 14 296 q 25 114 14 149 q 57 50 35 78 q 117 6 79 22 q 207 -10 155 -10 z "},"Ę":{"ha":370,"x_min":31,"x_max":370,"o":"m 269 -247 q 331 -230 302 -247 q 370 -201 359 -213 l 352 -131 q 331 -137 349 -134 q 305 -140 313 -140 q 236 -83 236 -140 q 240 -47 236 -63 q 252 -18 244 -30 q 266 1 260 -6 q 281 17 272 8 l 233 17 q 163 -51 190 -11 q 137 -137 137 -91 q 145 -175 137 -156 q 169 -211 153 -194 q 211 -237 185 -227 q 269 -247 237 -247 m 359 0 l 359 116 l 184 111 l 184 234 l 309 225 l 309 333 l 184 333 l 184 438 l 343 433 l 352 543 l 31 543 l 31 0 l 359 0 z "},"ę":{"ha":399,"x_min":14,"x_max":395,"o":"m 294 -247 q 356 -230 327 -247 q 395 -201 384 -213 l 377 -131 q 356 -137 374 -134 q 330 -140 338 -140 q 261 -83 261 -140 q 265 -47 261 -63 q 277 -18 269 -30 q 291 1 285 -6 q 306 17 297 8 l 258 17 q 188 -51 215 -11 q 162 -137 162 -91 q 170 -175 162 -156 q 194 -211 178 -194 q 236 -237 210 -227 q 294 -247 262 -247 m 244 239 l 174 239 l 174 278 q 175 306 174 295 q 180 327 176 317 q 193 342 184 338 q 216 347 202 347 q 238 323 232 347 q 244 239 244 298 m 207 -10 q 265 -3 235 -10 q 329 22 296 3 q 379 69 362 41 l 352 115 q 320 94 339 103 q 282 81 300 86 q 247 77 263 77 q 219 80 230 77 q 196 91 207 83 q 179 117 185 100 q 173 162 173 135 l 173 171 l 385 171 l 385 222 q 345 360 385 317 q 215 403 306 403 q 67 350 120 403 q 14 193 14 296 q 25 114 14 149 q 57 50 35 78 q 117 6 79 22 q 207 -10 155 -10 z "},"Ě":{"ha":370,"x_min":31,"x_max":359,"o":"m 159 596 l 231 596 l 320 749 l 236 749 l 195 681 l 154 749 l 69 749 l 159 596 m 359 0 l 359 116 l 184 111 l 184 234 l 309 225 l 309 333 l 184 333 l 184 438 l 343 433 l 352 543 l 31 543 l 31 0 l 359 0 z "},"ě":{"ha":399,"x_min":14,"x_max":385,"o":"m 164 447 l 235 447 l 325 600 l 240 600 l 200 532 l 159 600 l 74 600 l 164 447 m 244 239 l 174 239 l 174 278 q 175 306 174 295 q 180 327 176 317 q 193 342 184 338 q 216 347 202 347 q 238 323 232 347 q 244 239 244 298 m 207 -10 q 265 -3 235 -10 q 329 22 296 3 q 379 69 362 41 l 352 115 q 320 94 339 103 q 282 81 300 86 q 247 77 263 77 q 219 80 230 77 q 196 91 207 83 q 179 117 185 100 q 173 162 173 135 l 173 171 l 385 171 l 385 222 q 345 360 385 317 q 215 403 306 403 q 67 350 120 403 q 14 193 14 296 q 25 114 14 149 q 57 50 35 78 q 117 6 79 22 q 207 -10 155 -10 z "},"Ĝ":{"ha":465,"x_min":9,"x_max":450,"o":"m 217 596 l 258 664 l 299 596 l 383 596 l 294 749 l 222 749 l 132 596 l 217 596 m 362 49 l 367 0 l 450 0 l 450 319 l 244 319 l 244 224 l 305 210 l 305 163 q 300 122 305 138 q 286 98 296 106 q 265 87 276 90 q 238 84 254 84 q 194 132 205 84 q 183 281 183 181 q 188 363 183 330 q 198 416 192 397 q 217 447 205 436 q 241 460 229 457 q 271 463 253 463 q 304 458 294 463 l 331 396 l 415 396 l 422 503 q 419 506 421 504 q 411 513 418 507 q 397 522 405 518 q 376 532 389 526 q 348 542 363 538 q 312 549 333 546 q 268 551 291 551 q 176 542 217 551 q 108 515 136 533 q 60 473 80 497 q 30 415 41 449 q 14 345 19 382 q 9 263 9 309 q 20 153 9 201 q 56 68 31 105 q 122 10 81 30 q 222 -10 164 -10 q 362 49 303 -10 z "},"ĝ":{"ha":435,"x_min":14,"x_max":435,"o":"m 184 447 l 225 515 l 265 447 l 350 447 l 260 600 l 189 600 l 99 447 l 184 447 m 214 -163 q 407 17 407 -163 l 407 326 l 435 346 l 435 389 l 348 394 l 277 394 l 269 372 q 169 397 227 397 q 101 381 131 397 q 53 337 71 365 q 24 272 34 309 q 14 192 14 236 q 50 47 14 99 q 162 -6 86 -6 q 258 35 219 -6 l 258 -4 q 256 -23 257 -14 q 250 -41 255 -31 q 238 -59 246 -52 q 217 -71 231 -66 q 185 -76 204 -76 q 141 -69 167 -76 q 103 -52 115 -61 l 74 -116 q 133 -147 88 -131 q 214 -163 178 -163 m 229 79 q 183 115 197 79 q 175 166 175 137 l 175 238 q 238 333 176 332 q 258 331 247 333 l 258 87 q 229 79 243 79 z "},"Ğ":{"ha":465,"x_min":9,"x_max":450,"o":"m 258 606 q 308 616 285 606 q 344 639 330 625 q 366 671 357 653 q 378 705 375 689 q 381 733 382 720 l 381 749 l 317 749 q 317 743 317 746 q 303 714 317 728 q 258 700 288 700 q 213 714 227 700 q 199 743 199 728 l 199 749 l 135 749 l 134 733 q 137 705 134 720 q 150 671 141 689 q 172 639 159 653 q 208 616 186 625 q 258 606 231 606 m 362 49 l 367 0 l 450 0 l 450 319 l 244 319 l 244 224 l 305 210 l 305 163 q 300 122 305 138 q 286 98 296 106 q 265 87 276 90 q 238 84 254 84 q 194 132 205 84 q 183 281 183 181 q 188 363 183 330 q 198 416 192 397 q 217 447 205 436 q 241 460 229 457 q 271 463 253 463 q 304 458 294 463 l 331 396 l 415 396 l 422 503 q 419 506 421 504 q 411 513 418 507 q 397 522 405 518 q 376 532 389 526 q 348 542 363 538 q 312 549 333 546 q 268 551 291 551 q 176 542 217 551 q 108 515 136 533 q 60 473 80 497 q 30 415 41 449 q 14 345 19 382 q 9 263 9 309 q 20 153 9 201 q 56 68 31 105 q 122 10 81 30 q 222 -10 164 -10 q 362 49 303 -10 z "},"ğ":{"ha":435,"x_min":14,"x_max":435,"o":"m 175 466 q 186 461 175 466 q 225 456 197 456 q 274 466 252 456 q 310 490 297 475 q 333 522 324 504 q 345 555 342 539 q 348 584 349 571 l 348 600 l 283 600 q 284 593 284 597 q 269 565 284 578 q 225 551 255 551 q 180 565 194 551 q 165 593 165 578 l 166 600 l 101 600 l 101 584 q 104 555 100 571 q 116 522 107 539 q 139 490 125 504 q 175 466 152 475 m 214 -163 q 407 17 407 -163 l 407 326 l 435 346 l 435 389 l 348 394 l 277 394 l 269 372 q 169 397 227 397 q 101 381 131 397 q 53 337 71 365 q 24 272 34 309 q 14 192 14 236 q 50 47 14 99 q 162 -6 86 -6 q 258 35 219 -6 l 258 -4 q 256 -23 257 -14 q 250 -41 255 -31 q 238 -59 246 -52 q 217 -71 231 -66 q 185 -76 204 -76 q 141 -69 167 -76 q 103 -52 115 -61 l 74 -116 q 133 -147 88 -131 q 214 -163 178 -163 m 229 79 q 183 115 197 79 q 175 166 175 137 l 175 238 q 238 333 176 332 q 258 331 247 333 l 258 87 q 229 79 243 79 z "},"Ġ":{"ha":465,"x_min":9,"x_max":450,"o":"m 248 580 l 265 580 l 344 656 l 344 673 l 265 749 l 248 749 l 172 673 l 172 656 l 248 580 m 362 49 l 367 0 l 450 0 l 450 319 l 244 319 l 244 224 l 305 210 l 305 163 q 300 122 305 138 q 286 98 296 106 q 265 87 276 90 q 238 84 254 84 q 194 132 205 84 q 183 281 183 181 q 188 363 183 330 q 198 416 192 397 q 217 447 205 436 q 241 460 229 457 q 271 463 253 463 q 304 458 294 463 l 331 396 l 415 396 l 422 503 q 419 506 421 504 q 411 513 418 507 q 397 522 405 518 q 376 532 389 526 q 348 542 363 538 q 312 549 333 546 q 268 551 291 551 q 176 542 217 551 q 108 515 136 533 q 60 473 80 497 q 30 415 41 449 q 14 345 19 382 q 9 263 9 309 q 20 153 9 201 q 56 68 31 105 q 122 10 81 30 q 222 -10 164 -10 q 362 49 303 -10 z "},"ġ":{"ha":435,"x_min":14,"x_max":435,"o":"m 214 436 l 232 436 l 311 513 l 311 529 l 232 605 l 214 605 l 138 529 l 138 513 l 214 436 m 214 -163 q 407 17 407 -163 l 407 326 l 435 346 l 435 389 l 348 394 l 277 394 l 269 372 q 169 397 227 397 q 101 381 131 397 q 53 337 71 365 q 24 272 34 309 q 14 192 14 236 q 50 47 14 99 q 162 -6 86 -6 q 258 35 219 -6 l 258 -4 q 256 -23 257 -14 q 250 -41 255 -31 q 238 -59 246 -52 q 217 -71 231 -66 q 185 -76 204 -76 q 141 -69 167 -76 q 103 -52 115 -61 l 74 -116 q 133 -147 88 -131 q 214 -163 178 -163 m 229 79 q 183 115 197 79 q 175 166 175 137 l 175 238 q 238 333 176 332 q 258 331 247 333 l 258 87 q 229 79 243 79 z "},"Ģ":{"ha":465,"x_min":9,"x_max":450,"o":"m 225 -330 q 297 -238 272 -289 q 322 -148 322 -187 l 322 -131 l 243 -56 l 225 -56 l 149 -131 l 149 -148 l 214 -213 q 200 -255 210 -235 q 179 -287 189 -275 q 161 -306 170 -299 l 225 -330 m 362 49 l 367 0 l 450 0 l 450 319 l 244 319 l 244 224 l 305 210 l 305 163 q 300 122 305 138 q 286 98 296 106 q 265 87 276 90 q 238 84 254 84 q 194 132 205 84 q 183 281 183 181 q 188 363 183 330 q 198 416 192 397 q 217 447 205 436 q 241 460 229 457 q 271 463 253 463 q 304 458 294 463 l 331 396 l 415 396 l 422 503 q 419 506 421 504 q 411 513 418 507 q 397 522 405 518 q 376 532 389 526 q 348 542 363 538 q 312 549 333 546 q 268 551 291 551 q 176 542 217 551 q 108 515 136 533 q 60 473 80 497 q 30 415 41 449 q 14 345 19 382 q 9 263 9 309 q 20 153 9 201 q 56 68 31 105 q 122 10 81 30 q 222 -10 164 -10 q 362 49 303 -10 z "},"ģ":{"ha":435,"x_min":14,"x_max":435,"o":"m 209 432 l 227 432 l 303 508 l 303 524 l 238 590 q 259 645 244 620 q 291 683 275 670 l 227 706 q 155 614 180 666 q 130 524 130 563 l 130 508 l 209 432 m 214 -163 q 407 17 407 -163 l 407 326 l 435 346 l 435 389 l 348 394 l 277 394 l 269 372 q 169 397 227 397 q 101 381 131 397 q 53 337 71 365 q 24 272 34 309 q 14 192 14 236 q 50 47 14 99 q 162 -6 86 -6 q 258 35 219 -6 l 258 -4 q 256 -23 257 -14 q 250 -41 255 -31 q 238 -59 246 -52 q 217 -71 231 -66 q 185 -76 204 -76 q 141 -69 167 -76 q 103 -52 115 -61 l 74 -116 q 133 -147 88 -131 q 214 -163 178 -163 m 229 79 q 183 115 197 79 q 175 166 175 137 l 175 238 q 238 333 176 332 q 258 331 247 333 l 258 87 q 229 79 243 79 z "},"Ĥ":{"ha":488,"x_min":31,"x_max":456,"o":"m 203 596 l 244 664 l 284 596 l 369 596 l 279 749 l 208 749 l 118 596 l 203 596 m 184 0 l 184 221 l 303 221 l 303 0 l 456 0 l 456 543 l 303 543 l 303 328 l 184 328 l 184 543 l 31 543 l 31 0 l 184 0 z "},"ĥ":{"ha":433,"x_min":-15,"x_max":412,"o":"m 69 629 l 110 696 l 151 629 l 236 629 l 146 781 l 75 781 l -15 629 l 69 629 m 180 0 l 180 270 q 184 274 180 270 q 190 279 189 278 q 195 282 191 280 q 201 286 199 285 q 207 289 203 287 q 214 291 211 291 q 221 292 218 292 q 258 248 260 292 l 258 0 l 411 0 l 411 235 q 412 244 411 238 q 412 252 412 249 q 385 368 412 333 q 296 403 359 403 q 259 396 278 403 q 227 378 240 388 q 203 358 213 369 q 186 341 192 348 l 181 334 l 181 606 l 150 606 l 2 583 l 2 540 l 30 524 l 30 0 l 180 0 z "},"Ħ":{"ha":488,"x_min":-14,"x_max":502,"o":"m 184 150 l 303 150 l 303 0 l 456 0 l 456 316 l 502 316 l 502 381 l 456 381 l 456 543 l 303 543 l 303 381 l 184 381 l 184 543 l 31 543 l 31 381 l -13 381 l -13 316 l 31 316 l 31 0 l 184 0 l 184 150 m 184 247 l 184 316 l 303 316 l 303 247 l 184 247 z "},"ħ":{"ha":433,"x_min":-20,"x_max":412,"o":"m 180 0 l 180 270 q 184 274 180 270 q 190 279 189 278 q 195 282 191 280 q 201 286 199 285 q 207 289 203 287 q 214 291 211 291 q 221 292 218 292 q 258 248 260 292 l 258 0 l 411 0 l 411 235 q 412 244 411 238 q 412 252 412 249 q 385 368 412 333 q 296 403 359 403 q 259 396 278 403 q 227 378 240 388 q 203 358 213 369 q 186 341 192 348 l 181 334 l 181 606 l 150 606 l 2 583 l 2 540 l 30 524 l 30 0 l 180 0 m -20 432 l 256 432 l 256 498 l -20 498 l -20 432 z "},"Ĩ":{"ha":222,"x_min":-56,"x_max":279,"o":"m 7 600 l 7 612 q 14 640 7 628 q 35 651 21 651 q 102 626 50 651 q 179 600 155 600 q 254 627 230 600 q 279 721 279 654 l 279 749 l 215 749 l 215 737 q 208 708 215 718 q 185 697 200 697 q 156 705 173 697 q 125 723 140 713 q 88 741 111 733 q 44 749 66 749 q 7 744 24 749 q -24 725 -9 738 q -48 688 -39 713 q -56 628 -56 663 l -56 600 l 7 600 m 32 0 l 190 0 l 190 543 l 32 543 l 32 0 z "},"ĩ":{"ha":213,"x_min":-46,"x_max":289,"o":"m 18 452 l 18 465 q 25 493 18 481 q 45 504 32 504 q 113 478 61 504 q 189 453 165 453 q 265 480 240 453 q 289 574 289 507 l 289 602 l 226 602 l 226 590 q 195 550 226 550 q 167 558 183 550 q 136 576 151 566 q 99 594 121 586 q 55 602 77 602 q 18 596 35 602 q -14 578 1 591 q -37 541 -29 565 q -46 481 -46 516 l -46 452 l 18 452 m 36 0 l 185 0 l 185 394 l 108 394 l 8 366 l 8 317 l 36 300 l 36 0 z "},"Ī":{"ha":222,"x_min":-26,"x_max":249,"o":"m -26 627 l 249 627 l 249 733 l -26 733 l -26 627 m 32 0 l 190 0 l 190 543 l 32 543 l 32 0 z "},"ī":{"ha":213,"x_min":-16,"x_max":260,"o":"m -16 475 l 260 475 l 260 581 l -16 581 l -16 475 m 36 0 l 185 0 l 185 394 l 108 394 l 8 366 l 8 317 l 36 300 l 36 0 z "},"Ĭ":{"ha":222,"x_min":-14,"x_max":236,"o":"m 111 606 q 161 616 138 606 q 197 639 183 625 q 219 671 210 653 q 232 705 228 689 q 235 733 235 720 l 234 749 l 170 749 q 170 743 170 746 q 156 714 170 728 q 111 700 142 700 q 66 714 81 700 q 52 743 52 728 l 52 749 l -12 749 l -12 733 q -9 705 -13 720 q 3 671 -6 689 q 25 639 12 653 q 61 616 39 625 q 111 606 84 606 m 32 0 l 190 0 l 190 543 l 32 543 l 32 0 z "},"ĭ":{"ha":213,"x_min":-3,"x_max":247,"o":"m 72 466 q 83 461 72 466 q 122 456 94 456 q 172 466 149 456 q 207 490 194 475 q 230 522 221 504 q 242 555 239 539 q 245 584 246 571 l 245 600 l 181 600 q 181 593 181 597 q 167 565 181 578 q 122 551 152 551 q 77 565 91 551 q 63 593 63 578 l 63 600 l -1 600 l -2 584 q 1 555 -2 571 q 14 522 5 539 q 36 490 23 504 q 72 466 50 475 m 36 0 l 185 0 l 185 394 l 108 394 l 8 366 l 8 317 l 36 300 l 36 0 z "},"Į":{"ha":222,"x_min":4,"x_max":237,"o":"m 136 -247 q 198 -230 169 -247 q 237 -201 226 -213 l 219 -131 q 198 -137 216 -134 q 172 -140 180 -140 q 103 -83 103 -140 q 107 -47 103 -63 q 119 -18 111 -30 q 133 1 127 -6 q 148 17 139 8 l 100 17 q 31 -51 57 -11 q 4 -137 4 -91 q 12 -175 4 -156 q 36 -211 20 -194 q 78 -237 52 -227 q 136 -247 104 -247 m 32 0 l 190 0 l 190 543 l 32 543 l 32 0 z "},"į":{"ha":213,"x_min":7,"x_max":240,"o":"m 139 -247 q 201 -230 172 -247 q 240 -201 230 -213 l 223 -131 q 201 -137 219 -134 q 175 -140 183 -140 q 106 -83 106 -140 q 110 -47 106 -63 q 122 -18 114 -30 q 136 1 130 -6 q 151 17 142 8 l 103 17 q 34 -51 60 -11 q 7 -137 7 -91 q 16 -175 7 -156 q 39 -211 24 -194 q 81 -237 55 -227 q 139 -247 107 -247 m 36 0 l 185 0 l 185 394 l 108 394 l 8 366 l 8 317 l 36 300 l 36 0 m 103 436 l 121 436 l 200 513 l 200 529 l 121 605 l 103 605 l 27 529 l 27 513 l 103 436 z "},"İ":{"ha":222,"x_min":25,"x_max":198,"o":"m 101 580 l 119 580 l 198 656 l 198 673 l 119 749 l 101 749 l 25 673 l 25 656 l 101 580 m 32 0 l 190 0 l 190 543 l 32 543 l 32 0 z "},"ı":{"ha":213,"x_min":8,"x_max":186,"o":"m 36 0 l 185 0 l 185 394 l 108 394 l 8 366 l 8 317 l 36 300 l 36 0 z "},"Ĳ":{"ha":528,"x_min":32,"x_max":503,"o":"m 349 -9 q 414 1 387 -9 q 459 27 442 11 q 486 67 475 43 q 499 116 496 91 q 503 174 503 142 l 503 543 l 330 543 l 352 502 l 352 165 q 338 115 352 130 q 298 100 323 100 q 274 103 283 100 q 250 114 265 106 l 251 19 q 288 0 261 9 q 349 -9 315 -9 m 32 0 l 190 0 l 190 543 l 32 543 l 32 0 z "},"ĳ":{"ha":439,"x_min":8,"x_max":441,"o":"m 286 -159 q 387 -103 354 -159 q 420 54 420 -48 l 420 394 l 348 394 l 241 369 l 241 319 l 275 301 l 275 22 q 273 -21 275 -3 q 269 -48 271 -38 q 262 -64 266 -58 q 254 -72 258 -70 q 246 -73 251 -73 q 206 -60 226 -73 l 182 -110 q 286 -159 222 -159 m 344 436 l 362 436 l 441 513 l 441 529 l 362 605 l 344 605 l 269 529 l 269 513 l 344 436 m 36 0 l 185 0 l 185 394 l 108 394 l 8 366 l 8 317 l 36 300 l 36 0 m 103 436 l 121 436 l 200 513 l 200 529 l 121 605 l 103 605 l 27 529 l 27 513 l 103 436 z "},"Ĵ":{"ha":306,"x_min":27,"x_max":319,"o":"m 153 596 l 194 664 l 235 596 l 319 596 l 230 749 l 158 749 l 69 596 l 153 596 m 127 -9 q 192 1 164 -9 q 237 27 220 11 q 263 67 253 43 q 277 116 274 91 q 281 174 281 142 l 281 543 l 108 543 l 130 502 l 130 165 q 116 115 130 130 q 76 100 101 100 q 52 103 61 100 q 27 114 43 106 l 29 19 q 66 0 38 9 q 127 -9 93 -9 z "},"ĵ":{"ha":226,"x_min":-57,"x_max":256,"o":"m 90 447 l 131 515 l 172 447 l 256 447 l 167 600 l 95 600 l 6 447 l 90 447 m 54 -159 q 169 -103 131 -159 q 207 54 207 -48 l 207 394 l 134 394 l 28 369 l 28 319 l 62 301 l 62 22 q 50 -48 62 -23 q 21 -73 39 -73 q -33 -46 -10 -73 l -57 -96 q 54 -159 -15 -159 z "},"Ķ":{"ha":456,"x_min":31,"x_max":464,"o":"m 222 -330 q 294 -238 269 -289 q 319 -148 319 -187 l 319 -131 l 240 -56 l 222 -56 l 146 -131 l 146 -148 l 212 -213 q 197 -255 207 -235 q 177 -287 186 -275 q 158 -306 167 -299 l 222 -330 m 294 0 l 464 0 q 433 60 454 14 q 393 151 413 106 q 351 238 374 196 q 316 288 329 279 l 454 543 l 300 543 l 184 283 l 184 543 l 31 543 l 31 0 l 184 0 l 184 253 q 227 162 203 222 q 270 54 251 102 q 294 0 288 7 z "},"ķ":{"ha":437,"x_min":2,"x_max":442,"o":"m 203 -330 q 275 -238 250 -289 q 300 -148 300 -187 l 300 -131 l 221 -56 l 203 -56 l 127 -131 l 127 -148 l 193 -213 q 178 -255 188 -235 q 158 -287 167 -275 q 139 -306 148 -299 l 203 -330 m 262 0 l 442 0 l 318 212 l 439 394 l 266 394 l 190 189 l 262 0 m 30 0 l 181 0 l 181 606 l 150 606 l 2 583 l 2 540 l 30 524 l 30 0 z "},"ĸ":{"ha":437,"x_min":0,"x_max":443,"o":"m 262 0 l 442 0 l 318 212 l 439 394 l 266 394 l 190 189 l 262 0 m 35 0 l 178 0 l 178 394 l 106 394 l 0 369 l 0 319 l 35 301 l 35 0 z "},"Ĺ":{"ha":334,"x_min":31,"x_max":322,"o":"m 70 596 l 146 596 l 256 749 l 135 749 l 70 596 m 31 0 l 322 0 l 322 124 l 184 124 l 184 543 l 31 543 l 31 0 z "},"ĺ":{"ha":207,"x_min":3,"x_max":259,"o":"m 73 638 l 149 638 l 259 791 l 138 791 l 73 638 m 31 0 l 182 0 l 182 606 l 152 606 l 3 583 l 3 540 l 31 524 l 31 0 z "},"Ļ":{"ha":334,"x_min":31,"x_max":322,"o":"m 158 -330 q 230 -238 205 -289 q 255 -148 255 -187 l 255 -131 l 175 -56 l 158 -56 l 82 -131 l 82 -148 l 147 -213 q 132 -255 143 -235 q 112 -287 122 -275 q 94 -306 103 -299 l 158 -330 m 31 0 l 322 0 l 322 124 l 184 124 l 184 543 l 31 543 l 31 0 z "},"ļ":{"ha":207,"x_min":3,"x_max":188,"o":"m 92 -330 q 164 -238 139 -289 q 188 -148 188 -187 l 188 -131 l 109 -56 l 92 -56 l 16 -131 l 16 -148 l 81 -213 q 66 -255 77 -235 q 46 -287 56 -275 q 28 -306 37 -299 l 92 -330 m 31 0 l 182 0 l 182 606 l 152 606 l 3 583 l 3 540 l 31 524 l 31 0 z "},"Ľ":{"ha":334,"x_min":31,"x_max":374,"o":"m 234 401 l 310 401 l 374 601 l 252 601 l 234 401 m 31 0 l 322 0 l 322 124 l 184 124 l 184 543 l 31 543 l 31 0 z "},"ľ":{"ha":207,"x_min":3,"x_max":379,"o":"m 238 401 l 314 401 l 379 601 l 257 601 l 238 401 m 31 0 l 182 0 l 182 606 l 152 606 l 3 583 l 3 540 l 31 524 l 31 0 z "},"Ŀ":{"ha":334,"x_min":31,"x_max":381,"o":"m 284 215 l 301 215 l 381 291 l 381 307 l 301 383 l 284 383 l 208 307 l 208 291 l 284 215 m 31 0 l 322 0 l 322 124 l 184 124 l 184 543 l 31 543 l 31 0 z "},"ŀ":{"ha":380,"x_min":3,"x_max":381,"o":"m 284 215 l 301 215 l 381 291 l 381 307 l 301 383 l 284 383 l 208 307 l 208 291 l 284 215 m 31 0 l 182 0 l 182 606 l 152 606 l 3 583 l 3 540 l 31 524 l 31 0 z "},"Ł":{"ha":334,"x_min":-34,"x_max":322,"o":"m 31 0 l 322 0 l 322 124 l 184 124 l 184 543 l 31 543 l 31 0 m -34 135 l 261 306 l 261 394 l -34 223 l -34 135 z "},"ł":{"ha":261,"x_min":-11,"x_max":284,"o":"m 54 0 l 205 0 l 205 606 l 175 606 l 26 583 l 26 540 l 54 524 l 54 0 m -11 135 l 284 306 l 284 394 l -11 223 l -11 135 z "},"Ń":{"ha":501,"x_min":8,"x_max":470,"o":"m 212 596 l 288 596 l 398 749 l 276 749 l 212 596 m 178 0 l 178 171 l 151 349 l 219 214 l 329 0 l 470 0 l 470 543 l 323 543 l 323 397 l 345 191 l 264 367 l 179 543 l 8 543 l 31 499 l 31 0 l 178 0 z "},"ń":{"ha":439,"x_min":8,"x_max":418,"o":"m 188 447 l 263 447 l 374 600 l 252 600 l 188 447 m 186 0 l 186 270 q 189 273 187 271 q 193 276 192 275 q 197 279 194 277 q 200 282 199 281 q 204 284 202 283 q 208 287 206 286 q 213 289 210 288 q 217 290 215 290 q 222 291 219 291 q 227 292 225 292 q 264 248 266 292 l 264 0 l 417 0 l 417 235 q 418 244 417 238 q 418 252 418 249 q 391 368 418 333 q 302 403 365 403 q 265 396 284 403 q 233 378 246 388 q 209 358 219 369 q 192 341 198 348 l 187 334 l 187 394 l 108 394 l 8 366 l 8 317 l 36 300 l 36 0 l 186 0 z "},"Ņ":{"ha":501,"x_min":8,"x_max":470,"o":"m 221 -330 q 293 -238 268 -289 q 318 -148 318 -187 l 318 -131 l 238 -56 l 221 -56 l 145 -131 l 145 -148 l 210 -213 q 195 -255 206 -235 q 175 -287 185 -275 q 157 -306 166 -299 l 221 -330 m 178 0 l 178 171 l 151 349 l 219 214 l 329 0 l 470 0 l 470 543 l 323 543 l 323 397 l 345 191 l 264 367 l 179 543 l 8 543 l 31 499 l 31 0 l 178 0 z "},"ņ":{"ha":439,"x_min":8,"x_max":418,"o":"m 210 -330 q 282 -238 257 -289 q 307 -148 307 -187 l 307 -131 l 228 -56 l 210 -56 l 134 -131 l 134 -148 l 200 -213 q 185 -255 195 -235 q 165 -287 174 -275 q 146 -306 155 -299 l 210 -330 m 186 0 l 186 270 q 189 273 187 271 q 193 276 192 275 q 197 279 194 277 q 200 282 199 281 q 204 284 202 283 q 208 287 206 286 q 213 289 210 288 q 217 290 215 290 q 222 291 219 291 q 227 292 225 292 q 264 248 266 292 l 264 0 l 417 0 l 417 235 q 418 244 417 238 q 418 252 418 249 q 391 368 418 333 q 302 403 365 403 q 265 396 284 403 q 233 378 246 388 q 209 358 219 369 q 192 341 198 348 l 187 334 l 187 394 l 108 394 l 8 366 l 8 317 l 36 300 l 36 0 l 186 0 z "},"Ň":{"ha":501,"x_min":8,"x_max":470,"o":"m 213 596 l 285 596 l 375 749 l 290 749 l 249 681 l 208 749 l 124 749 l 213 596 m 178 0 l 178 171 l 151 349 l 219 214 l 329 0 l 470 0 l 470 543 l 323 543 l 323 397 l 345 191 l 264 367 l 179 543 l 8 543 l 31 499 l 31 0 l 178 0 z "},"ň":{"ha":439,"x_min":8,"x_max":418,"o":"m 190 447 l 262 447 l 351 600 l 267 600 l 226 532 l 185 600 l 100 600 l 190 447 m 186 0 l 186 270 q 189 273 187 271 q 193 276 192 275 q 197 279 194 277 q 200 282 199 281 q 204 284 202 283 q 208 287 206 286 q 213 289 210 288 q 217 290 215 290 q 222 291 219 291 q 227 292 225 292 q 264 248 266 292 l 264 0 l 417 0 l 417 235 q 418 244 417 238 q 418 252 418 249 q 391 368 418 333 q 302 403 365 403 q 265 396 284 403 q 233 378 246 388 q 209 358 219 369 q 192 341 198 348 l 187 334 l 187 394 l 108 394 l 8 366 l 8 317 l 36 300 l 36 0 l 186 0 z "},"Ŋ":{"ha":501,"x_min":8,"x_max":471,"o":"m 317 -209 q 382 -200 354 -209 q 426 -174 410 -190 q 453 -134 443 -158 q 467 -84 463 -109 q 470 -26 470 -59 l 470 543 l 323 543 l 323 397 l 345 191 l 264 367 l 179 543 l 8 543 l 31 499 l 31 0 l 178 0 l 178 171 l 151 349 l 219 214 l 329 0 l 352 0 l 352 -7 q 346 -41 352 -26 q 331 -65 340 -56 q 309 -80 321 -74 q 286 -88 297 -86 q 266 -91 275 -91 q 242 -88 251 -91 q 217 -77 232 -85 l 219 -182 q 256 -200 228 -191 q 317 -209 283 -209 z "},"ŋ":{"ha":439,"x_min":8,"x_max":420,"o":"m 263 -159 q 367 -118 330 -159 q 413 1 404 -76 l 417 0 l 417 235 q 394 364 419 326 q 302 403 368 403 q 266 396 284 403 q 234 380 247 388 q 210 359 222 371 q 193 342 198 348 q 187 334 189 337 l 187 394 l 108 394 l 8 366 l 8 317 l 36 300 l 36 0 l 186 0 l 186 270 q 189 273 187 271 q 193 276 192 275 q 197 279 194 277 q 200 282 199 281 q 204 284 202 283 q 208 287 206 286 q 213 289 210 288 q 217 290 215 290 q 222 291 219 291 q 227 292 225 292 q 264 253 262 292 l 264 59 l 264 22 q 230 -73 264 -73 q 176 -46 199 -73 l 152 -96 q 263 -159 194 -159 z "},"Ō":{"ha":485,"x_min":18,"x_max":467,"o":"m 105 627 l 380 627 l 380 733 l 105 733 l 105 627 m 188 210 l 188 326 q 200 441 188 410 q 241 473 212 473 q 284 441 271 473 q 297 342 297 408 l 297 231 q 291 128 297 163 q 274 84 285 94 q 241 73 263 73 q 200 103 212 73 q 188 210 188 133 m 231 -10 q 329 3 288 -10 q 397 38 371 16 q 439 97 424 61 q 461 174 455 132 q 467 270 467 215 q 465 338 467 308 q 456 397 463 367 q 441 450 450 427 q 414 492 431 472 q 375 525 398 512 q 322 544 353 537 q 252 551 291 551 q 154 538 196 551 q 87 503 113 525 q 45 444 61 480 q 23 366 29 407 q 18 269 18 325 q 20 202 18 232 q 28 142 22 172 q 44 90 34 113 q 71 49 54 68 q 109 17 87 29 q 162 -3 131 4 q 231 -10 193 -10 z "},"ō":{"ha":445,"x_min":14,"x_max":431,"o":"m 85 475 l 360 475 l 360 581 l 85 581 l 85 475 m 222 46 q 180 133 180 46 l 180 284 q 191 330 180 313 q 222 346 202 346 q 264 256 264 346 l 264 109 q 253 63 264 80 q 222 46 243 46 m 219 -10 q 379 41 328 -10 q 431 199 431 92 q 382 352 431 301 q 225 403 334 403 q 64 350 113 403 q 14 192 14 297 q 63 38 14 87 q 219 -10 113 -10 z "},"Ŏ":{"ha":485,"x_min":18,"x_max":467,"o":"m 242 606 q 292 616 269 606 q 328 639 314 625 q 350 671 341 653 q 363 705 359 689 q 366 733 366 720 l 365 749 l 301 749 q 301 743 301 746 q 287 714 301 728 q 242 700 273 700 q 197 714 212 700 q 183 743 183 728 l 183 749 l 119 749 l 119 733 q 122 705 118 720 q 134 671 125 689 q 156 639 143 653 q 192 616 170 625 q 242 606 215 606 m 188 210 l 188 326 q 200 441 188 410 q 241 473 212 473 q 284 441 271 473 q 297 342 297 408 l 297 231 q 291 128 297 163 q 274 84 285 94 q 241 73 263 73 q 200 103 212 73 q 188 210 188 133 m 231 -10 q 329 3 288 -10 q 397 38 371 16 q 439 97 424 61 q 461 174 455 132 q 467 270 467 215 q 465 338 467 308 q 456 397 463 367 q 441 450 450 427 q 414 492 431 472 q 375 525 398 512 q 322 544 353 537 q 252 551 291 551 q 154 538 196 551 q 87 503 113 525 q 45 444 61 480 q 23 366 29 407 q 18 269 18 325 q 20 202 18 232 q 28 142 22 172 q 44 90 34 113 q 71 49 54 68 q 109 17 87 29 q 162 -3 131 4 q 231 -10 193 -10 z "},"ŏ":{"ha":445,"x_min":14,"x_max":431,"o":"m 172 466 q 184 461 172 466 q 222 456 195 456 q 272 466 250 456 q 308 490 294 475 q 330 522 321 504 q 343 555 339 539 q 346 584 346 571 l 345 600 l 281 600 q 281 593 281 597 q 267 565 281 578 q 222 551 253 551 q 177 565 192 551 q 163 593 163 578 l 163 600 l 99 600 l 99 584 q 102 555 98 571 q 114 522 105 539 q 137 490 123 504 q 172 466 150 475 m 222 46 q 180 133 180 46 l 180 284 q 191 330 180 313 q 222 346 202 346 q 264 256 264 346 l 264 109 q 253 63 264 80 q 222 46 243 46 m 219 -10 q 379 41 328 -10 q 431 199 431 92 q 382 352 431 301 q 225 403 334 403 q 64 350 113 403 q 14 192 14 297 q 63 38 14 87 q 219 -10 113 -10 z "},"Ő":{"ha":485,"x_min":18,"x_max":467,"o":"m 284 597 l 346 597 l 456 749 l 353 749 l 284 597 m 123 597 l 185 597 l 277 749 l 174 749 l 123 597 m 188 210 l 188 326 q 200 441 188 410 q 241 473 212 473 q 284 441 271 473 q 297 342 297 408 l 297 231 q 291 128 297 163 q 274 84 285 94 q 241 73 263 73 q 200 103 212 73 q 188 210 188 133 m 231 -10 q 329 3 288 -10 q 397 38 371 16 q 439 97 424 61 q 461 174 455 132 q 467 270 467 215 q 465 338 467 308 q 456 397 463 367 q 441 450 450 427 q 414 492 431 472 q 375 525 398 512 q 322 544 353 537 q 252 551 291 551 q 154 538 196 551 q 87 503 113 525 q 45 444 61 480 q 23 366 29 407 q 18 269 18 325 q 20 202 18 232 q 28 142 22 172 q 44 90 34 113 q 71 49 54 68 q 109 17 87 29 q 162 -3 131 4 q 231 -10 193 -10 z "},"ő":{"ha":445,"x_min":14,"x_max":436,"o":"m 263 447 l 325 447 l 436 599 l 333 599 l 263 447 m 102 447 l 164 447 l 256 599 l 153 599 l 102 447 m 222 46 q 180 133 180 46 l 180 284 q 191 330 180 313 q 222 346 202 346 q 264 256 264 346 l 264 109 q 253 63 264 80 q 222 46 243 46 m 219 -10 q 379 41 328 -10 q 431 199 431 92 q 382 352 431 301 q 225 403 334 403 q 64 350 113 403 q 14 192 14 297 q 63 38 14 87 q 219 -10 113 -10 z "},"Œ":{"ha":740,"x_min":18,"x_max":729,"o":"m 400 41 l 400 0 l 729 0 l 729 116 l 554 111 l 554 234 l 679 225 l 679 333 l 554 333 l 554 438 l 713 433 l 722 543 l 400 543 l 400 506 q 252 551 350 551 q 154 538 196 551 q 87 503 113 525 q 45 444 61 480 q 23 366 29 407 q 18 269 18 325 q 20 202 18 232 q 28 142 22 172 q 44 90 34 113 q 71 49 54 68 q 109 17 87 29 q 162 -3 131 4 q 231 -10 193 -10 q 400 41 345 -10 m 188 210 l 188 326 q 200 441 188 410 q 241 473 212 473 q 284 441 271 473 q 297 342 297 408 l 297 231 q 291 128 297 163 q 274 84 285 94 q 241 73 263 73 q 200 103 212 73 q 188 210 188 133 z "},"œ":{"ha":658,"x_min":14,"x_max":644,"o":"m 222 46 q 180 133 180 46 l 180 284 q 191 330 180 313 q 222 346 202 346 q 264 256 264 346 l 264 109 q 253 63 264 80 q 222 46 243 46 m 503 239 l 432 239 q 432 259 432 246 q 432 278 432 272 q 440 330 432 313 q 475 347 449 347 q 497 323 491 347 q 503 239 503 298 m 466 -10 q 525 -3 494 -10 q 588 22 555 3 q 638 69 621 41 l 611 115 q 562 88 592 98 q 506 77 531 77 q 478 80 490 77 q 455 91 466 83 q 438 117 444 100 q 432 162 432 135 l 432 171 l 644 171 l 644 222 q 635 303 644 270 q 605 359 625 337 q 553 392 585 382 q 474 403 520 403 q 355 373 403 403 q 225 403 307 403 q 64 350 113 403 q 14 192 14 297 q 63 38 14 87 q 219 -10 113 -10 q 351 19 300 -10 q 466 -10 397 -10 z "},"Ŕ":{"ha":448,"x_min":30,"x_max":449,"o":"m 192 596 l 268 596 l 379 749 l 257 749 l 192 596 m 183 181 q 195 180 187 181 q 211 179 203 180 q 228 178 218 179 q 247 178 238 178 q 249 178 248 178 q 263 108 258 150 q 270 36 268 66 q 278 0 273 6 l 449 0 q 431 38 439 13 q 417 88 423 63 q 402 139 411 114 q 379 183 394 164 q 343 206 364 201 q 405 273 381 231 q 428 368 428 314 q 379 503 428 459 q 230 547 330 547 q 157 545 201 547 q 91 543 113 543 l 30 543 l 30 0 l 183 0 l 183 181 m 183 267 l 183 457 l 192 457 q 253 441 231 457 q 274 385 274 425 l 274 349 q 271 316 274 330 q 263 294 268 302 q 251 279 257 285 q 235 271 244 274 q 218 268 225 269 q 198 267 210 267 l 183 267 z "},"ŕ":{"ha":305,"x_min":8,"x_max":305,"o":"m 100 447 l 176 447 l 287 600 l 165 600 l 100 447 m 186 0 l 186 212 q 246 237 199 237 q 289 228 279 237 l 305 393 q 281 397 292 397 q 159 283 178 397 l 145 394 l 108 394 l 8 369 l 8 317 l 36 300 l 36 0 l 186 0 z "},"Ŗ":{"ha":448,"x_min":30,"x_max":449,"o":"m 207 -330 q 279 -238 255 -289 q 304 -148 304 -187 l 304 -131 l 225 -56 l 207 -56 l 131 -131 l 131 -148 l 197 -213 q 182 -255 193 -235 q 162 -287 171 -275 q 144 -306 152 -299 l 207 -330 m 183 181 q 195 180 187 181 q 211 179 203 180 q 228 178 218 179 q 247 178 238 178 q 249 178 248 178 q 263 108 258 150 q 270 36 268 66 q 278 0 273 6 l 449 0 q 431 38 439 13 q 417 88 423 63 q 402 139 411 114 q 379 183 394 164 q 343 206 364 201 q 405 273 381 231 q 428 368 428 314 q 379 503 428 459 q 230 547 330 547 q 157 545 201 547 q 91 543 113 543 l 30 543 l 30 0 l 183 0 l 183 181 m 183 267 l 183 457 l 192 457 q 253 441 231 457 q 274 385 274 425 l 274 349 q 271 316 274 330 q 263 294 268 302 q 251 279 257 285 q 235 271 244 274 q 218 268 225 269 q 198 267 210 267 l 183 267 z "},"ŗ":{"ha":305,"x_min":8,"x_max":305,"o":"m 112 -330 q 184 -238 159 -289 q 209 -148 209 -187 l 209 -131 l 130 -56 l 112 -56 l 36 -131 l 36 -148 l 101 -213 q 87 -255 97 -235 q 66 -287 76 -275 q 48 -306 57 -299 l 112 -330 m 186 0 l 186 212 q 246 237 199 237 q 289 228 279 237 l 305 393 q 281 397 292 397 q 159 283 178 397 l 145 394 l 108 394 l 8 369 l 8 317 l 36 300 l 36 0 l 186 0 z "},"Ř":{"ha":448,"x_min":30,"x_max":449,"o":"m 194 596 l 265 596 l 355 749 l 270 749 l 230 681 l 189 749 l 104 749 l 194 596 m 183 181 q 195 180 187 181 q 211 179 203 180 q 228 178 218 179 q 247 178 238 178 q 249 178 248 178 q 263 108 258 150 q 270 36 268 66 q 278 0 273 6 l 449 0 q 431 38 439 13 q 417 88 423 63 q 402 139 411 114 q 379 183 394 164 q 343 206 364 201 q 405 273 381 231 q 428 368 428 314 q 379 503 428 459 q 230 547 330 547 q 157 545 201 547 q 91 543 113 543 l 30 543 l 30 0 l 183 0 l 183 181 m 183 267 l 183 457 l 192 457 q 253 441 231 457 q 274 385 274 425 l 274 349 q 271 316 274 330 q 263 294 268 302 q 251 279 257 285 q 235 271 244 274 q 218 268 225 269 q 198 267 210 267 l 183 267 z "},"ř":{"ha":305,"x_min":8,"x_max":305,"o":"m 103 447 l 175 447 l 264 600 l 180 600 l 139 532 l 98 600 l 13 600 l 103 447 m 186 0 l 186 212 q 246 237 199 237 q 289 228 279 237 l 305 393 q 281 397 292 397 q 159 283 178 397 l 145 394 l 108 394 l 8 369 l 8 317 l 36 300 l 36 0 l 186 0 z "},"Ś":{"ha":386,"x_min":16,"x_max":369,"o":"m 155 596 l 231 596 l 341 749 l 219 749 l 155 596 m 193 -10 q 323 38 278 -10 q 369 178 369 86 q 337 274 369 234 q 238 342 305 313 q 218 353 231 346 q 198 364 206 359 q 183 375 191 369 q 171 389 175 381 q 167 407 167 397 q 226 444 167 444 q 278 434 251 444 q 323 402 305 423 l 346 491 q 342 497 345 494 q 326 511 338 501 q 299 529 314 521 q 258 542 284 536 q 202 549 232 549 q 16 383 16 549 q 25 326 16 353 q 46 283 34 300 q 78 250 58 266 q 108 228 97 235 q 137 213 120 221 q 201 175 182 191 q 220 137 220 159 q 203 108 220 116 q 150 100 187 100 q 81 119 113 100 q 30 163 49 138 l 19 51 q 41 32 27 42 q 75 13 54 23 q 126 -3 95 3 q 193 -10 157 -10 z "},"ś":{"ha":340,"x_min":13,"x_max":337,"o":"m 137 447 l 213 447 l 323 600 l 201 600 l 137 447 m 158 -10 q 337 133 337 -10 q 313 215 337 182 q 234 266 288 248 q 211 272 224 269 q 190 278 197 275 q 175 283 182 280 q 164 291 167 287 q 161 304 161 296 q 205 330 161 330 q 289 300 258 330 l 309 366 q 301 374 309 366 q 184 403 263 403 q 100 389 138 403 q 39 346 63 376 q 15 275 15 316 q 123 140 15 173 q 183 118 164 128 q 201 97 201 109 q 191 77 201 84 q 153 70 181 70 q 78 81 114 70 q 25 108 41 93 l 13 33 q 70 5 25 19 q 158 -10 114 -10 z "},"Ŝ":{"ha":386,"x_min":16,"x_max":369,"o":"m 151 596 l 192 664 l 233 596 l 318 596 l 228 749 l 156 749 l 67 596 l 151 596 m 193 -10 q 323 38 278 -10 q 369 178 369 86 q 337 274 369 234 q 238 342 305 313 q 218 353 231 346 q 198 364 206 359 q 183 375 191 369 q 171 389 175 381 q 167 407 167 397 q 226 444 167 444 q 278 434 251 444 q 323 402 305 423 l 346 491 q 342 497 345 494 q 326 511 338 501 q 299 529 314 521 q 258 542 284 536 q 202 549 232 549 q 16 383 16 549 q 25 326 16 353 q 46 283 34 300 q 78 250 58 266 q 108 228 97 235 q 137 213 120 221 q 201 175 182 191 q 220 137 220 159 q 203 108 220 116 q 150 100 187 100 q 81 119 113 100 q 30 163 49 138 l 19 51 q 41 32 27 42 q 75 13 54 23 q 126 -3 95 3 q 193 -10 157 -10 z "},"ŝ":{"ha":340,"x_min":13,"x_max":337,"o":"m 134 447 l 175 515 l 216 447 l 300 447 l 211 600 l 139 600 l 50 447 l 134 447 m 158 -10 q 337 133 337 -10 q 313 215 337 182 q 234 266 288 248 q 211 272 224 269 q 190 278 197 275 q 175 283 182 280 q 164 291 167 287 q 161 304 161 296 q 205 330 161 330 q 289 300 258 330 l 309 366 q 301 374 309 366 q 184 403 263 403 q 100 389 138 403 q 39 346 63 376 q 15 275 15 316 q 123 140 15 173 q 183 118 164 128 q 201 97 201 109 q 191 77 201 84 q 153 70 181 70 q 78 81 114 70 q 25 108 41 93 l 13 33 q 70 5 25 19 q 158 -10 114 -10 z "},"Ş":{"ha":386,"x_min":16,"x_max":369,"o":"m 152 -247 q 212 -238 184 -247 q 259 -207 239 -230 q 280 -151 280 -184 q 278 -134 280 -142 q 276 -120 277 -126 q 272 -108 275 -114 q 266 -98 268 -102 q 259 -89 265 -94 q 253 -82 254 -84 q 244 -76 251 -81 q 236 -71 238 -71 q 227 -66 235 -70 q 219 -61 219 -61 l 241 11 l 159 11 l 111 -79 l 126 -79 q 156 -90 142 -80 q 170 -117 170 -100 q 156 -149 170 -138 q 118 -160 141 -160 q 88 -155 103 -160 l 83 -228 q 152 -247 115 -247 m 193 -10 q 323 38 278 -10 q 369 178 369 86 q 337 274 369 234 q 238 342 305 313 q 218 353 231 346 q 198 364 206 359 q 183 375 191 369 q 171 389 175 381 q 167 407 167 397 q 226 444 167 444 q 278 434 251 444 q 323 402 305 423 l 346 491 q 342 497 345 494 q 326 511 338 501 q 299 529 314 521 q 258 542 284 536 q 202 549 232 549 q 16 383 16 549 q 25 326 16 353 q 46 283 34 300 q 78 250 58 266 q 108 228 97 235 q 137 213 120 221 q 201 175 182 191 q 220 137 220 159 q 203 108 220 116 q 150 100 187 100 q 81 119 113 100 q 30 163 49 138 l 19 51 q 41 32 27 42 q 75 13 54 23 q 126 -3 95 3 q 193 -10 157 -10 z "},"ş":{"ha":340,"x_min":13,"x_max":337,"o":"m 135 -247 q 194 -238 167 -247 q 242 -207 222 -230 q 263 -151 263 -184 q 261 -134 263 -142 q 259 -120 260 -126 q 254 -108 258 -114 q 249 -98 251 -102 q 242 -89 248 -94 q 235 -82 237 -84 q 227 -76 234 -81 q 219 -71 220 -71 q 210 -66 218 -70 q 202 -61 202 -61 l 224 11 l 142 11 l 94 -79 l 109 -79 q 139 -90 125 -80 q 153 -117 153 -100 q 139 -149 153 -138 q 101 -160 124 -160 q 70 -155 86 -160 l 66 -228 q 135 -247 98 -247 m 158 -10 q 337 133 337 -10 q 313 215 337 182 q 234 266 288 248 q 211 272 224 269 q 190 278 197 275 q 175 283 182 280 q 164 291 167 287 q 161 304 161 296 q 205 330 161 330 q 289 300 258 330 l 309 366 q 301 374 309 366 q 184 403 263 403 q 100 389 138 403 q 39 346 63 376 q 15 275 15 316 q 123 140 15 173 q 183 118 164 128 q 201 97 201 109 q 191 77 201 84 q 153 70 181 70 q 78 81 114 70 q 25 108 41 93 l 13 33 q 70 5 25 19 q 158 -10 114 -10 z "},"Š":{"ha":386,"x_min":16,"x_max":369,"o":"m 156 596 l 228 596 l 318 749 l 233 749 l 192 681 l 151 749 l 67 749 l 156 596 m 193 -10 q 323 38 278 -10 q 369 178 369 86 q 337 274 369 234 q 238 342 305 313 q 218 353 231 346 q 198 364 206 359 q 183 375 191 369 q 171 389 175 381 q 167 407 167 397 q 226 444 167 444 q 278 434 251 444 q 323 402 305 423 l 346 491 q 342 497 345 494 q 326 511 338 501 q 299 529 314 521 q 258 542 284 536 q 202 549 232 549 q 16 383 16 549 q 25 326 16 353 q 46 283 34 300 q 78 250 58 266 q 108 228 97 235 q 137 213 120 221 q 201 175 182 191 q 220 137 220 159 q 203 108 220 116 q 150 100 187 100 q 81 119 113 100 q 30 163 49 138 l 19 51 q 41 32 27 42 q 75 13 54 23 q 126 -3 95 3 q 193 -10 157 -10 z "},"š":{"ha":340,"x_min":13,"x_max":337,"o":"m 139 447 l 211 447 l 300 600 l 216 600 l 175 532 l 134 600 l 50 600 l 139 447 m 158 -10 q 337 133 337 -10 q 313 215 337 182 q 234 266 288 248 q 211 272 224 269 q 190 278 197 275 q 175 283 182 280 q 164 291 167 287 q 161 304 161 296 q 205 330 161 330 q 289 300 258 330 l 309 366 q 301 374 309 366 q 184 403 263 403 q 100 389 138 403 q 39 346 63 376 q 15 275 15 316 q 123 140 15 173 q 183 118 164 128 q 201 97 201 109 q 191 77 201 84 q 153 70 181 70 q 78 81 114 70 q 25 108 41 93 l 13 33 q 70 5 25 19 q 158 -10 114 -10 z "},"Ţ":{"ha":392,"x_min":9,"x_max":382,"o":"m 155 -247 q 215 -238 187 -247 q 263 -207 243 -230 q 283 -151 283 -184 q 282 -134 283 -142 q 279 -120 281 -126 q 275 -108 278 -114 q 270 -98 271 -102 q 263 -89 268 -94 q 256 -82 257 -84 q 247 -76 254 -81 q 239 -71 241 -71 q 230 -66 238 -70 q 222 -61 223 -61 l 244 11 l 163 11 l 114 -79 l 129 -79 q 159 -90 145 -80 q 174 -117 174 -100 q 159 -149 174 -138 q 121 -160 144 -160 q 91 -155 106 -160 l 86 -228 q 155 -247 119 -247 m 117 0 l 274 0 l 274 420 l 382 420 l 382 543 l 9 543 l 9 420 l 117 420 l 117 0 z "},"ţ":{"ha":264,"x_min":0,"x_max":260,"o":"m 90 -247 q 150 -238 122 -247 q 197 -207 177 -230 q 218 -151 218 -184 q 216 -134 218 -142 q 214 -120 215 -126 q 209 -108 213 -114 q 204 -98 206 -102 q 197 -89 203 -94 q 191 -82 192 -84 q 182 -76 189 -81 q 174 -71 175 -71 q 165 -66 173 -70 q 157 -61 157 -61 l 179 11 l 97 11 l 49 -79 l 64 -79 q 94 -90 80 -80 q 108 -117 108 -100 q 94 -149 108 -138 q 56 -160 79 -160 q 25 -155 41 -160 l 21 -228 q 90 -247 53 -247 m 144 -10 q 202 -3 176 -10 q 238 11 227 4 q 256 25 250 18 l 256 88 q 244 81 251 83 q 226 79 236 79 q 193 91 204 79 q 182 140 182 103 l 182 312 l 260 312 l 260 394 l 184 394 l 184 501 l 102 501 l 55 394 l 0 376 l 0 312 l 32 312 l 32 155 q 57 28 32 65 q 144 -10 82 -10 z "},"Ť":{"ha":392,"x_min":9,"x_max":382,"o":"m 160 596 l 231 596 l 321 749 l 236 749 l 195 681 l 155 749 l 70 749 l 160 596 m 117 0 l 274 0 l 274 420 l 382 420 l 382 543 l 9 543 l 9 420 l 117 420 l 117 0 z "},"ť":{"ha":264,"x_min":0,"x_max":385,"o":"m 244 401 l 320 401 l 385 601 l 263 601 l 244 401 m 144 -10 q 202 -3 176 -10 q 238 11 227 4 q 256 25 250 18 l 256 88 q 244 81 251 83 q 226 79 236 79 q 193 91 204 79 q 182 140 182 103 l 182 312 l 260 312 l 260 394 l 184 394 l 184 501 l 102 501 l 55 394 l 0 376 l 0 312 l 32 312 l 32 155 q 57 28 32 65 q 144 -10 82 -10 z "},"Ŧ":{"ha":392,"x_min":9,"x_max":382,"o":"m 117 0 l 274 0 l 274 420 l 382 420 l 382 543 l 9 543 l 9 420 l 117 420 l 117 0 m 41 229 l 350 229 l 350 333 l 41 333 l 41 229 z "},"ŧ":{"ha":264,"x_min":0,"x_max":263,"o":"m 144 -10 q 202 -3 176 -10 q 238 11 227 4 q 256 25 250 18 l 256 88 q 244 81 251 83 q 226 79 236 79 q 193 91 204 79 q 182 140 182 103 l 182 312 l 260 312 l 260 394 l 184 394 l 184 501 l 102 501 l 55 394 l 0 376 l 0 312 l 32 312 l 32 155 q 57 28 32 65 q 144 -10 82 -10 m 0 160 l 263 160 l 263 236 l 0 236 l 0 160 z "},"Ũ":{"ha":478,"x_min":31,"x_max":448,"o":"m 135 600 l 135 612 q 142 640 135 628 q 163 651 149 651 q 230 626 178 651 q 306 600 282 600 q 382 627 357 600 q 406 721 406 654 l 406 749 l 343 749 l 343 737 q 335 708 343 718 q 313 697 328 697 q 284 705 300 697 q 253 723 268 713 q 216 741 238 733 q 172 749 194 749 q 135 744 152 749 q 103 725 119 738 q 80 688 88 713 q 71 628 71 663 l 71 600 l 135 600 m 241 -10 q 326 0 289 -10 q 386 24 363 9 q 423 63 409 40 q 442 112 437 87 q 448 168 448 137 l 448 543 l 301 543 l 301 190 q 297 140 301 160 q 284 108 293 119 q 266 93 276 97 q 244 88 256 88 q 208 110 220 88 q 195 191 195 132 l 195 543 l 31 543 l 31 170 q 37 113 31 139 q 58 64 43 87 q 96 25 73 40 q 156 0 119 9 q 241 -10 193 -10 z "},"ũ":{"ha":433,"x_min":16,"x_max":405,"o":"m 106 452 l 106 465 q 113 493 106 481 q 134 504 120 504 q 201 478 149 504 q 278 453 254 453 q 353 480 329 453 q 378 574 378 507 l 378 602 l 314 602 l 314 590 q 284 550 314 550 q 256 558 272 550 q 225 576 239 566 q 188 594 210 586 q 143 602 165 602 q 106 596 123 602 q 75 578 90 591 q 51 541 60 565 q 43 481 43 516 l 43 452 l 106 452 m 263 62 l 277 0 l 405 0 l 405 394 l 229 394 l 229 340 l 254 324 l 254 106 q 250 103 252 105 q 246 100 247 101 q 243 97 245 99 q 239 95 240 96 q 235 93 238 94 q 231 91 233 92 q 227 90 230 91 q 223 89 225 89 q 218 89 220 89 q 191 99 198 89 q 184 130 183 109 l 184 394 l 16 394 l 16 340 l 32 324 l 32 159 q 60 29 32 68 q 153 -10 88 -10 q 194 -1 174 -10 q 229 21 215 8 q 251 44 243 34 q 263 62 260 55 z "},"Ū":{"ha":478,"x_min":31,"x_max":448,"o":"m 101 627 l 377 627 l 377 733 l 101 733 l 101 627 m 241 -10 q 326 0 289 -10 q 386 24 363 9 q 423 63 409 40 q 442 112 437 87 q 448 168 448 137 l 448 543 l 301 543 l 301 190 q 297 140 301 160 q 284 108 293 119 q 266 93 276 97 q 244 88 256 88 q 208 110 220 88 q 195 191 195 132 l 195 543 l 31 543 l 31 170 q 37 113 31 139 q 58 64 43 87 q 96 25 73 40 q 156 0 119 9 q 241 -10 193 -10 z "},"ū":{"ha":433,"x_min":16,"x_max":405,"o":"m 73 475 l 348 475 l 348 581 l 73 581 l 73 475 m 263 62 l 277 0 l 405 0 l 405 394 l 229 394 l 229 340 l 254 324 l 254 106 q 250 103 252 105 q 246 100 247 101 q 243 97 245 99 q 239 95 240 96 q 235 93 238 94 q 231 91 233 92 q 227 90 230 91 q 223 89 225 89 q 218 89 220 89 q 191 99 198 89 q 184 130 183 109 l 184 394 l 16 394 l 16 340 l 32 324 l 32 159 q 60 29 32 68 q 153 -10 88 -10 q 194 -1 174 -10 q 229 21 215 8 q 251 44 243 34 q 263 62 260 55 z "},"Ŭ":{"ha":478,"x_min":31,"x_max":448,"o":"m 239 606 q 289 616 266 606 q 325 639 311 625 q 347 671 338 653 q 359 705 356 689 q 363 733 363 720 l 362 749 l 298 749 q 298 743 298 746 q 284 714 298 728 q 239 700 269 700 q 194 714 208 700 q 180 743 180 728 l 180 749 l 116 749 l 115 733 q 118 705 115 720 q 131 671 122 689 q 153 639 140 653 q 189 616 167 625 q 239 606 212 606 m 241 -10 q 326 0 289 -10 q 386 24 363 9 q 423 63 409 40 q 442 112 437 87 q 448 168 448 137 l 448 543 l 301 543 l 301 190 q 297 140 301 160 q 284 108 293 119 q 266 93 276 97 q 244 88 256 88 q 208 110 220 88 q 195 191 195 132 l 195 543 l 31 543 l 31 170 q 37 113 31 139 q 58 64 43 87 q 96 25 73 40 q 156 0 119 9 q 241 -10 193 -10 z "},"ŭ":{"ha":433,"x_min":16,"x_max":405,"o":"m 160 466 q 172 461 160 466 q 210 456 183 456 q 260 466 238 456 q 296 490 282 475 q 318 522 309 504 q 331 555 327 539 q 334 584 334 571 l 333 600 l 269 600 q 269 593 269 597 q 255 565 269 578 q 210 551 241 551 q 165 565 180 551 q 151 593 151 578 l 151 600 l 87 600 l 87 584 q 90 555 86 571 q 102 522 93 539 q 125 490 111 504 q 160 466 138 475 m 263 62 l 277 0 l 405 0 l 405 394 l 229 394 l 229 340 l 254 324 l 254 106 q 250 103 252 105 q 246 100 247 101 q 243 97 245 99 q 239 95 240 96 q 235 93 238 94 q 231 91 233 92 q 227 90 230 91 q 223 89 225 89 q 218 89 220 89 q 191 99 198 89 q 184 130 183 109 l 184 394 l 16 394 l 16 340 l 32 324 l 32 159 q 60 29 32 68 q 153 -10 88 -10 q 194 -1 174 -10 q 229 21 215 8 q 251 44 243 34 q 263 62 260 55 z "},"Ů":{"ha":478,"x_min":31,"x_max":448,"o":"m 239 654 q 202 670 217 654 q 186 707 186 685 q 202 744 186 728 q 239 761 217 761 q 276 744 260 761 q 292 707 292 728 q 276 670 292 686 q 239 654 261 654 m 168 636 q 183 621 168 636 q 239 606 198 606 q 310 636 280 606 q 340 707 340 665 q 310 778 340 749 q 239 808 281 808 q 168 778 197 808 q 138 707 138 749 q 168 636 138 665 m 241 -10 q 326 0 289 -10 q 386 24 363 9 q 423 63 409 40 q 442 112 437 87 q 448 168 448 137 l 448 543 l 301 543 l 301 190 q 297 140 301 160 q 284 108 293 119 q 266 93 276 97 q 244 88 256 88 q 208 110 220 88 q 195 191 195 132 l 195 543 l 31 543 l 31 170 q 37 113 31 139 q 58 64 43 87 q 96 25 73 40 q 156 0 119 9 q 241 -10 193 -10 z "},"ů":{"ha":433,"x_min":16,"x_max":405,"o":"m 210 504 q 173 520 188 504 q 157 557 157 535 q 173 594 157 578 q 210 611 188 611 q 247 594 231 611 q 263 557 263 578 q 248 520 263 536 q 210 504 232 504 m 139 486 q 154 471 139 486 q 210 456 169 456 q 281 486 251 456 q 311 557 311 515 q 281 628 311 599 q 210 658 252 658 q 139 628 169 658 q 109 557 109 599 q 139 486 109 515 m 263 62 l 277 0 l 405 0 l 405 394 l 229 394 l 229 340 l 254 324 l 254 106 q 250 103 252 105 q 246 100 247 101 q 243 97 245 99 q 239 95 240 96 q 235 93 238 94 q 231 91 233 92 q 227 90 230 91 q 223 89 225 89 q 218 89 220 89 q 191 99 198 89 q 184 130 183 109 l 184 394 l 16 394 l 16 340 l 32 324 l 32 159 q 60 29 32 68 q 153 -10 88 -10 q 194 -1 174 -10 q 229 21 215 8 q 251 44 243 34 q 263 62 260 55 z "},"Ű":{"ha":478,"x_min":31,"x_max":453,"o":"m 281 597 l 343 597 l 453 749 l 350 749 l 281 597 m 119 597 l 181 597 l 274 749 l 170 749 l 119 597 m 241 -10 q 326 0 289 -10 q 386 24 363 9 q 423 63 409 40 q 442 112 437 87 q 448 168 448 137 l 448 543 l 301 543 l 301 190 q 297 140 301 160 q 284 108 293 119 q 266 93 276 97 q 244 88 256 88 q 208 110 220 88 q 195 191 195 132 l 195 543 l 31 543 l 31 170 q 37 113 31 139 q 58 64 43 87 q 96 25 73 40 q 156 0 119 9 q 241 -10 193 -10 z "},"ű":{"ha":433,"x_min":16,"x_max":424,"o":"m 251 447 l 313 447 l 424 599 l 321 599 l 251 447 m 90 447 l 152 447 l 244 599 l 141 599 l 90 447 m 263 62 l 277 0 l 405 0 l 405 394 l 229 394 l 229 340 l 254 324 l 254 106 q 250 103 252 105 q 246 100 247 101 q 243 97 245 99 q 239 95 240 96 q 235 93 238 94 q 231 91 233 92 q 227 90 230 91 q 223 89 225 89 q 218 89 220 89 q 191 99 198 89 q 184 130 183 109 l 184 394 l 16 394 l 16 340 l 32 324 l 32 159 q 60 29 32 68 q 153 -10 88 -10 q 194 -1 174 -10 q 229 21 215 8 q 251 44 243 34 q 263 62 260 55 z "},"Ų":{"ha":478,"x_min":31,"x_max":448,"o":"m 330 -247 q 392 -230 363 -247 q 431 -201 420 -213 l 413 -131 q 392 -137 410 -134 q 366 -140 374 -140 q 297 -83 297 -140 q 301 -47 297 -63 q 313 -18 305 -30 q 327 1 321 -6 q 342 17 333 8 l 294 17 q 225 -51 251 -11 q 198 -137 198 -91 q 206 -175 198 -156 q 230 -211 214 -194 q 272 -237 246 -227 q 330 -247 298 -247 m 241 -10 q 326 0 289 -10 q 386 24 363 9 q 423 63 409 40 q 442 112 437 87 q 448 168 448 137 l 448 543 l 301 543 l 301 190 q 297 140 301 160 q 284 108 293 119 q 266 93 276 97 q 244 88 256 88 q 208 110 220 88 q 195 191 195 132 l 195 543 l 31 543 l 31 170 q 37 113 31 139 q 58 64 43 87 q 96 25 73 40 q 156 0 119 9 q 241 -10 193 -10 z "},"ų":{"ha":433,"x_min":16,"x_max":431,"o":"m 330 -247 q 392 -230 363 -247 q 431 -201 420 -213 l 413 -131 q 392 -137 410 -134 q 366 -140 374 -140 q 297 -83 297 -140 q 301 -47 297 -63 q 313 -18 305 -30 q 327 1 321 -6 q 342 17 333 8 l 294 17 q 225 -51 251 -11 q 198 -137 198 -91 q 206 -175 198 -156 q 230 -211 214 -194 q 272 -237 246 -227 q 330 -247 298 -247 m 263 62 l 277 0 l 405 0 l 405 394 l 229 394 l 229 340 l 254 324 l 254 106 q 250 103 252 105 q 246 100 247 101 q 243 97 245 99 q 239 95 240 96 q 235 93 238 94 q 231 91 233 92 q 227 90 230 91 q 223 89 225 89 q 218 89 220 89 q 191 99 198 89 q 184 130 183 109 l 184 394 l 16 394 l 16 340 l 32 324 l 32 159 q 60 29 32 68 q 153 -10 88 -10 q 194 -1 174 -10 q 229 21 215 8 q 251 44 243 34 q 263 62 260 55 z "},"Ŵ":{"ha":616,"x_min":-21,"x_max":637,"o":"m 278 596 l 319 664 l 360 596 l 444 596 l 355 749 l 283 749 l 194 596 l 278 596 m 255 0 l 302 218 l 359 0 l 517 0 l 637 543 l 496 543 l 469 356 l 443 174 l 402 356 l 369 543 l 218 543 l 253 405 l 241 356 l 194 174 l 158 356 l 133 543 l -21 543 l 108 0 l 255 0 z "},"ŵ":{"ha":592,"x_min":-10,"x_max":602,"o":"m 279 447 l 319 515 l 360 447 l 445 447 l 355 600 l 284 600 l 194 447 l 279 447 m 249 0 l 298 162 l 343 0 l 484 0 l 602 394 l 503 394 l 441 143 l 394 394 l 233 394 l 255 315 l 213 143 l 157 394 l -10 394 l 108 0 l 249 0 z "},"Ŷ":{"ha":409,"x_min":-24,"x_max":432,"o":"m 180 596 l 220 664 l 261 596 l 346 596 l 256 749 l 185 749 l 95 596 l 180 596 m 130 0 l 296 0 l 296 172 l 432 543 l 294 543 l 258 403 l 231 288 l 200 403 l 152 543 l -24 543 l 130 169 l 130 0 z "},"ŷ":{"ha":431,"x_min":15,"x_max":404,"o":"m 169 447 l 209 515 l 250 447 l 335 447 l 245 600 l 174 600 l 84 447 l 169 447 m 226 -159 q 361 -104 317 -159 q 404 54 404 -48 l 404 394 l 228 394 l 228 340 l 253 324 l 253 106 q 241 97 247 100 q 229 91 235 93 q 217 89 223 89 q 190 99 197 89 q 183 130 183 109 l 183 394 l 15 394 l 15 340 l 31 324 l 31 159 q 60 29 31 68 q 157 -10 88 -10 q 192 -2 175 -10 q 222 16 210 5 q 243 36 234 26 q 257 54 253 47 l 262 62 l 262 22 q 256 -25 262 -6 q 240 -54 250 -44 q 216 -69 229 -65 q 184 -73 202 -73 q 99 -58 125 -73 l 75 -108 q 136 -145 94 -131 q 226 -159 178 -159 z "},"Ÿ":{"ha":409,"x_min":-24,"x_max":432,"o":"m 122 600 l 138 600 l 208 667 l 208 681 l 138 749 l 122 749 l 55 681 l 55 667 l 122 600 m 300 600 l 316 600 l 387 667 l 387 681 l 316 749 l 300 749 l 233 681 l 233 667 l 300 600 m 130 0 l 296 0 l 296 172 l 432 543 l 294 543 l 258 403 l 231 288 l 200 403 l 152 543 l -24 543 l 130 169 l 130 0 z "},"Ź":{"ha":406,"x_min":19,"x_max":395,"o":"m 169 596 l 245 596 l 356 749 l 234 749 l 169 596 m 19 0 l 395 0 l 395 117 l 183 106 l 215 143 l 389 463 l 389 543 l 35 543 l 35 425 l 218 435 l 181 391 l 19 96 l 19 0 z "},"ź":{"ha":370,"x_min":7,"x_max":363,"o":"m 146 447 l 222 447 l 333 600 l 211 600 l 146 447 m 26 0 l 355 0 l 355 140 l 301 140 q 288 101 293 109 q 238 77 276 82 q 168 73 213 73 l 225 115 l 363 319 q 349 357 355 337 q 341 394 344 378 l 31 394 l 31 258 l 95 258 q 100 269 96 261 q 104 282 103 278 q 111 294 106 286 q 121 306 116 302 q 136 316 126 310 q 157 324 146 321 q 186 329 169 327 q 224 331 203 331 l 172 293 l 7 81 q 19 41 13 66 q 26 0 25 16 z "},"Ż":{"ha":406,"x_min":19,"x_max":395,"o":"m 197 580 l 214 580 l 294 656 l 294 673 l 214 749 l 197 749 l 121 673 l 121 656 l 197 580 m 19 0 l 395 0 l 395 117 l 183 106 l 215 143 l 389 463 l 389 543 l 35 543 l 35 425 l 218 435 l 181 391 l 19 96 l 19 0 z "},"ż":{"ha":370,"x_min":7,"x_max":363,"o":"m 175 436 l 192 436 l 271 513 l 271 529 l 192 605 l 175 605 l 99 529 l 99 513 l 175 436 m 26 0 l 355 0 l 355 140 l 301 140 q 288 101 293 109 q 238 77 276 82 q 168 73 213 73 l 225 115 l 363 319 q 349 357 355 337 q 341 394 344 378 l 31 394 l 31 258 l 95 258 q 100 269 96 261 q 104 282 103 278 q 111 294 106 286 q 121 306 116 302 q 136 316 126 310 q 157 324 146 321 q 186 329 169 327 q 224 331 203 331 l 172 293 l 7 81 q 19 41 13 66 q 26 0 25 16 z "},"Ž":{"ha":406,"x_min":19,"x_max":395,"o":"m 171 596 l 243 596 l 332 749 l 248 749 l 207 681 l 166 749 l 81 749 l 171 596 m 19 0 l 395 0 l 395 117 l 183 106 l 215 143 l 389 463 l 389 543 l 35 543 l 35 425 l 218 435 l 181 391 l 19 96 l 19 0 z "},"ž":{"ha":370,"x_min":7,"x_max":363,"o":"m 149 447 l 220 447 l 310 600 l 225 600 l 185 532 l 144 600 l 59 600 l 149 447 m 26 0 l 355 0 l 355 140 l 301 140 q 288 101 293 109 q 238 77 276 82 q 168 73 213 73 l 225 115 l 363 319 q 349 357 355 337 q 341 394 344 378 l 31 394 l 31 258 l 95 258 q 100 269 96 261 q 104 282 103 278 q 111 294 106 286 q 121 306 116 302 q 136 316 126 310 q 157 324 146 321 q 186 329 169 327 q 224 331 203 331 l 172 293 l 7 81 q 19 41 13 66 q 26 0 25 16 z "},"ƀ":{"ha":440,"x_min":-20,"x_max":429,"o":"m 273 0 q 341 16 312 0 q 390 60 371 32 q 419 125 409 88 q 429 206 429 162 q 393 350 429 298 q 281 403 357 403 q 247 399 263 403 q 218 388 231 394 q 197 373 206 381 q 181 357 188 366 l 181 606 l 150 606 l 2 583 l 2 540 l 30 524 l 30 0 l 181 0 l 181 22 q 273 0 221 0 m 205 64 q 194 65 200 64 q 181 68 188 66 l 181 308 q 215 321 198 321 q 253 299 238 321 q 267 238 267 278 l 267 159 q 205 64 267 64 m -20 432 l 256 432 l 256 498 l -20 498 l -20 432 z "},"Ə":{"ha":475,"x_min":18,"x_max":458,"o":"m 185 221 l 269 221 q 269 196 269 212 q 269 171 269 180 q 269 147 269 161 q 268 125 269 133 q 264 106 266 116 q 258 89 262 95 q 249 77 254 83 q 236 68 244 71 q 219 66 228 66 q 192 103 200 66 q 185 221 185 140 m 219 -10 q 395 63 332 -10 q 458 276 458 135 q 450 363 458 323 q 426 438 443 402 q 383 497 409 473 q 318 536 357 522 q 229 550 279 550 q 178 545 205 550 q 122 528 151 540 q 66 495 92 517 q 24 444 39 473 l 56 381 q 115 419 79 405 q 181 432 151 432 q 208 430 197 432 q 232 421 220 428 q 252 402 244 414 q 265 369 260 390 q 269 317 269 347 l 269 305 l 18 305 l 18 236 q 64 49 18 107 q 219 -10 111 -10 z "},"Ǆ":{"ha":868,"x_min":31,"x_max":857,"o":"m 627 596 l 698 596 l 788 749 l 703 749 l 663 681 l 622 749 l 537 749 l 627 596 m 482 0 l 857 0 l 857 117 l 645 106 l 677 143 l 852 463 l 852 543 l 497 543 l 497 425 l 681 435 l 644 391 l 482 96 l 482 0 m 214 76 l 184 76 l 184 463 l 219 463 q 269 423 251 463 q 287 310 287 383 l 287 263 q 268 119 287 163 q 214 76 249 76 m 228 -3 q 319 14 279 -3 q 383 60 359 32 q 423 128 407 88 q 444 206 438 167 q 450 288 450 244 q 399 481 450 414 q 230 547 348 547 q 172 545 209 547 q 105 543 136 543 l 31 543 l 31 0 l 105 0 q 177 -2 142 0 q 228 -3 212 -3 z "},"ǅ":{"ha":833,"x_min":31,"x_max":825,"o":"m 613 447 l 684 447 l 774 600 l 689 600 l 649 532 l 608 600 l 523 600 l 613 447 m 488 0 l 818 0 l 818 140 l 763 140 q 750 101 755 109 q 700 77 739 82 q 631 73 675 73 l 688 115 l 825 319 q 812 357 818 337 q 804 394 806 378 l 494 394 l 494 258 l 558 258 q 562 269 559 261 q 567 282 565 278 q 574 294 569 286 q 584 306 579 302 q 599 316 589 310 q 620 324 608 321 q 648 329 631 327 q 686 331 665 331 l 634 293 l 469 81 q 481 41 475 66 q 488 0 487 16 m 214 76 l 184 76 l 184 463 l 219 463 q 269 423 251 463 q 287 310 287 383 l 287 263 q 268 119 287 163 q 214 76 249 76 m 228 -3 q 319 14 279 -3 q 383 60 359 32 q 423 128 407 88 q 444 206 438 167 q 450 288 450 244 q 399 481 450 414 q 230 547 348 547 q 172 545 209 547 q 105 543 136 543 l 31 543 l 31 0 l 105 0 q 177 -2 142 0 q 228 -3 212 -3 z "},"ǆ":{"ha":809,"x_min":14,"x_max":801,"o":"m 604 447 l 675 447 l 765 600 l 681 600 l 640 532 l 599 600 l 514 600 l 604 447 m 465 0 l 794 0 l 794 140 l 740 140 q 727 101 731 109 q 677 77 715 82 q 607 73 651 73 l 664 115 l 801 319 q 788 357 794 337 q 780 394 782 378 l 470 394 l 470 258 l 534 258 q 538 269 535 261 q 543 282 542 278 q 550 294 545 286 q 560 306 555 302 q 575 316 565 310 q 596 324 585 321 q 625 329 608 327 q 663 331 642 331 l 611 293 l 446 81 q 457 41 451 66 q 465 0 463 16 m 295 0 l 413 0 l 413 606 l 377 606 l 213 583 l 213 532 l 264 515 l 264 375 q 223 391 247 384 q 169 397 200 397 q 83 369 119 397 q 31 296 48 342 q 14 192 14 250 q 50 47 14 99 q 162 -6 86 -6 q 200 0 182 -6 q 230 13 218 6 q 253 30 242 20 q 268 47 263 40 q 277 60 273 53 l 295 0 m 230 85 q 191 107 206 85 q 175 173 175 130 l 175 238 q 238 333 176 332 q 264 330 250 333 l 264 97 q 247 88 256 91 q 230 85 238 85 z "},"Ǉ":{"ha":640,"x_min":31,"x_max":615,"o":"m 461 -9 q 526 1 499 -9 q 571 27 554 11 q 598 67 588 43 q 611 116 608 91 q 615 174 615 142 l 615 543 l 442 543 l 464 502 l 464 165 q 450 115 464 130 q 410 100 435 100 q 386 103 395 100 q 362 114 377 106 l 363 19 q 400 0 373 9 q 461 -9 427 -9 m 31 0 l 322 0 l 322 124 l 184 124 l 184 543 l 31 543 l 31 0 z "},"ǈ":{"ha":560,"x_min":31,"x_max":562,"o":"m 407 -159 q 508 -103 475 -159 q 541 54 541 -48 l 541 394 l 469 394 l 362 369 l 362 319 l 396 301 l 396 22 q 394 -21 396 -3 q 390 -48 392 -38 q 383 -64 387 -58 q 375 -72 379 -70 q 367 -73 372 -73 q 326 -60 347 -73 l 303 -110 q 407 -159 343 -159 m 465 436 l 483 436 l 562 513 l 562 529 l 483 605 l 465 605 l 389 529 l 389 513 l 465 436 m 31 0 l 322 0 l 322 124 l 184 124 l 184 543 l 31 543 l 31 0 z "},"ǉ":{"ha":433,"x_min":3,"x_max":435,"o":"m 280 -159 q 381 -103 348 -159 q 414 54 414 -48 l 414 394 l 341 394 l 235 369 l 235 319 l 269 301 l 269 22 q 267 -21 269 -3 q 262 -48 265 -38 q 256 -64 260 -58 q 248 -72 251 -70 q 240 -73 244 -73 q 199 -60 219 -73 l 175 -110 q 280 -159 215 -159 m 338 436 l 356 436 l 435 513 l 435 529 l 356 605 l 338 605 l 262 529 l 262 513 l 338 436 m 31 0 l 182 0 l 182 606 l 152 606 l 3 583 l 3 540 l 31 524 l 31 0 z "},"Ǌ":{"ha":807,"x_min":8,"x_max":782,"o":"m 628 -9 q 694 1 666 -9 q 738 27 721 11 q 765 67 755 43 q 778 116 775 91 q 782 174 782 142 l 782 543 l 609 543 l 631 502 l 631 165 q 617 115 631 130 q 577 100 602 100 q 553 103 563 100 q 529 114 544 106 l 530 19 q 567 0 540 9 q 628 -9 594 -9 m 178 0 l 178 171 l 151 349 l 219 214 l 329 0 l 470 0 l 470 543 l 323 543 l 323 397 l 345 191 l 264 367 l 179 543 l 8 543 l 31 499 l 31 0 l 178 0 z "},"ǋ":{"ha":727,"x_min":8,"x_max":729,"o":"m 574 -159 q 675 -103 642 -159 q 708 54 708 -48 l 708 394 l 636 394 l 529 369 l 529 319 l 563 301 l 563 22 q 561 -21 563 -3 q 557 -48 559 -38 q 550 -64 554 -58 q 542 -72 546 -70 q 534 -73 539 -73 q 494 -60 514 -73 l 470 -110 q 574 -159 510 -159 m 632 436 l 650 436 l 729 513 l 729 529 l 650 605 l 632 605 l 556 529 l 556 513 l 632 436 m 178 0 l 178 171 l 151 349 l 219 214 l 329 0 l 470 0 l 470 543 l 323 543 l 323 397 l 345 191 l 264 367 l 179 543 l 8 543 l 31 499 l 31 0 l 178 0 z "},"ǌ":{"ha":665,"x_min":8,"x_max":667,"o":"m 512 -159 q 613 -103 580 -159 q 646 54 646 -48 l 646 394 l 574 394 l 467 369 l 467 319 l 501 301 l 501 22 q 499 -21 501 -3 q 495 -48 497 -38 q 488 -64 492 -58 q 480 -72 484 -70 q 472 -73 477 -73 q 431 -60 452 -73 l 408 -110 q 512 -159 448 -159 m 570 436 l 588 436 l 667 513 l 667 529 l 588 605 l 570 605 l 494 529 l 494 513 l 570 436 m 186 0 l 186 270 q 189 273 187 271 q 193 276 192 275 q 197 279 194 277 q 200 282 199 281 q 204 284 202 283 q 208 287 206 286 q 213 289 210 288 q 217 290 215 290 q 222 291 219 291 q 227 292 225 292 q 264 248 266 292 l 264 0 l 417 0 l 417 235 q 418 244 417 238 q 418 252 418 249 q 391 368 418 333 q 302 403 365 403 q 265 396 284 403 q 233 378 246 388 q 209 358 219 369 q 192 341 198 348 l 187 334 l 187 394 l 108 394 l 8 366 l 8 317 l 36 300 l 36 0 l 186 0 z "},"Ǎ":{"ha":454,"x_min":-9,"x_max":467,"o":"m 174 596 l 214 664 l 255 596 l 340 596 l 250 749 l 179 749 l 89 596 l 174 596 m 297 0 l 467 0 l 313 543 l 121 543 l 132 505 l -9 0 l 127 0 l 145 87 l 276 87 l 297 0 m 205 383 l 254 181 l 164 181 l 205 383 z "},"ǎ":{"ha":388,"x_min":5,"x_max":378,"o":"m 156 447 l 227 447 l 317 600 l 232 600 l 191 532 l 150 600 l 66 600 l 156 447 m 236 41 l 251 0 l 378 0 l 365 36 l 365 225 q 357 309 365 275 q 330 363 349 342 q 281 394 312 385 q 205 403 251 403 q 102 387 153 403 q 20 351 52 372 l 50 288 q 99 304 68 298 q 158 311 130 311 q 207 300 192 311 q 222 260 222 288 l 222 251 q 189 250 206 251 q 150 244 172 249 q 109 234 128 240 q 69 217 89 228 q 36 192 50 206 q 13 158 22 178 q 5 114 5 138 q 130 -10 5 -10 q 166 -4 148 -10 q 196 8 183 1 q 217 23 208 16 q 231 36 227 31 l 236 41 m 200 72 q 160 130 160 72 q 177 178 160 162 q 222 193 194 193 l 222 82 q 219 79 222 82 q 211 74 216 77 q 200 72 206 72 z "},"Ǐ":{"ha":222,"x_min":-14,"x_max":237,"o":"m 75 596 l 147 596 l 237 749 l 152 749 l 111 681 l 70 749 l -14 749 l 75 596 m 32 0 l 190 0 l 190 543 l 32 543 l 32 0 z "},"ǐ":{"ha":222,"x_min":-4,"x_max":247,"o":"m 86 447 l 157 447 l 247 600 l 163 600 l 122 532 l 81 600 l -4 600 l 86 447 m 36 0 l 185 0 l 185 394 l 108 394 l 8 366 l 8 317 l 36 300 l 36 0 z "},"Ǒ":{"ha":485,"x_min":18,"x_max":467,"o":"m 206 596 l 278 596 l 368 749 l 283 749 l 242 681 l 201 749 l 117 749 l 206 596 m 188 210 l 188 326 q 200 441 188 410 q 241 473 212 473 q 284 441 271 473 q 297 342 297 408 l 297 231 q 291 128 297 163 q 274 84 285 94 q 241 73 263 73 q 200 103 212 73 q 188 210 188 133 m 231 -10 q 329 3 288 -10 q 397 38 371 16 q 439 97 424 61 q 461 174 455 132 q 467 270 467 215 q 465 338 467 308 q 456 397 463 367 q 441 450 450 427 q 414 492 431 472 q 375 525 398 512 q 322 544 353 537 q 252 551 291 551 q 154 538 196 551 q 87 503 113 525 q 45 444 61 480 q 23 366 29 407 q 18 269 18 325 q 20 202 18 232 q 28 142 22 172 q 44 90 34 113 q 71 49 54 68 q 109 17 87 29 q 162 -3 131 4 q 231 -10 193 -10 z "},"ǒ":{"ha":445,"x_min":14,"x_max":431,"o":"m 187 447 l 258 447 l 348 600 l 263 600 l 222 532 l 181 600 l 97 600 l 187 447 m 222 46 q 180 133 180 46 l 180 284 q 191 330 180 313 q 222 346 202 346 q 264 256 264 346 l 264 109 q 253 63 264 80 q 222 46 243 46 m 219 -10 q 379 41 328 -10 q 431 199 431 92 q 382 352 431 301 q 225 403 334 403 q 64 350 113 403 q 14 192 14 297 q 63 38 14 87 q 219 -10 113 -10 z "},"Ǔ":{"ha":478,"x_min":31,"x_max":448,"o":"m 203 596 l 275 596 l 364 749 l 280 749 l 239 681 l 198 749 l 113 749 l 203 596 m 241 -10 q 326 0 289 -10 q 386 24 363 9 q 423 63 409 40 q 442 112 437 87 q 448 168 448 137 l 448 543 l 301 543 l 301 190 q 297 140 301 160 q 284 108 293 119 q 266 93 276 97 q 244 88 256 88 q 208 110 220 88 q 195 191 195 132 l 195 543 l 31 543 l 31 170 q 37 113 31 139 q 58 64 43 87 q 96 25 73 40 q 156 0 119 9 q 241 -10 193 -10 z "},"ǔ":{"ha":433,"x_min":16,"x_max":405,"o":"m 175 447 l 246 447 l 336 600 l 251 600 l 210 532 l 169 600 l 85 600 l 175 447 m 263 62 l 277 0 l 405 0 l 405 394 l 229 394 l 229 340 l 254 324 l 254 106 q 250 103 252 105 q 246 100 247 101 q 243 97 245 99 q 239 95 240 96 q 235 93 238 94 q 231 91 233 92 q 227 90 230 91 q 223 89 225 89 q 218 89 220 89 q 191 99 198 89 q 184 130 183 109 l 184 394 l 16 394 l 16 340 l 32 324 l 32 159 q 60 29 32 68 q 153 -10 88 -10 q 194 -1 174 -10 q 229 21 215 8 q 251 44 243 34 q 263 62 260 55 z "},"Ǧ":{"ha":465,"x_min":9,"x_max":450,"o":"m 222 596 l 294 596 l 383 749 l 299 749 l 258 681 l 217 749 l 132 749 l 222 596 m 362 49 l 367 0 l 450 0 l 450 319 l 244 319 l 244 224 l 305 210 l 305 163 q 300 122 305 138 q 286 98 296 106 q 265 87 276 90 q 238 84 254 84 q 194 132 205 84 q 183 281 183 181 q 188 363 183 330 q 198 416 192 397 q 217 447 205 436 q 241 460 229 457 q 271 463 253 463 q 304 458 294 463 l 331 396 l 415 396 l 422 503 q 419 506 421 504 q 411 513 418 507 q 397 522 405 518 q 376 532 389 526 q 348 542 363 538 q 312 549 333 546 q 268 551 291 551 q 176 542 217 551 q 108 515 136 533 q 60 473 80 497 q 30 415 41 449 q 14 345 19 382 q 9 263 9 309 q 20 153 9 201 q 56 68 31 105 q 122 10 81 30 q 222 -10 164 -10 q 362 49 303 -10 z "},"ǧ":{"ha":435,"x_min":14,"x_max":435,"o":"m 189 447 l 260 447 l 350 600 l 265 600 l 225 532 l 184 600 l 99 600 l 189 447 m 214 -163 q 407 17 407 -163 l 407 326 l 435 346 l 435 389 l 348 394 l 277 394 l 269 372 q 169 397 227 397 q 101 381 131 397 q 53 337 71 365 q 24 272 34 309 q 14 192 14 236 q 50 47 14 99 q 162 -6 86 -6 q 258 35 219 -6 l 258 -4 q 256 -23 257 -14 q 250 -41 255 -31 q 238 -59 246 -52 q 217 -71 231 -66 q 185 -76 204 -76 q 141 -69 167 -76 q 103 -52 115 -61 l 74 -116 q 133 -147 88 -131 q 214 -163 178 -163 m 229 79 q 183 115 197 79 q 175 166 175 137 l 175 238 q 238 333 176 332 q 258 331 247 333 l 258 87 q 229 79 243 79 z "},"Ǫ":{"ha":485,"x_min":18,"x_max":467,"o":"m 280 -247 q 342 -230 313 -247 q 381 -201 370 -213 l 363 -131 q 342 -137 360 -134 q 316 -140 324 -140 q 247 -83 247 -140 q 251 -47 247 -63 q 263 -18 255 -30 q 277 1 271 -6 q 292 17 283 8 l 244 17 q 175 -51 201 -11 q 148 -137 148 -91 q 156 -175 148 -156 q 180 -211 164 -194 q 222 -237 196 -227 q 280 -247 248 -247 m 188 210 l 188 326 q 200 441 188 410 q 241 473 212 473 q 284 441 271 473 q 297 342 297 408 l 297 231 q 291 128 297 163 q 274 84 285 94 q 241 73 263 73 q 200 103 212 73 q 188 210 188 133 m 231 -10 q 329 3 288 -10 q 397 38 371 16 q 439 97 424 61 q 461 174 455 132 q 467 270 467 215 q 465 338 467 308 q 456 397 463 367 q 441 450 450 427 q 414 492 431 472 q 375 525 398 512 q 322 544 353 537 q 252 551 291 551 q 154 538 196 551 q 87 503 113 525 q 45 444 61 480 q 23 366 29 407 q 18 269 18 325 q 20 202 18 232 q 28 142 22 172 q 44 90 34 113 q 71 49 54 68 q 109 17 87 29 q 162 -3 131 4 q 231 -10 193 -10 z "},"ǫ":{"ha":445,"x_min":14,"x_max":431,"o":"m 260 -247 q 322 -230 293 -247 q 361 -201 350 -213 l 344 -131 q 322 -137 340 -134 q 296 -140 304 -140 q 227 -83 227 -140 q 231 -47 227 -63 q 243 -18 235 -30 q 257 1 251 -6 q 272 17 263 8 l 224 17 q 155 -51 181 -11 q 128 -137 128 -91 q 136 -175 128 -156 q 160 -211 144 -194 q 202 -237 176 -227 q 260 -247 228 -247 m 222 46 q 180 133 180 46 l 180 284 q 191 330 180 313 q 222 346 202 346 q 264 256 264 346 l 264 109 q 253 63 264 80 q 222 46 243 46 m 219 -10 q 379 41 328 -10 q 431 199 431 92 q 382 352 431 301 q 225 403 334 403 q 64 350 113 403 q 14 192 14 297 q 63 38 14 87 q 219 -10 113 -10 z "},"Ǳ":{"ha":868,"x_min":31,"x_max":857,"o":"m 482 0 l 857 0 l 857 117 l 645 106 l 677 143 l 852 463 l 852 543 l 497 543 l 497 425 l 681 435 l 644 391 l 482 96 l 482 0 m 214 76 l 184 76 l 184 463 l 219 463 q 269 423 251 463 q 287 310 287 383 l 287 263 q 268 119 287 163 q 214 76 249 76 m 228 -3 q 319 14 279 -3 q 383 60 359 32 q 423 128 407 88 q 444 206 438 167 q 450 288 450 244 q 399 481 450 414 q 230 547 348 547 q 172 545 209 547 q 105 543 136 543 l 31 543 l 31 0 l 105 0 q 177 -2 142 0 q 228 -3 212 -3 z "},"ǲ":{"ha":833,"x_min":31,"x_max":825,"o":"m 488 0 l 818 0 l 818 140 l 763 140 q 750 101 755 109 q 700 77 739 82 q 631 73 675 73 l 688 115 l 825 319 q 812 357 818 337 q 804 394 806 378 l 494 394 l 494 258 l 558 258 q 562 269 559 261 q 567 282 565 278 q 574 294 569 286 q 584 306 579 302 q 599 316 589 310 q 620 324 608 321 q 648 329 631 327 q 686 331 665 331 l 634 293 l 469 81 q 481 41 475 66 q 488 0 487 16 m 214 76 l 184 76 l 184 463 l 219 463 q 269 423 251 463 q 287 310 287 383 l 287 263 q 268 119 287 163 q 214 76 249 76 m 228 -3 q 319 14 279 -3 q 383 60 359 32 q 423 128 407 88 q 444 206 438 167 q 450 288 450 244 q 399 481 450 414 q 230 547 348 547 q 172 545 209 547 q 105 543 136 543 l 31 543 l 31 0 l 105 0 q 177 -2 142 0 q 228 -3 212 -3 z "},"ǳ":{"ha":809,"x_min":14,"x_max":801,"o":"m 465 0 l 794 0 l 794 140 l 740 140 q 727 101 731 109 q 677 77 715 82 q 607 73 651 73 l 664 115 l 801 319 q 788 357 794 337 q 780 394 782 378 l 470 394 l 470 258 l 534 258 q 538 269 535 261 q 543 282 542 278 q 550 294 545 286 q 560 306 555 302 q 575 316 565 310 q 596 324 585 321 q 625 329 608 327 q 663 331 642 331 l 611 293 l 446 81 q 457 41 451 66 q 465 0 463 16 m 295 0 l 413 0 l 413 606 l 377 606 l 213 583 l 213 532 l 264 515 l 264 375 q 223 391 247 384 q 169 397 200 397 q 83 369 119 397 q 31 296 48 342 q 14 192 14 250 q 50 47 14 99 q 162 -6 86 -6 q 200 0 182 -6 q 230 13 218 6 q 253 30 242 20 q 268 47 263 40 q 277 60 273 53 l 295 0 m 230 85 q 191 107 206 85 q 175 173 175 130 l 175 238 q 238 333 176 332 q 264 330 250 333 l 264 97 q 247 88 256 91 q 230 85 238 85 z "},"Ǻ":{"ha":454,"x_min":-9,"x_max":467,"o":"m 134 757 l 210 757 l 320 910 l 199 910 l 134 757 m 214 654 q 177 670 193 654 q 162 707 162 685 q 177 744 162 728 q 214 761 193 761 q 251 744 236 761 q 267 707 267 728 q 252 670 267 686 q 214 654 237 654 m 143 636 q 158 621 143 636 q 214 606 173 606 q 285 636 256 606 q 315 707 315 665 q 286 778 315 749 q 214 808 256 808 q 143 778 173 808 q 113 707 113 749 q 143 636 113 665 m 297 0 l 467 0 l 313 543 l 121 543 l 132 505 l -9 0 l 127 0 l 145 87 l 276 87 l 297 0 m 205 383 l 254 181 l 164 181 l 205 383 z "},"ǻ":{"ha":388,"x_min":5,"x_max":378,"o":"m 100 447 l 176 447 l 287 600 l 165 600 l 100 447 m 191 504 q 154 520 169 504 q 138 557 138 535 q 154 594 138 578 q 191 611 169 611 q 228 594 213 611 q 244 557 244 578 q 229 520 244 536 q 191 504 213 504 m 120 486 q 135 471 120 486 q 191 456 150 456 q 262 486 232 456 q 292 557 292 515 q 263 628 292 599 q 191 658 233 658 q 120 628 150 658 q 90 557 90 599 q 120 486 90 515 m 236 41 l 251 0 l 378 0 l 365 36 l 365 225 q 357 309 365 275 q 330 363 349 342 q 281 394 312 385 q 205 403 251 403 q 102 387 153 403 q 20 351 52 372 l 50 288 q 99 304 68 298 q 158 311 130 311 q 207 300 192 311 q 222 260 222 288 l 222 251 q 189 250 206 251 q 150 244 172 249 q 109 234 128 240 q 69 217 89 228 q 36 192 50 206 q 13 158 22 178 q 5 114 5 138 q 130 -10 5 -10 q 166 -4 148 -10 q 196 8 183 1 q 217 23 208 16 q 231 36 227 31 l 236 41 m 200 72 q 160 130 160 72 q 177 178 160 162 q 222 193 194 193 l 222 82 q 219 79 222 82 q 211 74 216 77 q 200 72 206 72 z "},"Ǽ":{"ha":621,"x_min":-9,"x_max":610,"o":"m 322 596 l 398 596 l 508 749 l 387 749 l 322 596 m 281 0 l 610 0 l 610 116 l 435 111 l 435 234 l 560 225 l 560 333 l 435 333 l 435 438 l 594 433 l 603 543 l 198 543 l 209 505 l -9 0 l 127 0 l 162 87 l 281 87 l 281 0 m 281 383 l 281 181 l 200 181 l 281 383 z "},"ǽ":{"ha":609,"x_min":5,"x_max":595,"o":"m 277 447 l 353 447 l 464 600 l 342 600 l 277 447 m 200 72 q 160 130 160 72 q 177 178 160 162 q 222 193 194 193 l 222 82 q 219 79 221 82 q 211 74 216 77 q 200 72 206 72 m 454 239 l 383 239 q 383 259 383 246 q 383 278 383 272 q 391 330 383 313 q 426 347 400 347 q 448 323 442 347 q 454 239 454 298 m 417 -10 q 475 -3 445 -10 q 539 22 506 3 q 589 69 572 41 l 562 115 q 530 94 549 103 q 492 81 511 86 q 457 77 473 77 q 429 80 441 77 q 406 91 417 83 q 389 117 394 100 q 383 162 383 135 l 383 171 l 595 171 l 595 222 q 556 360 595 317 q 425 403 516 403 q 314 378 359 403 q 205 403 279 403 q 102 387 153 403 q 20 351 52 372 l 50 288 q 99 304 68 298 q 158 311 130 311 q 207 300 192 311 q 222 260 222 288 l 222 251 q 189 250 206 251 q 150 244 172 249 q 109 234 128 240 q 69 217 89 228 q 36 192 50 206 q 13 158 22 178 q 5 114 5 138 q 130 -10 5 -10 q 206 15 171 -10 q 255 66 240 40 q 417 -10 303 -10 z "},"Ǿ":{"ha":485,"x_min":18,"x_max":467,"o":"m 205 596 l 281 596 l 391 749 l 269 749 l 205 596 m 241 73 q 200 103 212 73 q 188 210 188 133 l 188 326 q 209 458 188 431 q 241 473 220 473 q 284 441 271 473 q 297 342 297 408 l 297 231 q 280 91 297 119 q 241 73 268 73 m 217 -57 l 244 -10 q 337 5 298 -8 q 401 41 376 19 q 441 99 426 64 q 461 175 456 135 q 467 270 467 216 q 466 327 467 301 q 460 379 464 353 q 450 426 456 405 q 432 466 443 447 q 407 500 422 485 q 374 525 393 515 l 410 591 l 288 591 l 264 551 q 252 551 258 551 q 61 473 114 551 q 18 277 19 411 q 18 269 18 273 q 20 196 18 228 q 30 133 23 164 q 50 78 38 101 q 82 37 62 56 q 130 7 102 18 l 94 -57 l 217 -57 z "},"ǿ":{"ha":445,"x_min":14,"x_max":431,"o":"m 184 447 l 260 447 l 370 600 l 249 600 l 184 447 m 222 46 q 180 133 180 46 l 180 284 q 209 344 180 334 q 222 346 215 346 q 264 256 264 346 l 264 109 q 253 63 264 80 q 222 46 243 46 m 198 -95 l 224 -10 q 381 43 331 -8 q 431 199 431 94 q 351 376 431 331 q 329 386 340 382 l 359 484 l 237 484 l 212 403 q 61 347 107 400 q 14 192 14 294 q 89 19 14 63 q 107 9 98 13 l 75 -95 l 198 -95 z "},"Ș":{"ha":386,"x_min":16,"x_max":369,"o":"m 174 -330 q 246 -238 221 -289 q 270 -148 270 -187 l 270 -131 l 191 -56 l 174 -56 l 98 -131 l 98 -148 l 163 -213 q 148 -255 159 -235 q 128 -287 138 -275 q 110 -306 119 -299 l 174 -330 m 193 -10 q 323 38 278 -10 q 369 178 369 86 q 337 274 369 234 q 238 342 305 313 q 218 353 231 346 q 198 364 206 359 q 183 375 191 369 q 171 389 175 381 q 167 407 167 397 q 226 444 167 444 q 278 434 251 444 q 323 402 305 423 l 346 491 q 342 497 345 494 q 326 511 338 501 q 299 529 314 521 q 258 542 284 536 q 202 549 232 549 q 16 383 16 549 q 25 326 16 353 q 46 283 34 300 q 78 250 58 266 q 108 228 97 235 q 137 213 120 221 q 201 175 182 191 q 220 137 220 159 q 203 108 220 116 q 150 100 187 100 q 81 119 113 100 q 30 163 49 138 l 19 51 q 41 32 27 42 q 75 13 54 23 q 126 -3 95 3 q 193 -10 157 -10 z "},"ș":{"ha":340,"x_min":13,"x_max":337,"o":"m 156 -330 q 228 -238 204 -289 q 253 -148 253 -187 l 253 -131 l 174 -56 l 156 -56 l 81 -131 l 81 -148 l 146 -213 q 131 -255 142 -235 q 111 -287 120 -275 q 93 -306 101 -299 l 156 -330 m 158 -10 q 337 133 337 -10 q 313 215 337 182 q 234 266 288 248 q 211 272 224 269 q 190 278 197 275 q 175 283 182 280 q 164 291 167 287 q 161 304 161 296 q 205 330 161 330 q 289 300 258 330 l 309 366 q 301 374 309 366 q 184 403 263 403 q 100 389 138 403 q 39 346 63 376 q 15 275 15 316 q 123 140 15 173 q 183 118 164 128 q 201 97 201 109 q 191 77 201 84 q 153 70 181 70 q 78 81 114 70 q 25 108 41 93 l 13 33 q 70 5 25 19 q 158 -10 114 -10 z "},"Ț":{"ha":392,"x_min":9,"x_max":382,"o":"m 177 -330 q 249 -238 224 -289 q 274 -148 274 -187 l 274 -131 l 194 -56 l 177 -56 l 101 -131 l 101 -148 l 166 -213 q 151 -255 162 -235 q 131 -287 141 -275 q 113 -306 122 -299 l 177 -330 m 117 0 l 274 0 l 274 420 l 382 420 l 382 543 l 9 543 l 9 420 l 117 420 l 117 0 z "},"ț":{"ha":264,"x_min":0,"x_max":260,"o":"m 112 -330 q 184 -238 159 -289 q 208 -148 208 -187 l 208 -131 l 129 -56 l 112 -56 l 36 -131 l 36 -148 l 101 -213 q 86 -255 97 -235 q 66 -287 75 -275 q 48 -306 56 -299 l 112 -330 m 144 -10 q 202 -3 176 -10 q 238 11 227 4 q 256 25 250 18 l 256 88 q 244 81 251 83 q 226 79 236 79 q 193 91 204 79 q 182 140 182 103 l 182 312 l 260 312 l 260 394 l 184 394 l 184 501 l 102 501 l 55 394 l 0 376 l 0 312 l 32 312 l 32 155 q 57 28 32 65 q 144 -10 82 -10 z "},"ȷ":{"ha":250,"x_min":-57,"x_max":207,"o":"m 54 -159 q 169 -103 131 -159 q 207 54 207 -48 l 207 394 l 134 394 l 28 369 l 28 319 l 62 301 l 62 22 q 50 -48 62 -23 q 21 -73 39 -73 q -33 -46 -10 -73 l -57 -96 q 54 -159 -15 -159 z "},"Ƀ":{"ha":454,"x_min":-51,"x_max":442,"o":"m 220 91 l 184 91 l 184 241 l 220 241 q 264 228 244 241 q 283 186 283 216 l 283 153 q 268 109 283 128 q 220 91 253 91 m 277 404 l 277 392 q 263 341 277 362 q 221 319 248 319 l 184 319 l 184 453 l 218 453 q 262 442 246 453 q 277 404 277 431 m 251 -4 q 339 8 302 -4 q 399 43 377 21 q 431 95 421 66 q 442 159 442 124 q 333 288 442 278 q 399 331 376 296 q 421 416 421 367 q 412 471 421 448 q 382 512 403 494 q 323 538 361 529 q 232 547 286 547 q 178 545 215 547 q 111 543 140 543 l 31 543 l 31 0 l 75 0 q 158 -2 100 0 q 251 -4 215 -4 m -51 131 l 225 131 l 225 196 l -51 196 l -51 131 z "},"ə":{"ha":399,"x_min":14,"x_max":385,"o":"m 155 154 l 226 154 q 226 133 226 147 q 226 113 226 119 q 226 95 226 106 q 224 78 225 84 q 219 65 222 73 q 211 54 216 58 q 200 48 206 51 q 183 46 193 46 q 161 70 167 46 q 155 154 155 95 m 184 -10 q 332 44 279 -10 q 385 200 385 97 q 375 279 385 244 q 342 343 364 315 q 282 387 320 371 q 192 403 244 403 q 134 396 164 403 q 70 371 103 390 q 20 325 37 352 l 47 278 q 97 306 66 295 q 152 316 127 316 q 180 313 169 316 q 203 302 192 310 q 221 276 215 294 q 226 231 226 258 l 226 222 l 14 222 l 14 171 q 54 33 14 76 q 184 -10 93 -10 z "},"ʻ":{"ha":219,"x_min":23,"x_max":196,"o":"m 102 593 l 120 593 l 196 669 l 196 685 l 131 750 q 153 806 137 781 q 184 844 169 831 l 120 867 q 65 804 88 839 q 33 739 43 769 q 23 685 23 709 l 23 669 l 102 593 z "},"ʼ":{"ha":219,"x_min":23,"x_max":196,"o":"m 99 593 q 171 685 146 633 q 196 775 196 736 l 196 791 l 117 867 l 99 867 l 23 791 l 23 775 l 88 709 q 66 654 82 679 q 35 616 50 629 l 99 593 z "},"ʾ":{"ha":185,"x_min":23,"x_max":162,"o":"m 38 456 q 119 481 84 456 q 162 570 161 511 q 155 611 162 593 q 139 640 149 629 q 116 660 130 652 q 91 673 103 669 q 65 681 78 678 q 43 684 51 683 q 28 684 35 684 l 23 684 l 23 620 l 29 621 l 32 621 q 52 618 42 621 q 72 602 63 614 q 81 570 81 590 q 76 544 81 555 q 61 528 70 533 q 44 522 52 524 q 30 520 37 520 l 23 521 l 23 456 l 38 456 z "},"ʿ":{"ha":185,"x_min":23,"x_max":162,"o":"m 162 456 l 162 521 q 155 520 159 520 q 140 522 148 520 q 124 528 133 524 q 109 544 114 533 q 103 570 103 555 q 113 602 103 590 q 132 618 122 614 q 153 621 143 621 l 156 621 l 162 620 l 162 684 l 157 684 q 144 684 151 684 q 126 682 138 683 q 104 677 115 680 q 81 668 94 673 q 59 654 69 663 q 41 634 49 645 q 28 606 32 623 q 23 570 23 590 q 33 522 23 543 q 56 488 42 500 q 88 469 69 476 q 120 459 106 461 q 147 456 134 456 l 162 456 z "},"ˆ":{"ha":297,"x_min":23,"x_max":274,"o":"m 108 447 l 149 515 l 189 447 l 274 447 l 184 600 l 113 600 l 23 447 l 108 447 z "},"ˇ":{"ha":297,"x_min":23,"x_max":274,"o":"m 113 447 l 184 447 l 274 600 l 189 600 l 149 532 l 108 600 l 23 600 l 113 447 z "},"ˈ":{"ha":141,"x_min":23,"x_max":119,"o":"m 23 418 l 118 418 l 118 617 l 23 617 l 23 418 z "},"ˌ":{"ha":141,"x_min":23,"x_max":119,"o":"m 23 -270 l 118 -270 l 118 -71 l 23 -71 l 23 -270 z "},"˘":{"ha":294,"x_min":23,"x_max":271,"o":"m 147 456 q 197 466 175 456 q 233 490 219 475 q 255 522 246 504 q 268 555 264 539 q 271 584 271 571 l 270 600 l 206 600 q 206 593 206 599 q 192 565 206 578 q 147 551 178 551 q 102 565 117 551 q 88 593 88 578 l 88 600 l 24 600 l 24 584 q 26 560 23 573 q 34 533 28 548 q 49 505 39 519 q 72 481 59 492 q 105 463 85 469 q 147 456 124 456 z "},"˙":{"ha":219,"x_min":23,"x_max":196,"o":"m 99 436 l 117 436 l 196 513 l 196 529 l 117 605 l 99 605 l 23 529 l 23 513 l 99 436 z "},"˚":{"ha":248,"x_min":23,"x_max":225,"o":"m 124 504 q 87 520 102 504 q 71 557 71 535 q 87 594 71 578 q 124 611 102 611 q 161 594 145 611 q 177 557 177 578 q 162 520 177 536 q 124 504 146 504 m 53 486 q 68 471 53 486 q 124 456 83 456 q 195 486 165 456 q 225 557 225 515 q 195 628 225 599 q 124 658 166 658 q 53 628 82 658 q 23 557 23 599 q 53 486 23 515 z "},"˛":{"ha":279,"x_min":23,"x_max":256,"o":"m 155 -247 q 217 -230 188 -247 q 256 -201 245 -213 l 238 -131 q 217 -137 235 -134 q 191 -140 199 -140 q 122 -83 122 -140 q 126 -47 122 -63 q 138 -18 130 -30 q 152 1 146 -6 q 167 17 158 8 l 119 17 q 50 -51 76 -11 q 23 -137 23 -91 q 31 -175 23 -156 q 55 -211 39 -194 q 97 -237 71 -227 q 155 -247 123 -247 z "},"˝":{"ha":334,"x_min":23,"x_max":311,"o":"m 138 447 l 200 447 l 311 599 l 207 599 l 138 447 m 23 447 l 85 447 l 177 599 l 74 599 l 23 447 z "},"̀":{"ha":0,"x_min":-142,"x_max":45,"o":"m -31 447 l 45 447 l -20 600 l -142 600 l -31 447 z "},"́":{"ha":0,"x_min":-38,"x_max":148,"o":"m -38 447 l 38 447 l 148 600 l 26 600 l -38 447 z "},"̂":{"ha":0,"x_min":-125,"x_max":125,"o":"m -41 447 l 0 515 l 41 447 l 125 447 l 36 600 l -36 600 l -125 447 l -41 447 z "},"̃":{"ha":0,"x_min":-168,"x_max":168,"o":"m -104 452 l -104 465 q -97 493 -104 481 q -76 504 -90 504 q -9 478 -61 504 q 68 453 44 453 q 143 480 119 453 q 168 574 168 507 l 168 602 l 104 602 l 104 590 q 74 550 104 550 q 45 558 62 550 q 14 576 29 566 q -23 594 0 586 q -67 602 -45 602 q -104 596 -87 602 q -135 578 -120 591 q -159 541 -150 565 q -168 481 -168 516 l -168 452 l -104 452 z "},"̄":{"ha":0,"x_min":-137,"x_max":138,"o":"m -137 475 l 138 475 l 138 581 l -137 581 l -137 475 z "},"̅":{"ha":612,"x_min":65,"x_max":547,"o":"m 65 660 l 547 660 l 547 754 l 65 754 l 65 660 z "},"̆":{"ha":0,"x_min":-124,"x_max":125,"o":"m -49 466 q -38 461 -49 466 q 0 456 -27 456 q 50 466 28 456 q 86 490 73 475 q 109 522 100 504 q 121 555 118 539 q 124 584 125 571 l 124 600 l 59 600 q 60 593 60 597 q 45 565 60 578 q 0 551 31 551 q -44 565 -30 551 q -59 593 -59 578 l -58 600 l -123 600 l -123 584 q -120 555 -124 571 q -108 522 -117 539 q -85 490 -99 504 q -49 466 -72 475 z "},"̇":{"ha":0,"x_min":-84,"x_max":89,"o":"m -8 436 l 10 436 l 89 513 l 89 529 l 10 605 l -8 605 l -84 529 l -84 513 l -8 436 z "},"̈":{"ha":0,"x_min":-166,"x_max":167,"o":"m -98 452 l -83 452 l -12 520 l -12 534 l -83 602 l -98 602 l -166 534 l -166 520 l -98 452 m 80 452 l 96 452 l 166 520 l 166 534 l 96 602 l 80 602 l 13 534 l 13 520 l 80 452 z "},"̉":{"ha":0,"x_min":-112,"x_max":127,"o":"m -67 452 q 110 509 72 452 q 127 573 127 535 q 78 677 127 638 q -54 717 29 717 q -112 713 -86 717 l -112 667 q -62 655 -85 663 q -17 637 -38 648 q 16 609 4 626 q 28 572 28 593 q 3 525 28 542 q -66 509 -22 509 q -95 510 -85 509 l -67 452 z "},"̊":{"ha":0,"x_min":-101,"x_max":101,"o":"m 0 504 q -37 520 -22 504 q -53 557 -53 535 q -37 594 -53 578 q 0 611 -22 611 q 37 594 21 611 q 53 557 53 578 q 38 520 53 536 q 0 504 22 504 m -71 486 q -56 471 -71 486 q 0 456 -41 456 q 71 486 41 456 q 101 557 101 515 q 71 628 101 599 q 0 658 42 658 q -71 628 -42 658 q -101 557 -101 599 q -71 486 -101 515 z "},"̋":{"ha":0,"x_min":-120,"x_max":214,"o":"m 41 447 l 103 447 l 213 599 l 110 599 l 41 447 m -120 447 l -58 447 l 34 599 l -69 599 l -120 447 z "},"̌":{"ha":0,"x_min":-125,"x_max":125,"o":"m -36 447 l 36 447 l 125 600 l 41 600 l 0 532 l -41 600 l -125 600 l -36 447 z "},"̏":{"ha":0,"x_min":-186,"x_max":103,"o":"m -75 447 l -12 447 l -82 599 l -185 599 l -75 447 m 40 447 l 102 447 l 51 599 l -52 599 l 40 447 z "},"̒":{"ha":0,"x_min":-95,"x_max":78,"o":"m -15 432 l 2 432 l 78 508 l 78 524 l 13 590 q 35 645 19 620 q 66 683 51 670 l 2 706 q -70 614 -45 666 q -94 524 -94 563 l -94 508 l -15 432 z "},"̓":{"ha":0,"x_min":-95,"x_max":78,"o":"m -19 593 q 53 685 29 633 q 78 775 78 736 l 78 791 l -1 867 l -19 867 l -94 791 l -94 775 l -29 709 q -51 654 -35 679 q -82 616 -67 629 l -19 593 z "},"̕":{"ha":0,"x_min":-38,"x_max":102,"o":"m -38 401 l 38 401 l 102 601 l -20 601 l -38 401 z "},"̣":{"ha":0,"x_min":-87,"x_max":87,"o":"m -10 -210 l 7 -210 l 87 -134 l 87 -118 l 7 -42 l -10 -42 l -86 -118 l -86 -134 l -10 -210 z "},"̤":{"ha":0,"x_min":-166,"x_max":167,"o":"m -98 -212 l -83 -212 l -12 -144 l -12 -130 l -83 -62 l -98 -62 l -166 -130 l -166 -144 l -98 -212 m 80 -212 l 96 -212 l 166 -144 l 166 -130 l 96 -62 l 80 -62 l 13 -130 l 13 -144 l 80 -212 z "},"̥":{"ha":0,"x_min":-101,"x_max":101,"o":"m 0 -241 q -37 -225 -22 -241 q -53 -188 -53 -210 q -37 -150 -53 -167 q 0 -134 -22 -134 q 37 -150 21 -134 q 53 -188 53 -167 q 38 -225 53 -209 q 0 -241 22 -241 m -71 -259 q -56 -274 -71 -259 q 0 -288 -41 -288 q 71 -259 41 -288 q 101 -188 101 -230 q 71 -117 101 -146 q 0 -87 42 -87 q -71 -117 -42 -87 q -101 -188 -101 -146 q -71 -259 -101 -230 z "},"̦":{"ha":0,"x_min":-95,"x_max":78,"o":"m -19 -330 q 53 -238 29 -289 q 78 -148 78 -187 l 78 -131 l -1 -56 l -19 -56 l -94 -131 l -94 -148 l -29 -213 q -44 -255 -33 -235 q -64 -287 -55 -275 q -82 -306 -74 -299 l -19 -330 z "},"̧":{"ha":0,"x_min":-110,"x_max":88,"o":"m -40 -247 q 19 -238 -8 -247 q 67 -207 47 -230 q 88 -151 88 -184 q 86 -134 88 -142 q 84 -120 85 -126 q 79 -108 83 -114 q 74 -98 76 -102 q 67 -89 73 -94 q 60 -82 62 -84 q 52 -76 59 -81 q 44 -71 45 -71 q 35 -66 43 -70 q 27 -61 27 -61 l 49 11 l -33 11 l -81 -79 l -66 -79 q -36 -90 -50 -80 q -22 -117 -22 -100 q -36 -149 -22 -138 q -74 -160 -51 -160 q -105 -155 -89 -160 l -109 -228 q -40 -247 -77 -247 z "},"̨":{"ha":0,"x_min":-74,"x_max":159,"o":"m 58 -247 q 120 -230 91 -247 q 159 -201 149 -213 l 142 -131 q 120 -137 138 -134 q 94 -140 102 -140 q 25 -83 25 -140 q 29 -47 25 -63 q 41 -18 33 -30 q 55 1 49 -6 q 70 17 61 8 l 22 17 q -47 -51 -21 -11 q -74 -137 -74 -91 q -66 -175 -74 -156 q -42 -211 -57 -194 q 0 -237 -26 -227 q 58 -247 26 -247 z "},"̮":{"ha":0,"x_min":-124,"x_max":124,"o":"m -50 -184 q -39 -189 -50 -184 q 0 -194 -27 -194 q 50 -184 27 -194 q 86 -161 72 -175 q 108 -129 99 -147 q 121 -95 117 -111 q 124 -67 124 -80 l 123 -51 l 59 -51 q 59 -57 59 -52 q 45 -86 59 -72 q 0 -100 31 -100 q -45 -86 -31 -100 q -59 -57 -59 -72 l -59 -51 l -123 -51 l -124 -67 q -121 -95 -124 -80 q -108 -129 -117 -111 q -86 -161 -99 -147 q -50 -184 -72 -175 z "},"̱":{"ha":0,"x_min":-137,"x_max":138,"o":"m -137 -171 l 138 -171 l 138 -65 l -137 -65 l -137 -171 z "},"؀":{"ha":1427,"x_min":28,"x_max":1390,"o":"m 138 -135 l 1208 -135 q 1337 -82 1283 -135 q 1390 47 1390 -29 l 1390 202 q 1355 287 1390 252 q 1270 322 1319 322 l 1185 322 q 1217 364 1199 344 q 1253 396 1236 383 q 1286 419 1270 409 q 1311 433 1301 429 l 1320 438 l 1320 481 l 1183 481 q 1104 448 1137 481 q 1071 369 1071 415 l 1071 198 q 1082 159 1071 177 q 1110 130 1092 141 q 1150 120 1129 120 l 1308 120 q 1288 82 1308 97 q 1223 67 1268 67 l 28 67 l 138 -135 z "},"؁":{"ha":2882,"x_min":32,"x_max":2840,"o":"m 363 -145 q 438 -119 405 -145 q 481 -55 470 -94 q 525 -119 493 -94 q 600 -145 558 -145 l 2351 -145 q 2405 -136 2382 -145 q 2438 -113 2427 -126 q 2455 -87 2449 -100 q 2463 -64 2462 -73 l 2463 -55 q 2465 -64 2464 -58 q 2472 -86 2466 -70 q 2487 -113 2478 -101 q 2515 -135 2496 -125 q 2556 -145 2533 -145 q 2581 -140 2570 -145 q 2601 -127 2593 -135 q 2615 -109 2608 -119 q 2625 -90 2621 -100 q 2631 -73 2629 -81 q 2634 -60 2633 -65 l 2635 -55 q 2636 -59 2635 -56 q 2638 -71 2636 -62 q 2644 -88 2640 -80 q 2655 -106 2648 -96 q 2672 -122 2663 -115 q 2698 -134 2682 -129 q 2732 -139 2713 -139 q 2775 -131 2756 -139 q 2806 -110 2794 -123 q 2826 -81 2818 -97 q 2837 -48 2834 -64 q 2840 -15 2840 -31 l 2840 124 q 2838 149 2840 136 q 2832 172 2835 162 q 2824 193 2828 183 q 2815 211 2819 204 q 2807 225 2811 219 q 2801 234 2804 231 q 2799 237 2799 237 l 2707 165 q 2745 114 2734 139 q 2745 73 2755 89 q 2706 57 2735 57 q 2684 65 2693 57 q 2673 83 2676 72 q 2669 104 2670 94 q 2669 123 2668 115 l 2669 131 l 2600 131 q 2601 111 2599 128 q 2592 76 2603 95 q 2558 57 2581 57 q 2535 65 2544 57 q 2523 83 2526 72 q 2519 104 2520 94 q 2518 123 2517 115 l 2518 131 l 2450 131 l 2450 76 q 2421 57 2450 57 l 507 57 q 490 77 490 57 l 490 131 l 422 131 l 422 76 q 394 57 422 57 l 327 57 q 303 61 313 57 q 288 70 294 64 q 280 84 283 75 q 277 100 277 93 q 276 117 276 107 l 276 223 q 193 209 231 223 q 130 174 155 195 q 87 125 106 153 q 58 73 68 98 q 42 25 48 48 q 34 -10 36 1 q 32 -24 32 -22 l 46 -105 l 96 -105 q 99 -40 94 -72 q 118 20 105 -7 q 152 64 131 47 q 201 81 174 81 l 201 -21 q 240 -111 201 -74 q 325 -145 276 -145 l 363 -145 z "},"؂":{"ha":1238,"x_min":41,"x_max":1210,"o":"m 132 58 q 139 67 135 62 q 157 85 144 72 q 181 109 169 99 q 209 128 194 119 q 235 136 224 136 q 272 95 272 136 q 258 68 272 77 q 229 58 244 58 l 132 58 m 149 -144 l 1100 -144 l 1210 58 l 331 58 l 331 92 q 324 144 331 120 q 302 185 317 167 q 261 214 287 204 q 199 225 234 225 q 86 173 131 225 q 41 43 41 122 l 41 -19 q 44 -46 41 -33 q 51 -74 46 -60 q 65 -100 56 -88 q 85 -123 73 -113 q 113 -138 96 -132 q 149 -144 130 -144 z "},"؃":{"ha":1518,"x_min":28,"x_max":1477,"o":"m 895 -144 q 947 -133 923 -144 q 989 -101 972 -121 q 1013 -55 1006 -81 q 1057 -119 1025 -94 q 1131 -144 1090 -144 l 1279 -144 q 1348 -136 1319 -144 q 1395 -115 1377 -127 q 1426 -76 1413 -102 q 1447 -27 1440 -50 q 1464 37 1454 -5 q 1474 91 1471 65 q 1474 144 1477 117 q 1460 191 1471 172 q 1426 224 1450 211 q 1368 237 1402 237 q 1293 218 1332 237 q 1220 173 1253 200 q 1158 121 1188 147 q 1105 76 1129 95 q 1069 58 1081 58 q 1053 64 1059 58 q 1047 77 1047 69 l 1047 131 l 979 131 l 979 77 q 950 57 979 57 l 28 57 l 138 -144 l 895 -144 m 1167 57 q 1176 67 1170 61 q 1199 88 1182 73 q 1232 116 1216 104 q 1267 137 1248 127 q 1302 147 1287 147 q 1332 138 1318 147 q 1353 115 1345 128 q 1367 89 1361 102 q 1374 67 1372 76 l 1376 57 l 1167 57 z "},"؆":{"ha":583,"x_min":0,"x_max":532,"o":"m 351 430 q 352 493 351 430 q 352 539 353 520 q 376 533 362 533 q 387 535 381 533 q 396 540 392 537 q 402 546 399 543 q 405 551 404 549 l 407 553 q 408 551 407 552 q 411 547 408 550 q 417 542 414 544 q 428 538 421 540 q 442 536 434 536 q 489 601 489 536 l 489 681 l 458 681 l 458 644 q 453 631 458 636 q 440 626 447 626 q 427 631 432 626 q 422 644 422 636 l 422 681 l 391 681 l 391 644 q 390 635 391 639 q 384 628 388 631 q 373 625 379 625 q 342 646 353 626 q 329 681 334 659 l 264 625 q 284 567 275 600 q 296 504 292 534 q 301 449 299 475 q 303 408 303 423 l 303 393 l 351 430 m 244 0 l 390 0 l 484 281 l 532 281 l 532 368 l 353 368 l 284 160 l 110 683 l 0 683 l 0 597 l 45 597 l 244 0 z "},"؇":{"ha":583,"x_min":0,"x_max":532,"o":"m 411 395 l 449 459 l 432 459 q 388 465 406 459 q 364 483 369 471 q 365 500 360 491 l 398 558 q 404 571 403 566 q 404 579 406 575 q 399 584 403 582 q 392 588 396 587 q 379 591 388 589 q 375 593 378 592 q 366 596 373 593 q 355 601 360 598 q 346 607 351 603 q 342 614 342 610 q 352 629 341 623 q 373 636 362 636 q 385 634 379 636 q 395 630 391 632 q 402 625 399 627 q 407 620 405 622 l 408 619 l 441 662 q 438 664 440 663 q 431 670 436 666 q 419 676 425 673 q 404 681 413 679 q 388 683 396 683 q 368 681 377 683 q 352 676 358 679 q 341 668 347 673 q 333 661 336 664 q 328 654 331 658 l 293 607 q 281 585 284 595 q 281 566 278 575 q 299 545 285 553 q 332 532 312 536 l 304 482 q 302 479 304 481 q 298 471 300 474 q 295 464 297 468 q 292 457 293 459 q 291 451 292 454 q 291 444 290 447 q 292 438 291 441 q 334 406 298 418 q 371 397 352 400 q 401 395 391 394 l 411 395 m 244 0 l 390 0 l 484 281 l 532 281 l 532 368 l 353 368 l 284 160 l 110 683 l 0 683 l 0 597 l 45 597 l 244 0 z "},"؈":{"ha":853,"x_min":51,"x_max":803,"o":"m 399 -266 q 595 -175 539 -266 q 623 -79 623 -131 l 623 0 l 744 0 l 803 202 l 623 202 q 574 322 618 275 q 466 368 530 368 q 365 331 396 368 q 333 235 333 295 l 333 106 q 368 30 333 60 q 434 5 396 5 l 541 5 q 390 -61 523 -61 q 336 -56 361 -61 q 290 -36 311 -50 q 257 -2 268 -23 q 250 51 246 18 q 273 124 253 83 l 134 124 l 54 61 l 51 -32 l 168 59 q 153 -17 156 21 q 157 -91 150 -55 q 183 -159 164 -127 q 231 -215 202 -191 q 303 -252 259 -238 q 399 -266 346 -266 m 392 239 q 429 280 392 280 q 473 260 447 280 q 515 221 499 241 l 532 202 l 435 202 q 406 211 420 202 q 392 239 392 220 z "},"؉":{"ha":787,"x_min":56,"x_max":732,"o":"m 145 383 l 165 383 l 257 472 l 257 491 l 165 579 l 145 579 l 56 491 l 56 472 l 145 383 m 436 1 l 456 1 l 548 90 l 548 109 l 456 197 l 436 197 l 347 109 l 347 90 l 436 1 m 619 1 l 640 1 l 731 90 l 731 109 l 640 197 l 619 197 l 531 109 l 531 90 l 619 1 m 150 0 l 273 0 l 453 597 l 331 597 l 150 0 z "},"؊":{"ha":972,"x_min":56,"x_max":917,"o":"m 145 383 l 165 383 l 257 472 l 257 491 l 165 579 l 145 579 l 56 491 l 56 472 l 145 383 m 436 1 l 456 1 l 548 90 l 548 109 l 456 197 l 436 197 l 347 109 l 347 90 l 436 1 m 619 1 l 640 1 l 731 90 l 731 109 l 640 197 l 619 197 l 531 109 l 531 90 l 619 1 m 805 1 l 825 1 l 917 90 l 917 109 l 825 197 l 805 197 l 716 109 l 716 90 l 805 1 m 150 0 l 273 0 l 453 597 l 331 597 l 150 0 z "},"؋":{"ha":561,"x_min":51,"x_max":510,"o":"m 279 419 q 316 459 279 459 q 360 440 334 459 q 402 401 386 420 l 419 381 l 322 381 q 293 391 307 381 q 279 419 279 400 m 119 0 l 402 0 q 445 8 426 0 q 476 29 464 16 q 496 58 488 42 q 507 91 504 75 q 510 124 510 108 l 510 366 q 465 496 510 445 q 353 548 420 548 q 252 511 283 548 q 220 415 220 475 l 220 312 q 250 250 220 274 q 299 233 271 233 l 413 233 q 425 228 420 233 q 429 217 429 224 q 425 206 429 211 q 413 202 420 202 l 51 202 l 119 0 z "},"،":{"ha":192,"x_min":7,"x_max":181,"o":"m 87 0 l 104 0 l 180 76 l 180 93 l 115 158 q 130 200 119 180 q 150 232 140 220 q 168 251 159 244 l 104 275 q 32 183 57 234 q 7 93 7 131 l 7 76 l 87 0 z "},"؍":{"ha":372,"x_min":51,"x_max":322,"o":"m 51 -300 l 174 -300 l 322 202 l 199 202 l 51 -300 z "},"؎":{"ha":658,"x_min":-352,"x_max":817,"o":"m -261 58 q -254 67 -258 62 q -236 85 -249 72 q -212 109 -224 99 q -184 128 -200 119 q -158 136 -169 136 q -121 95 -121 136 q -135 68 -121 77 q -164 58 -149 58 l -261 58 m -244 -144 l 706 -144 l 817 58 l -62 58 l -62 92 q -69 144 -62 120 q -91 185 -76 167 q -132 214 -106 204 q -194 225 -159 225 q -307 173 -262 225 q -352 43 -352 122 l -352 -19 q -349 -52 -352 -36 q -337 -85 -345 -68 q -317 -115 -329 -102 q -287 -135 -306 -127 q -244 -144 -268 -144 z "},"؏":{"ha":699,"x_min":51,"x_max":649,"o":"m 313 -21 q 318 -16 315 -19 q 334 -5 322 -13 q 362 8 347 2 q 403 19 377 14 q 456 24 428 24 q 532 2 505 24 q 560 -47 560 -19 q 531 -106 560 -81 q 446 -131 501 -131 q 389 -121 414 -131 q 349 -93 364 -110 q 325 -58 334 -75 q 313 -21 317 -40 m 649 -13 q 603 86 649 50 q 482 121 557 121 q 324 83 407 120 q 410 170 349 139 q 565 194 471 200 l 615 319 q 444 306 521 306 q 395 316 416 306 q 365 341 375 326 q 350 370 356 355 q 344 394 344 384 l 344 405 q 393 431 364 426 q 447 422 422 436 q 472 400 458 415 q 496 372 487 385 l 505 360 l 608 406 q 593 431 608 406 q 479 522 542 504 q 442 527 461 527 q 415 526 428 527 q 391 521 402 524 q 372 514 381 517 q 355 505 363 511 q 342 495 347 499 q 331 485 337 492 q 323 476 325 478 q 316 466 320 473 q 310 459 311 460 l 252 369 q 223 315 231 339 q 219 274 215 291 q 234 246 224 257 q 261 223 244 234 q 107 -47 92 124 l 51 -97 l 51 -247 l 150 -158 q 356 -249 215 -249 q 481 -226 424 -249 q 574 -168 538 -203 q 629 -92 609 -133 q 649 -13 649 -51 z "},"ؐ":{"ha":214,"x_min":23,"x_max":192,"o":"m 68 829 q 69 869 68 830 q 92 859 78 863 q 115 856 106 856 l 124 856 q 163 865 148 855 q 177 881 171 871 q 185 900 183 892 l 188 908 q 191 941 191 925 q 183 970 192 958 q 157 982 175 982 q 116 972 134 983 q 82 939 99 960 q 67 919 73 928 q 63 958 65 942 q 59 978 61 974 l 57 982 q 23 948 23 949 q 38 884 33 920 q 41 827 42 849 l 40 806 l 68 829 m 142 949 q 159 941 154 949 q 161 924 163 932 l 159 916 l 92 916 q 105 932 100 926 q 120 943 110 938 q 142 949 130 949 z "},"ؑ":{"ha":227,"x_min":23,"x_max":204,"o":"m 79 821 q 80 872 79 821 q 80 880 80 876 q 78 905 80 880 q 150 872 101 875 l 183 872 l 197 906 l 169 906 q 125 920 140 906 q 121 937 114 929 q 136 944 128 943 q 152 942 145 946 q 160 935 156 940 q 166 925 164 930 l 169 921 l 204 937 q 194 950 204 937 q 151 974 173 974 q 119 956 138 974 q 94 922 94 930 q 77 943 84 930 q 67 965 69 956 l 65 974 q 23 938 23 938 q 40 875 34 910 q 47 819 46 840 l 48 797 l 79 821 z "},"ؒ":{"ha":231,"x_min":23,"x_max":209,"o":"m 23 801 l 86 801 q 99 829 90 817 q 120 849 108 842 q 146 861 131 856 q 171 867 160 865 q 194 869 183 869 l 208 913 l 192 913 q 123 929 156 913 q 98 941 99 941 q 81 945 90 945 q 38 907 57 945 q 39 878 31 893 l 46 866 l 59 875 q 56 883 59 875 q 75 896 55 895 q 76 896 75 896 q 95 892 83 896 q 115 884 107 888 l 123 880 q 115 878 120 880 q 95 871 109 877 q 68 857 80 865 q 42 834 56 849 q 23 801 29 819 z "},"ؓ":{"ha":302,"x_min":23,"x_max":280,"o":"m 93 971 l 98 971 l 120 993 l 120 998 l 98 1019 l 93 1019 l 71 998 l 71 993 l 93 971 m 68 820 q 69 860 68 821 q 92 850 78 853 q 115 846 106 846 l 124 846 q 163 856 148 845 q 177 872 171 862 q 185 891 183 883 l 188 899 q 191 932 191 916 q 183 961 192 949 q 157 973 175 973 q 116 962 134 974 q 82 930 99 951 q 67 909 73 919 q 63 949 65 933 q 59 969 61 965 l 57 973 q 23 939 23 939 q 38 875 33 911 q 41 818 42 839 l 40 796 l 68 820 m 142 940 q 159 931 154 940 q 161 915 163 923 l 159 906 l 92 906 q 105 922 100 917 q 120 934 110 928 q 142 940 130 940 m 229 812 q 246 819 238 812 q 260 837 254 826 q 271 861 266 848 q 277 887 275 875 q 280 907 280 898 q 278 927 280 918 q 273 944 276 937 q 267 957 271 951 q 260 967 264 963 q 254 974 257 971 q 250 978 252 977 l 248 979 l 221 935 q 230 927 221 935 q 250 897 250 907 q 234 878 250 890 q 196 855 218 866 q 157 842 174 845 l 157 834 q 182 824 157 834 q 229 812 217 812 z "},"ؔ":{"ha":367,"x_min":23,"x_max":344,"o":"m 256 801 q 290 810 274 801 q 315 834 305 820 q 331 861 325 847 q 342 884 338 875 l 344 894 l 320 894 l 320 894 q 319 891 319 893 q 316 886 319 890 q 312 878 314 882 q 306 870 310 875 q 297 863 301 866 q 286 857 292 859 q 272 855 279 855 q 251 865 259 855 q 242 884 244 874 l 241 894 l 217 894 q 205 864 217 873 q 173 855 194 855 l 23 855 l 73 801 l 194 801 q 222 814 212 801 q 256 801 237 801 z "},"ؕ":{"ha":0,"x_min":74,"x_max":247,"o":"m 215 1263 l 148 1263 q 161 1278 156 1273 q 176 1290 166 1284 q 198 1296 186 1296 q 215 1288 210 1296 q 217 1271 219 1279 l 215 1263 m 91 1206 l 183 1206 q 202 1208 194 1206 q 216 1213 210 1209 q 227 1221 222 1217 q 234 1233 231 1226 q 239 1246 237 1239 q 243 1262 241 1253 q 246 1296 246 1280 q 238 1324 247 1313 q 213 1336 230 1336 q 170 1324 190 1337 q 137 1288 150 1311 l 136 1327 l 150 1336 l 138 1381 l 91 1348 l 98 1263 l 74 1263 l 91 1206 z "},"ؖ":{"ha":336,"x_min":23,"x_max":313,"o":"m 236 801 l 267 859 l 81 854 q 66 858 74 854 q 52 869 57 863 q 46 882 46 875 q 54 900 46 894 q 72 906 61 906 l 110 906 q 126 904 120 906 q 134 899 131 902 q 139 894 136 896 q 147 889 141 891 q 163 887 153 887 l 196 887 q 227 905 217 887 q 232 923 232 913 l 232 992 l 245 1001 l 230 1059 l 188 1025 q 184 1007 179 1018 q 206 957 189 994 q 195 945 211 945 l 99 945 q 45 926 67 945 q 23 876 23 907 q 47 823 23 844 q 109 801 70 801 l 236 801 m 269 887 l 298 911 l 301 993 l 313 1001 l 298 1059 l 267 1034 q 257 1011 256 1025 l 269 887 z "},"ؗ":{"ha":159,"x_min":23,"x_max":136,"o":"m 89 1204 q 108 1214 101 1204 q 123 1244 116 1225 q 136 1304 136 1276 q 128 1343 136 1326 q 114 1366 121 1360 l 107 1372 l 81 1331 q 96 1316 81 1331 q 108 1295 108 1302 q 78 1266 108 1284 q 23 1243 48 1248 l 23 1229 q 61 1212 23 1229 q 89 1204 81 1204 m 104 1388 l 108 1388 l 127 1406 l 127 1409 l 108 1427 l 104 1427 l 87 1409 l 87 1406 l 104 1388 z "},"ؘ":{"ha":0,"x_min":155,"x_max":298,"o":"m 155 801 l 201 801 l 298 949 l 215 949 l 155 801 z "},"ؙ":{"ha":231,"x_min":38,"x_max":183,"o":"m 146 872 q 182 868 165 868 l 182 925 l 168 928 q 177 972 179 953 q 166 1001 175 990 q 143 1015 157 1012 q 90 992 116 1021 q 63 936 64 964 q 109 884 62 902 q 38 847 88 848 l 38 800 q 88 815 67 806 q 123 838 109 824 q 146 872 138 852 m 123 978 q 139 968 134 979 q 138 936 144 957 q 134 937 137 937 q 126 940 132 938 q 115 944 119 942 q 106 951 110 947 q 103 961 103 956 q 109 972 104 967 q 123 978 115 977 z "},"ؚ":{"ha":0,"x_min":187,"x_max":355,"o":"m 187 -541 l 233 -541 l 331 -393 l 247 -393 l 187 -541 z "},"؛":{"ha":202,"x_min":7,"x_max":180,"o":"m 87 206 l 104 206 l 180 282 l 180 298 l 115 364 q 130 406 119 385 q 150 438 140 426 q 168 457 159 449 l 104 481 q 32 388 57 440 q 7 298 7 337 l 7 282 l 87 206 m 83 0 l 101 0 l 180 77 l 180 93 l 101 169 l 83 169 l 7 93 l 7 77 l 83 0 z "},"؞":{"ha":353,"x_min":48,"x_max":309,"o":"m 123 -15 l 178 38 l 232 -15 l 246 -15 l 309 46 l 309 59 l 246 119 l 232 119 l 178 66 l 123 119 l 109 119 l 48 59 l 48 46 l 109 -15 l 123 -15 m 170 94 l 184 94 l 248 156 l 248 169 l 184 229 l 170 229 l 110 169 l 110 156 l 170 94 z "},"؟":{"ha":393,"x_min":42,"x_max":364,"o":"m 190 0 l 208 0 l 284 76 l 284 92 l 208 168 l 190 168 l 111 92 l 111 76 l 190 0 m 239 222 q 250 273 250 241 q 225 346 250 289 q 200 419 200 403 q 213 457 200 445 q 249 469 226 469 q 281 459 265 469 q 301 431 296 448 l 364 469 q 343 502 355 488 q 313 531 331 517 q 267 551 294 544 q 206 559 240 559 q 42 428 42 559 q 54 385 42 408 q 84 342 67 362 q 120 302 102 321 q 151 266 138 283 q 163 236 163 248 q 162 228 163 231 l 160 222 l 239 222 z "},"ؠ":{"ha":627,"x_min":1,"x_max":576,"o":"m 344 -264 q 338 -270 344 -264 q 316 -275 332 -275 q 288 -264 300 -275 q 277 -236 277 -252 q 288 -208 277 -220 q 316 -197 300 -197 q 344 -208 332 -197 q 356 -236 356 -220 q 344 -264 356 -252 m 265 -287 q 276 -297 265 -287 q 316 -307 287 -307 q 367 -287 346 -307 q 388 -236 388 -266 q 367 -185 388 -206 q 316 -164 346 -164 q 265 -185 287 -164 q 244 -236 244 -206 q 265 -287 244 -266 m 304 -135 l 394 -135 q 485 -111 444 -135 q 552 -45 527 -87 q 576 47 576 -3 l 576 202 q 541 287 576 252 q 456 322 506 322 l 371 322 q 403 364 385 344 q 439 396 422 383 q 472 419 456 409 q 497 433 488 429 l 506 438 l 506 481 l 369 481 q 290 448 323 481 q 257 369 257 415 l 257 198 q 280 143 257 166 q 336 120 303 120 l 495 120 q 474 78 494 96 q 409 59 453 59 l 288 59 q 243 63 264 59 q 202 76 222 68 q 170 100 182 85 q 151 134 157 115 q 151 182 145 154 q 173 244 156 211 l 97 244 q 68 182 79 214 q 53 117 57 150 q 53 54 49 85 q 68 -5 57 23 q 101 -57 80 -33 q 150 -98 122 -81 q 218 -125 178 -116 q 304 -135 257 -135 z "},"ء":{"ha":263,"x_min":23,"x_max":239,"o":"m 239 156 l 239 221 q 121 231 179 210 q 93 249 101 239 q 94 269 85 259 q 116 281 103 279 q 141 277 130 284 q 153 266 146 275 q 165 252 161 258 l 170 245 l 224 269 q 219 275 222 271 q 208 289 217 279 q 189 306 199 299 q 166 320 180 314 q 139 326 152 326 q 117 324 127 326 q 102 318 107 321 q 90 309 97 316 q 83 302 84 303 q 78 295 82 301 l 33 231 q 24 211 25 219 q 26 197 23 202 q 36 185 29 191 q 69 157 51 170 q 97 139 88 144 l 107 134 l 23 70 l 23 0 l 239 156 z "},"آ":{"ha":251,"x_min":-28,"x_max":294,"o":"m 294 635 l 284 682 q 218 666 250 669 q 164 664 186 662 q 121 674 142 666 q 91 685 99 681 q 75 695 83 690 q 73 697 73 696 q 3 671 35 719 l -28 626 l 2 597 l 22 628 q 49 614 22 628 q 219 595 141 574 q 294 635 260 606 m 70 0 l 178 82 l 187 432 l 226 461 l 177 631 l 71 544 q 45 508 54 529 q 38 464 36 487 l 70 0 z "},"أ":{"ha":274,"x_min":55,"x_max":247,"o":"m 209 689 l 209 735 q 121 742 164 727 q 100 754 106 747 q 100 769 94 761 q 118 777 108 775 q 136 774 127 779 q 145 767 140 772 q 154 756 151 761 l 157 752 l 197 769 q 194 773 196 770 q 185 782 192 775 q 172 794 179 789 q 155 804 165 800 q 134 808 144 808 q 89 786 111 808 q 57 734 57 754 q 73 698 57 714 q 104 677 88 682 l 119 671 l 56 626 l 56 581 l 209 689 m 90 0 l 198 82 l 207 432 l 246 461 l 198 631 l 92 544 q 65 508 74 529 q 58 464 56 487 l 90 0 z "},"ؤ":{"ha":401,"x_min":-60,"x_max":350,"o":"m 276 519 l 276 564 q 194 572 234 557 q 174 584 180 577 q 174 598 168 591 q 190 607 181 605 q 208 604 200 608 q 216 596 212 602 q 225 586 221 591 l 228 581 l 265 598 q 262 602 264 600 q 254 612 260 605 q 241 624 248 619 q 225 634 235 629 q 206 638 215 638 q 163 616 184 638 q 133 563 133 584 q 148 528 133 544 q 178 506 163 512 l 192 500 l 132 456 l 133 410 l 276 519 m 154 280 q 180 272 165 280 q 207 252 194 263 q 232 229 220 241 q 250 210 243 218 l 256 202 l 160 202 q 130 211 144 202 q 116 239 116 220 q 154 280 116 280 m 231 -257 q 271 -216 250 -248 q 309 -137 291 -184 q 339 -24 327 -90 q 350 111 350 42 q 348 166 350 139 q 338 223 345 193 q 319 278 331 253 q 290 324 307 303 q 247 356 273 344 q 190 368 221 368 q 89 331 120 368 q 57 235 57 295 l 57 101 q 87 30 57 59 q 159 0 117 0 l 245 0 q 198 -46 234 -21 q 120 -90 163 -70 q 36 -126 78 -110 q -32 -152 -5 -143 l -60 -162 l -60 -188 q 124 -247 -60 -188 q 231 -257 201 -271 z "},"إ":{"ha":267,"x_min":49,"x_max":240,"o":"m 207 -160 l 207 -114 q 125 -107 165 -122 q 105 -95 111 -102 q 105 -81 99 -88 q 121 -72 112 -74 q 139 -75 131 -70 q 147 -82 143 -77 q 156 -93 152 -88 l 159 -97 l 196 -81 q 193 -76 195 -79 q 185 -67 191 -74 q 172 -55 179 -60 q 156 -45 166 -50 q 137 -41 146 -41 q 94 -63 115 -41 q 64 -115 64 -95 q 79 -151 64 -135 q 109 -172 94 -167 l 123 -178 l 63 -223 l 64 -269 l 207 -160 m 84 0 l 192 82 l 201 432 l 240 461 l 191 631 l 85 544 q 59 508 68 529 q 51 464 50 487 l 84 0 z "},"ئ":{"ha":639,"x_min":13,"x_max":588,"o":"m 211 365 l 211 411 q 128 418 169 403 q 108 430 114 423 q 108 444 102 437 q 125 453 115 451 q 142 450 134 455 q 151 443 146 448 q 159 432 156 437 l 162 428 l 200 444 q 197 449 199 446 q 188 458 194 451 q 175 470 182 465 q 159 480 169 475 q 140 484 150 484 q 98 462 118 484 q 68 410 68 430 q 82 374 68 390 q 112 353 97 358 l 126 347 l 67 302 l 67 256 l 211 365 m 317 -135 l 406 -135 q 498 -111 456 -135 q 564 -45 540 -87 q 588 47 588 -3 l 588 202 q 553 287 588 252 q 469 322 518 322 l 384 322 q 416 364 397 344 q 452 396 435 383 q 484 419 469 409 q 509 433 500 429 l 519 438 l 519 481 l 381 481 q 303 448 335 481 q 270 369 270 415 l 270 198 q 293 143 270 166 q 349 120 316 120 l 507 120 q 486 78 507 96 q 421 59 465 59 l 300 59 q 255 63 276 59 q 215 76 234 68 q 182 100 195 85 q 164 134 169 115 q 163 182 158 154 q 186 244 169 211 l 110 244 q 81 182 92 214 q 65 117 69 150 q 65 54 61 85 q 81 -5 69 23 q 113 -57 92 -33 q 163 -98 134 -81 q 230 -125 191 -116 q 317 -135 269 -135 z "},"ا":{"ha":267,"x_min":49,"x_max":240,"o":"m 84 0 l 192 82 l 201 432 l 240 461 l 191 631 l 85 544 q 59 508 68 529 q 51 464 50 487 l 84 0 z "},"ب":{"ha":744,"x_min":49,"x_max":694,"o":"m 363 -173 l 377 -173 l 440 -112 l 440 -99 l 377 -38 l 363 -38 l 302 -99 l 302 -112 l 363 -173 m 191 0 l 577 0 q 660 34 625 0 q 694 117 694 69 l 694 258 q 689 296 694 276 q 678 330 685 315 q 665 357 672 345 q 654 375 658 369 q 649 382 649 382 l 544 299 q 555 289 548 295 q 578 263 562 283 q 603 225 594 244 q 603 210 607 218 q 588 202 598 202 l 197 202 q 148 238 150 202 q 148 243 148 241 q 158 279 148 262 q 179 304 169 296 l 189 312 l 140 350 q 106 325 121 339 q 83 295 92 310 q 67 262 74 280 q 57 232 60 244 q 53 205 54 219 q 51 188 51 191 q 51 181 51 184 l 51 140 q 92 41 51 82 q 191 0 133 0 z "},"ة":{"ha":395,"x_min":51,"x_max":345,"o":"m 143 414 l 198 468 l 252 414 l 266 414 l 329 475 l 329 488 l 266 549 l 252 549 l 198 495 l 143 549 l 129 549 l 68 488 l 68 475 l 129 414 l 143 414 m 114 238 q 129 268 114 257 q 169 279 143 279 l 265 202 l 161 202 q 129 211 144 202 q 114 238 114 220 m 151 0 l 244 0 q 316 29 286 0 q 345 100 345 59 l 344 235 q 323 301 344 270 q 269 350 302 332 q 202 368 237 368 l 59 368 l 112 325 q 66 279 81 309 q 51 211 51 250 l 51 100 q 80 29 51 59 q 151 0 110 0 z "},"ت":{"ha":744,"x_min":49,"x_max":694,"o":"m 309 281 l 365 335 l 419 281 l 432 281 l 496 343 l 496 356 l 432 416 l 419 416 l 365 363 l 309 416 l 295 416 l 234 356 l 234 343 l 295 281 l 309 281 m 191 0 l 577 0 q 660 34 625 0 q 694 117 694 69 l 694 258 q 689 296 694 276 q 678 330 685 315 q 665 357 672 345 q 654 375 658 369 q 649 382 649 382 l 544 299 q 555 289 548 295 q 578 263 562 283 q 603 225 594 244 q 603 210 607 218 q 588 202 598 202 l 197 202 q 148 238 150 202 q 148 243 148 241 q 158 279 148 262 q 179 304 169 296 l 189 312 l 140 350 q 106 325 121 339 q 83 295 92 310 q 67 262 74 280 q 57 232 60 244 q 53 205 54 219 q 51 188 51 191 q 51 181 51 184 l 51 140 q 92 41 51 82 q 191 0 133 0 z "},"ث":{"ha":744,"x_min":49,"x_max":694,"o":"m 309 281 l 365 335 l 419 281 l 432 281 l 496 343 l 496 356 l 432 416 l 419 416 l 365 363 l 309 416 l 295 416 l 234 356 l 234 343 l 295 281 l 309 281 m 357 391 l 371 391 l 434 452 l 434 465 l 371 526 l 357 526 l 296 465 l 296 452 l 357 391 m 191 0 l 577 0 q 660 34 625 0 q 694 117 694 69 l 694 258 q 689 296 694 276 q 678 330 685 315 q 665 357 672 345 q 654 375 658 369 q 649 382 649 382 l 544 299 q 555 289 548 295 q 578 263 562 283 q 603 225 594 244 q 603 210 607 218 q 588 202 598 202 l 197 202 q 148 238 150 202 q 148 243 148 241 q 158 279 148 262 q 179 304 169 296 l 189 312 l 140 350 q 106 325 121 339 q 83 295 92 310 q 67 262 74 280 q 57 232 60 244 q 53 205 54 219 q 51 188 51 191 q 51 181 51 184 l 51 140 q 92 41 51 82 q 191 0 133 0 z "},"ج":{"ha":639,"x_min":51,"x_max":588,"o":"m 399 -10 l 413 -10 l 476 51 l 476 64 l 413 125 l 399 125 l 338 64 l 338 51 l 399 -10 m 301 -249 q 488 -192 411 -249 l 488 -109 q 391 -131 440 -131 q 333 -120 359 -131 q 294 -93 308 -109 q 270 -56 280 -76 q 258 -19 261 -35 q 255 11 255 -3 q 276 110 255 67 q 330 179 298 154 q 404 220 363 204 q 481 242 446 237 q 549 248 516 248 l 588 369 l 545 369 q 388 398 458 369 q 340 420 372 405 q 291 443 308 435 q 247 452 269 452 q 135 354 187 452 q 133 350 133 351 q 124 311 123 332 q 134 272 124 290 l 153 241 l 188 266 q 182 278 188 266 q 212 319 172 312 q 233 320 221 320 q 285 310 253 320 q 339 288 317 299 l 361 278 q 343 275 354 277 q 300 262 332 272 q 238 239 268 252 q 173 202 209 226 q 112 149 138 178 q 69 77 86 120 q 51 -16 51 34 q 59 -83 51 -51 q 86 -146 67 -115 q 133 -199 105 -176 q 204 -235 161 -221 q 301 -249 248 -249 z "},"ح":{"ha":639,"x_min":51,"x_max":588,"o":"m 301 -249 q 488 -192 411 -249 l 488 -109 q 391 -131 440 -131 q 333 -120 359 -131 q 294 -93 308 -109 q 270 -56 280 -76 q 258 -19 261 -35 q 255 11 255 -3 q 276 110 255 67 q 330 179 298 154 q 404 220 363 204 q 481 242 446 237 q 549 248 516 248 l 588 369 l 545 369 q 388 398 458 369 q 340 420 372 405 q 291 443 308 435 q 247 452 269 452 q 135 354 187 452 q 133 350 133 351 q 124 311 123 332 q 134 272 124 290 l 153 241 l 188 266 q 182 278 188 266 q 212 319 172 312 q 233 320 221 320 q 285 310 253 320 q 339 288 317 299 l 361 278 q 343 275 354 277 q 300 262 332 272 q 238 239 268 252 q 173 202 209 226 q 112 149 138 178 q 69 77 86 120 q 51 -16 51 34 q 59 -83 51 -51 q 86 -146 67 -115 q 133 -199 105 -176 q 204 -235 161 -221 q 301 -249 248 -249 z "},"خ":{"ha":639,"x_min":51,"x_max":588,"o":"m 270 498 l 284 498 l 348 559 l 348 572 l 284 632 l 270 632 l 210 572 l 210 559 l 270 498 m 301 -249 q 488 -192 411 -249 l 488 -109 q 391 -131 440 -131 q 333 -120 359 -131 q 294 -93 308 -109 q 270 -56 280 -76 q 258 -19 261 -35 q 255 11 255 -3 q 276 110 255 67 q 330 179 298 154 q 404 220 363 204 q 481 242 446 237 q 549 248 516 248 l 588 369 l 545 369 q 388 398 458 369 q 340 420 372 405 q 291 443 308 435 q 247 452 269 452 q 135 354 187 452 q 133 350 133 351 q 124 311 123 332 q 134 272 124 290 l 153 241 l 188 266 q 182 278 188 266 q 212 319 172 312 q 233 320 221 320 q 285 310 253 320 q 339 288 317 299 l 361 278 q 343 275 354 277 q 300 262 332 272 q 238 239 268 252 q 173 202 209 226 q 112 149 138 178 q 69 77 86 120 q 51 -16 51 34 q 59 -83 51 -51 q 86 -146 67 -115 q 133 -199 105 -176 q 204 -235 161 -221 q 301 -249 248 -249 z "},"د":{"ha":436,"x_min":32,"x_max":410,"o":"m 176 0 l 251 0 q 326 25 293 0 q 369 90 358 51 q 385 166 382 124 q 379 254 388 208 q 351 342 370 300 q 294 419 331 383 q 207 472 257 454 l 153 348 q 215 317 188 333 q 258 287 243 301 q 285 260 274 273 q 300 236 296 247 q 306 218 304 226 q 307 206 308 210 l 307 202 l 174 202 q 150 206 160 202 q 136 216 141 210 q 128 231 131 223 q 125 246 126 239 q 126 261 125 253 q 127 271 127 269 q 128 275 128 274 l 85 275 q 70 62 26 146 q 114 17 86 34 q 176 0 142 0 z "},"ذ":{"ha":436,"x_min":32,"x_max":410,"o":"m 203 519 l 217 519 l 280 580 l 280 593 l 217 654 l 203 654 l 142 593 l 142 580 l 203 519 m 176 0 l 251 0 q 326 25 293 0 q 369 90 358 51 q 385 166 382 124 q 379 254 388 208 q 351 342 370 300 q 294 419 331 383 q 207 472 257 454 l 153 348 q 215 317 188 333 q 258 287 243 301 q 285 260 274 273 q 300 236 296 247 q 306 218 304 226 q 307 206 308 210 l 307 202 l 174 202 q 150 206 160 202 q 136 216 141 210 q 128 231 131 223 q 125 246 126 239 q 126 261 125 253 q 127 271 127 269 q 128 275 128 274 l 85 275 q 70 62 26 146 q 114 17 86 34 q 176 0 142 0 z "}}}
